{"glyphs":{"0":{"ha":811,"x_min":0,"x_max":0,"o":"m 408 -25 b 731 488 581 -25 731 165 b 408 997 731 813 558 997 b 81 488 254 997 81 817 b 408 -25 81 165 232 -25 z m 408 3 b 168 488 258 3 168 188 b 408 969 168 788 257 969 b 643 488 546 969 643 788 b 408 3 643 188 558 3 z "},"1":{"ha":536,"x_min":0,"x_max":0,"o":"m 75 0 l 513 0 l 513 24 l 471 24 b 333 188 350 24 333 40 l 333 997 l 313 1003 b 39 847 253 936 129 881 l 44 825 l 254 893 l 254 188 b 117 24 254 40 222 24 l 75 24 z "},"2":{"ha":743,"x_min":0,"x_max":0,"o":"m 585 -68 l 607 -72 l 688 236 l 664 242 b 432 69 611 93 564 69 l 140 69 b 633 761 443 357 633 579 b 376 997 633 896 542 997 b 188 958 274 997 226 958 b 157 1004 165 958 151 969 l 133 1008 l 64 706 l 89 699 b 365 971 153 888 246 971 b 544 753 485 971 544 868 b 44 8 544 536 389 354 l 47 0 l 544 0 b 585 -68 585 0 599 -24 z "},"3":{"ha":722,"x_min":0,"x_max":0,"o":"m 301 -25 b 656 267 493 -25 656 103 b 315 536 656 460 461 547 l 315 540 b 613 797 471 568 613 660 b 376 997 613 925 499 997 b 217 968 301 997 251 968 b 186 1026 192 968 181 985 l 163 1031 l 81 718 l 106 711 b 369 971 163 885 260 971 b 524 800 469 971 524 900 b 210 536 524 622 382 567 l 203 513 b 567 247 450 543 567 433 b 319 0 567 97 476 0 b 90 153 149 0 165 153 b 42 104 63 153 42 133 b 301 -25 42 36 163 -25 z "},"4":{"ha":729,"x_min":0,"x_max":0,"o":"m 313 24 l 313 0 l 657 0 l 657 24 b 528 201 544 24 528 40 l 528 254 l 668 254 l 685 315 l 528 315 l 528 1011 l 518 1013 l 22 257 l 24 254 l 450 254 l 450 201 b 313 24 450 40 418 24 z m 93 315 l 450 860 l 450 315 z "},"5":{"ha":714,"x_min":0,"x_max":0,"o":"m 307 -25 b 635 293 490 -25 635 100 b 233 650 635 492 485 625 l 165 657 l 224 903 l 632 903 l 664 1022 l 643 1026 b 546 972 624 986 601 972 l 214 972 l 122 589 l 199 581 b 563 258 403 558 563 469 b 328 1 563 89 457 1 b 89 165 154 1 164 165 b 44 117 63 165 44 146 b 307 -25 44 40 168 -25 z "},"6":{"ha":739,"x_min":0,"x_max":0,"o":"m 385 -25 b 689 297 556 -25 689 122 b 419 607 689 489 586 607 b 171 478 301 607 224 542 b 513 1011 200 685 304 881 l 500 1032 b 75 353 282 911 75 668 b 385 -25 75 96 222 -25 z m 163 353 b 167 436 163 381 164 408 b 400 569 219 507 297 569 b 603 289 533 569 603 453 b 385 1 603 103 504 1 b 163 353 265 1 163 115 z "},"7":{"ha":688,"x_min":0,"x_max":0,"o":"m 281 -25 b 343 38 311 -25 343 -4 b 296 194 343 89 296 111 b 535 718 296 314 436 553 l 682 965 l 678 972 l 176 972 b 125 1022 125 972 121 989 l 100 1026 l 17 726 l 42 721 b 274 903 88 869 133 903 l 613 903 l 511 736 b 208 74 317 417 208 188 b 281 -25 208 3 246 -25 z "},"8":{"ha":750,"x_min":0,"x_max":0,"o":"m 372 -25 b 681 229 535 -25 681 65 b 429 540 681 376 575 454 b 642 782 561 615 642 669 b 385 997 642 906 540 997 b 117 771 222 997 117 892 b 317 508 117 654 194 579 b 69 214 167 435 69 344 b 372 -25 69 51 221 -25 z m 156 228 b 336 497 156 346 232 432 l 351 489 b 611 199 482 418 611 342 b 381 0 611 86 519 0 b 156 228 257 0 156 71 z m 192 801 b 383 972 192 896 267 972 b 565 779 496 972 565 890 b 408 551 565 681 525 622 b 385 565 401 556 393 561 b 192 801 282 624 192 690 z "},"9":{"ha":739,"x_min":0,"x_max":0,"o":"m 226 -39 l 239 -60 b 664 619 457 61 664 304 b 354 997 664 876 517 997 b 50 675 183 997 50 850 b 319 365 50 483 153 365 b 568 494 438 365 515 431 b 226 -39 539 288 435 92 z m 136 683 b 354 971 136 869 235 971 b 576 619 474 971 576 857 b 572 536 576 592 575 564 b 339 403 519 465 442 403 b 136 683 206 403 136 519 z "}," ":{"ha":333,"x_min":0,"x_max":0,"o":""},"A":{"ha":933,"x_min":0,"x_max":0,"o":"m 622 24 l 622 0 l 925 0 l 925 24 b 790 188 857 24 839 61 l 471 1021 l 463 1021 b 407 964 447 994 433 979 l 407 956 l 428 901 l 164 217 b 4 24 113 83 81 24 l 4 0 l 299 0 l 299 24 b 196 214 190 24 143 76 l 243 336 l 644 336 l 701 188 b 622 24 750 61 721 24 z m 254 367 l 443 860 l 633 367 z "},"Á":{"ha":933,"x_min":0,"x_max":0,"o":"m 622 24 l 622 0 l 925 0 l 925 24 b 790 188 857 24 839 61 l 471 1021 l 463 1021 b 407 964 447 994 433 979 l 407 956 l 428 901 l 164 217 b 4 24 113 83 81 24 l 4 0 l 299 0 l 299 24 b 196 214 190 24 143 76 l 243 336 l 644 336 l 701 188 b 622 24 750 61 721 24 z m 418 1093 l 635 1285 b 660 1329 651 1300 660 1314 b 621 1368 660 1351 640 1368 b 579 1343 606 1368 592 1360 l 404 1107 z m 254 367 l 443 860 l 633 367 z "},"Ă":{"ha":933,"x_min":0,"x_max":0,"o":"m 622 24 l 622 0 l 925 0 l 925 24 b 790 188 857 24 839 61 l 471 1021 l 463 1021 b 407 964 447 994 433 979 l 407 956 l 428 901 l 164 217 b 4 24 113 83 81 24 l 4 0 l 299 0 l 299 24 b 196 214 190 24 143 76 l 243 336 l 644 336 l 701 188 b 622 24 750 61 721 24 z m 465 1117 b 651 1299 597 1117 644 1233 l 635 1303 b 465 1186 621 1268 564 1186 b 296 1303 367 1186 310 1268 l 279 1299 b 465 1117 286 1233 333 1117 z m 254 367 l 443 860 l 633 367 z "},"Ắ":{"ha":933,"x_min":0,"x_max":0,"o":"m 622 24 l 622 0 l 925 0 l 925 24 b 790 188 857 24 839 61 l 471 1021 l 463 1021 b 407 964 447 994 433 979 l 407 956 l 428 901 l 164 217 b 4 24 113 83 81 24 l 4 0 l 299 0 l 299 24 b 196 214 190 24 143 76 l 243 336 l 644 336 l 701 188 b 622 24 750 61 721 24 z m 465 1117 b 651 1299 597 1117 644 1233 l 635 1303 b 465 1186 621 1268 564 1186 b 296 1303 367 1186 310 1268 l 279 1299 b 465 1117 286 1233 333 1117 z m 418 1325 l 635 1517 b 660 1561 651 1532 660 1546 b 621 1600 660 1583 640 1600 b 579 1575 606 1600 592 1592 l 404 1339 z m 254 367 l 443 860 l 633 367 z "},"Ặ":{"ha":933,"x_min":0,"x_max":0,"o":"m 622 24 l 622 0 l 925 0 l 925 24 b 790 188 857 24 839 61 l 471 1021 l 463 1021 b 407 964 447 994 433 979 l 407 956 l 428 901 l 164 217 b 4 24 113 83 81 24 l 4 0 l 299 0 l 299 24 b 196 214 190 24 143 76 l 243 336 l 644 336 l 701 188 b 622 24 750 61 721 24 z m 465 -303 b 531 -236 501 -303 531 -274 b 465 -169 531 -199 501 -169 b 400 -236 429 -169 400 -199 b 465 -303 400 -274 429 -303 z m 465 1117 b 651 1299 597 1117 644 1233 l 635 1303 b 465 1186 621 1268 564 1186 b 296 1303 367 1186 310 1268 l 279 1299 b 465 1117 286 1233 333 1117 z m 254 367 l 443 860 l 633 367 z "},"Ằ":{"ha":933,"x_min":0,"x_max":0,"o":"m 622 24 l 622 0 l 925 0 l 925 24 b 790 188 857 24 839 61 l 471 1021 l 463 1021 b 407 964 447 994 433 979 l 407 956 l 428 901 l 164 217 b 4 24 113 83 81 24 l 4 0 l 299 0 l 299 24 b 196 214 190 24 143 76 l 243 336 l 644 336 l 701 188 b 622 24 750 61 721 24 z m 465 1117 b 651 1299 597 1117 644 1233 l 635 1303 b 465 1186 621 1268 564 1186 b 296 1303 367 1186 310 1268 l 279 1299 b 465 1117 286 1233 333 1117 z m 290 1517 l 507 1325 l 521 1339 l 346 1575 b 304 1600 333 1592 319 1600 b 265 1561 285 1600 265 1583 b 290 1517 265 1546 274 1532 z m 254 367 l 443 860 l 633 367 z "},"Ẳ":{"ha":933,"x_min":0,"x_max":0,"o":"m 622 24 l 622 0 l 925 0 l 925 24 b 790 188 857 24 839 61 l 471 1021 l 463 1021 b 407 964 447 994 433 979 l 407 956 l 428 901 l 164 217 b 4 24 113 83 81 24 l 4 0 l 299 0 l 299 24 b 196 214 190 24 143 76 l 243 336 l 644 336 l 701 188 b 622 24 750 61 721 24 z m 465 1117 b 651 1299 597 1117 644 1233 l 635 1303 b 465 1186 621 1268 564 1186 b 296 1303 367 1186 310 1268 l 279 1299 b 465 1117 286 1233 333 1117 z m 440 1336 l 461 1336 b 561 1497 475 1407 561 1422 b 465 1579 561 1553 514 1579 b 360 1504 401 1579 360 1532 b 383 1481 360 1489 369 1481 b 461 1558 425 1481 413 1558 b 499 1501 488 1558 499 1535 b 440 1336 499 1432 446 1422 z m 254 367 l 443 860 l 633 367 z "},"Ẵ":{"ha":933,"x_min":0,"x_max":0,"o":"m 622 24 l 622 0 l 925 0 l 925 24 b 790 188 857 24 839 61 l 471 1021 l 463 1021 b 407 964 447 994 433 979 l 407 956 l 428 901 l 164 217 b 4 24 113 83 81 24 l 4 0 l 299 0 l 299 24 b 196 214 190 24 143 76 l 243 336 l 644 336 l 701 188 b 622 24 750 61 721 24 z m 465 1117 b 651 1299 597 1117 644 1233 l 635 1303 b 465 1186 621 1268 564 1186 b 296 1303 367 1186 310 1268 l 279 1299 b 465 1117 286 1233 333 1117 z m 246 1364 l 264 1353 b 367 1428 296 1408 325 1428 b 546 1353 428 1428 474 1353 b 683 1475 586 1353 635 1371 l 665 1488 b 571 1417 633 1432 603 1417 b 383 1489 500 1417 456 1489 b 246 1364 343 1489 296 1469 z m 254 367 l 443 860 l 633 367 z "},"Ǎ":{"ha":933,"x_min":0,"x_max":0,"o":"m 622 24 l 622 0 l 925 0 l 925 24 b 790 188 857 24 839 61 l 471 1021 l 463 1021 b 407 964 447 994 433 979 l 407 956 l 428 901 l 164 217 b 4 24 113 83 81 24 l 4 0 l 299 0 l 299 24 b 196 214 190 24 143 76 l 243 336 l 644 336 l 701 188 b 622 24 750 61 721 24 z m 453 1118 l 478 1118 l 672 1308 l 660 1321 l 465 1194 l 271 1321 l 258 1308 z m 254 367 l 443 860 l 633 367 z "},"Â":{"ha":933,"x_min":0,"x_max":0,"o":"m 622 24 l 622 0 l 925 0 l 925 24 b 790 188 857 24 839 61 l 471 1021 l 463 1021 b 407 964 447 994 433 979 l 407 956 l 428 901 l 164 217 b 4 24 113 83 81 24 l 4 0 l 299 0 l 299 24 b 196 214 190 24 143 76 l 243 336 l 644 336 l 701 188 b 622 24 750 61 721 24 z m 271 1118 l 465 1244 l 660 1118 l 672 1131 l 478 1321 l 453 1321 l 258 1131 z m 254 367 l 443 860 l 633 367 z "},"Ấ":{"ha":933,"x_min":0,"x_max":0,"o":"m 622 24 l 622 0 l 925 0 l 925 24 b 790 188 857 24 839 61 l 471 1021 l 463 1021 b 407 964 447 994 433 979 l 407 956 l 428 901 l 164 217 b 4 24 113 83 81 24 l 4 0 l 299 0 l 299 24 b 196 214 190 24 143 76 l 243 336 l 644 336 l 701 188 b 622 24 750 61 721 24 z m 271 1118 l 465 1244 l 660 1118 l 672 1131 l 478 1321 l 453 1321 l 258 1131 z m 621 1299 l 799 1453 b 824 1496 817 1468 824 1481 b 788 1532 824 1517 806 1532 b 747 1507 772 1532 760 1524 l 607 1313 z m 254 367 l 443 860 l 633 367 z "},"Ậ":{"ha":933,"x_min":0,"x_max":0,"o":"m 622 24 l 622 0 l 925 0 l 925 24 b 790 188 857 24 839 61 l 471 1021 l 463 1021 b 407 964 447 994 433 979 l 407 956 l 428 901 l 164 217 b 4 24 113 83 81 24 l 4 0 l 299 0 l 299 24 b 196 214 190 24 143 76 l 243 336 l 644 336 l 701 188 b 622 24 750 61 721 24 z m 465 -303 b 531 -236 501 -303 531 -274 b 465 -169 531 -199 501 -169 b 400 -236 429 -169 400 -199 b 465 -303 400 -274 429 -303 z m 271 1118 l 465 1244 l 660 1118 l 672 1131 l 478 1321 l 453 1321 l 258 1131 z m 254 367 l 443 860 l 633 367 z "},"Ầ":{"ha":933,"x_min":0,"x_max":0,"o":"m 622 24 l 622 0 l 925 0 l 925 24 b 790 188 857 24 839 61 l 471 1021 l 463 1021 b 407 964 447 994 433 979 l 407 956 l 428 901 l 164 217 b 4 24 113 83 81 24 l 4 0 l 299 0 l 299 24 b 196 214 190 24 143 76 l 243 336 l 644 336 l 701 188 b 622 24 750 61 721 24 z m 271 1118 l 465 1244 l 660 1118 l 672 1131 l 478 1321 l 453 1321 l 258 1131 z m 499 1453 l 676 1299 l 690 1313 l 550 1507 b 510 1532 538 1524 525 1532 b 474 1496 492 1532 474 1517 b 499 1453 474 1481 481 1468 z m 254 367 l 443 860 l 633 367 z "},"Ẩ":{"ha":933,"x_min":0,"x_max":0,"o":"m 622 24 l 622 0 l 925 0 l 925 24 b 790 188 857 24 839 61 l 471 1021 l 463 1021 b 407 964 447 994 433 979 l 407 956 l 428 901 l 164 217 b 4 24 113 83 81 24 l 4 0 l 299 0 l 299 24 b 196 214 190 24 143 76 l 243 336 l 644 336 l 701 188 b 622 24 750 61 721 24 z m 271 1118 l 465 1244 l 660 1118 l 672 1131 l 478 1321 l 453 1321 l 258 1131 z m 601 1310 l 622 1310 b 722 1471 636 1381 722 1396 b 628 1553 722 1526 675 1553 b 521 1478 563 1553 521 1506 b 544 1454 521 1463 531 1454 b 622 1532 586 1454 574 1532 b 660 1475 649 1532 660 1508 b 601 1310 660 1406 607 1396 z m 254 367 l 443 860 l 633 367 z "},"Ẫ":{"ha":933,"x_min":0,"x_max":0,"o":"m 622 24 l 622 0 l 925 0 l 925 24 b 790 188 857 24 839 61 l 471 1021 l 463 1021 b 407 964 447 994 433 979 l 407 956 l 428 901 l 164 217 b 4 24 113 83 81 24 l 4 0 l 299 0 l 299 24 b 196 214 190 24 143 76 l 243 336 l 644 336 l 701 188 b 622 24 750 61 721 24 z m 271 1118 l 465 1244 l 660 1118 l 672 1131 l 478 1321 l 453 1321 l 258 1131 z m 246 1424 l 264 1413 b 367 1488 296 1468 325 1488 b 546 1413 428 1488 474 1413 b 683 1535 586 1413 635 1431 l 665 1547 b 571 1476 633 1492 603 1476 b 383 1549 500 1476 456 1549 b 246 1424 343 1549 296 1529 z m 254 367 l 443 860 l 633 367 z "},"Ä":{"ha":933,"x_min":0,"x_max":0,"o":"m 622 24 l 622 0 l 925 0 l 925 24 b 790 188 857 24 839 61 l 471 1021 l 463 1021 b 407 964 447 994 433 979 l 407 956 l 428 901 l 164 217 b 4 24 113 83 81 24 l 4 0 l 299 0 l 299 24 b 196 214 190 24 143 76 l 243 336 l 644 336 l 701 188 b 622 24 750 61 721 24 z m 331 1153 b 390 1217 365 1153 390 1181 b 331 1281 390 1253 365 1281 b 271 1217 296 1281 271 1253 b 331 1153 271 1181 296 1153 z m 600 1153 b 660 1217 635 1153 660 1181 b 600 1281 660 1253 635 1281 b 540 1217 565 1281 540 1253 b 600 1153 540 1181 565 1153 z m 254 367 l 443 860 l 633 367 z "},"Ȧ":{"ha":933,"x_min":0,"x_max":0,"o":"m 622 24 l 622 0 l 925 0 l 925 24 b 790 188 857 24 839 61 l 471 1021 l 463 1021 b 407 964 447 994 433 979 l 407 956 l 428 901 l 164 217 b 4 24 113 83 81 24 l 4 0 l 299 0 l 299 24 b 196 214 190 24 143 76 l 243 336 l 644 336 l 701 188 b 622 24 750 61 721 24 z m 465 1149 b 531 1215 501 1149 531 1178 b 465 1282 531 1253 501 1282 b 400 1215 429 1282 400 1253 b 465 1149 400 1178 429 1149 z m 254 367 l 443 860 l 633 367 z "},"Ạ":{"ha":933,"x_min":0,"x_max":0,"o":"m 622 24 l 622 0 l 925 0 l 925 24 b 790 188 857 24 839 61 l 471 1021 l 463 1021 b 407 964 447 994 433 979 l 407 956 l 428 901 l 164 217 b 4 24 113 83 81 24 l 4 0 l 299 0 l 299 24 b 196 214 190 24 143 76 l 243 336 l 644 336 l 701 188 b 622 24 750 61 721 24 z m 465 -303 b 531 -236 501 -303 531 -274 b 465 -169 531 -199 501 -169 b 400 -236 429 -169 400 -199 b 465 -303 400 -274 429 -303 z m 254 367 l 443 860 l 633 367 z "},"À":{"ha":933,"x_min":0,"x_max":0,"o":"m 622 24 l 622 0 l 925 0 l 925 24 b 790 188 857 24 839 61 l 471 1021 l 463 1021 b 407 964 447 994 433 979 l 407 956 l 428 901 l 164 217 b 4 24 113 83 81 24 l 4 0 l 299 0 l 299 24 b 196 214 190 24 143 76 l 243 336 l 644 336 l 701 188 b 622 24 750 61 721 24 z m 290 1285 l 507 1093 l 521 1107 l 346 1343 b 304 1368 333 1360 319 1368 b 265 1329 285 1368 265 1351 b 290 1285 265 1314 274 1300 z m 254 367 l 443 860 l 633 367 z "},"Ả":{"ha":933,"x_min":0,"x_max":0,"o":"m 622 24 l 622 0 l 925 0 l 925 24 b 790 188 857 24 839 61 l 471 1021 l 463 1021 b 407 964 447 994 433 979 l 407 956 l 428 901 l 164 217 b 4 24 113 83 81 24 l 4 0 l 299 0 l 299 24 b 196 214 190 24 143 76 l 243 336 l 644 336 l 701 188 b 622 24 750 61 721 24 z m 440 1104 l 461 1104 b 561 1265 475 1175 561 1190 b 465 1347 561 1321 514 1347 b 360 1272 401 1347 360 1300 b 383 1249 360 1257 369 1249 b 461 1326 425 1249 413 1326 b 499 1269 488 1326 499 1303 b 440 1104 499 1200 446 1190 z m 254 367 l 443 860 l 633 367 z "},"Ɑ":{"ha":1150,"x_min":0,"x_max":0,"o":"m 529 -25 b 914 176 692 -25 821 51 l 914 0 l 1111 0 l 1111 24 b 994 200 1019 24 994 40 l 994 772 b 1111 949 994 932 1024 949 l 1111 972 l 914 972 l 914 881 b 569 997 826 951 706 997 b 56 483 285 997 56 794 b 529 -25 56 172 274 -25 z m 149 494 b 565 968 149 779 324 968 b 914 792 714 968 829 897 l 914 215 b 546 26 814 97 696 26 b 149 494 290 26 149 236 z "},"Ā":{"ha":933,"x_min":0,"x_max":0,"o":"m 622 24 l 622 0 l 925 0 l 925 24 b 790 188 857 24 839 61 l 471 1021 l 463 1021 b 407 964 447 994 433 979 l 407 956 l 428 901 l 164 217 b 4 24 113 83 81 24 l 4 0 l 299 0 l 299 24 b 196 214 190 24 143 76 l 243 336 l 644 336 l 701 188 b 622 24 750 61 721 24 z m 267 1171 l 664 1171 l 664 1200 l 267 1200 z m 254 367 l 443 860 l 633 367 z "},"Ą":{"ha":933,"x_min":0,"x_max":0,"o":"m 692 -364 b 844 -287 750 -364 799 -337 l 835 -276 b 726 -321 808 -300 772 -321 b 610 -203 667 -321 610 -286 b 819 0 610 -97 699 0 l 925 0 l 925 24 b 790 188 857 24 839 61 l 471 1021 l 463 1021 b 407 964 447 994 433 979 l 407 956 l 428 901 l 164 217 b 4 24 113 83 81 24 l 4 0 l 299 0 l 299 24 b 196 214 190 24 143 76 l 243 336 l 643 336 l 729 113 b 708 -3 753 50 750 24 b 550 -228 624 -57 550 -136 b 692 -364 550 -307 606 -364 z m 254 367 l 443 860 l 632 367 z "},"Å":{"ha":933,"x_min":0,"x_max":0,"o":"m 622 24 l 622 0 l 925 0 l 925 24 b 790 188 857 24 839 61 l 471 1021 l 463 1021 b 407 964 447 994 433 979 l 407 956 l 428 901 l 164 217 b 4 24 113 83 81 24 l 4 0 l 299 0 l 299 24 b 196 214 190 24 143 76 l 243 336 l 644 336 l 701 188 b 622 24 750 61 721 24 z m 464 1083 b 611 1226 540 1083 611 1138 b 467 1364 611 1318 538 1364 b 319 1221 390 1364 319 1310 b 464 1083 319 1129 393 1083 z m 465 1096 b 389 1221 414 1096 389 1149 b 465 1351 389 1294 417 1351 b 542 1226 517 1351 542 1299 b 465 1096 542 1153 515 1096 z m 254 367 l 443 860 l 633 367 z "},"Ǻ":{"ha":933,"x_min":0,"x_max":0,"o":"m 622 24 l 622 0 l 925 0 l 925 24 b 790 188 857 24 839 61 l 471 1021 l 463 1021 b 407 964 447 994 433 979 l 407 956 l 428 901 l 164 217 b 4 24 113 83 81 24 l 4 0 l 299 0 l 299 24 b 196 214 190 24 143 76 l 243 336 l 644 336 l 701 188 b 622 24 750 61 721 24 z m 464 1083 b 611 1226 540 1083 611 1138 b 467 1364 611 1318 538 1364 b 319 1221 390 1364 319 1310 b 464 1083 319 1129 393 1083 z m 465 1096 b 389 1221 414 1096 389 1149 b 465 1351 389 1294 417 1351 b 542 1226 517 1351 542 1299 b 465 1096 542 1153 515 1096 z m 418 1429 l 635 1621 b 660 1665 651 1636 660 1650 b 621 1704 660 1688 640 1704 b 579 1679 606 1704 592 1696 l 404 1443 z m 254 367 l 443 860 l 633 367 z "},"Ã":{"ha":933,"x_min":0,"x_max":0,"o":"m 622 24 l 622 0 l 925 0 l 925 24 b 790 188 857 24 839 61 l 471 1021 l 463 1021 b 407 964 447 994 433 979 l 407 956 l 428 901 l 164 217 b 4 24 113 83 81 24 l 4 0 l 299 0 l 299 24 b 196 214 190 24 143 76 l 243 336 l 644 336 l 701 188 b 622 24 750 61 721 24 z m 246 1132 l 264 1121 b 367 1196 296 1176 325 1196 b 546 1121 428 1196 474 1121 b 683 1243 586 1121 635 1139 l 665 1256 b 571 1185 633 1200 603 1185 b 383 1257 500 1185 456 1257 b 246 1132 343 1257 296 1238 z m 254 367 l 443 860 l 633 367 z "},"Æ":{"ha":1288,"x_min":0,"x_max":0,"o":"m 1179 -53 l 1201 -58 l 1274 204 l 1247 211 b 982 29 1196 64 1143 29 l 899 29 b 756 131 768 29 756 40 l 756 496 l 858 496 b 1008 343 993 496 1008 465 l 1036 343 l 1036 679 l 1008 679 b 857 525 1008 564 996 525 l 756 525 l 756 842 b 899 943 756 932 768 943 l 940 943 b 1215 779 1129 943 1160 899 l 1239 786 l 1174 1031 l 1151 1025 b 1090 972 1164 981 1138 972 l 551 972 l 551 949 l 572 949 b 635 819 653 949 683 888 l 208 224 b -7 24 106 81 64 24 l -7 0 l 272 0 l 272 24 b 240 214 176 24 151 89 l 336 349 l 675 349 l 675 200 b 558 24 675 40 650 24 l 558 0 l 1118 0 b 1179 -53 1165 0 1192 -8 z m 358 379 l 674 821 b 675 772 675 806 675 792 l 675 379 z "},"Ǽ":{"ha":1288,"x_min":0,"x_max":0,"o":"m 1179 -53 l 1201 -58 l 1274 204 l 1247 211 b 982 29 1196 64 1143 29 l 899 29 b 756 131 768 29 756 40 l 756 496 l 858 496 b 1008 343 993 496 1008 465 l 1036 343 l 1036 679 l 1008 679 b 857 525 1008 564 996 525 l 756 525 l 756 842 b 899 943 756 932 768 943 l 940 943 b 1215 779 1129 943 1160 899 l 1239 786 l 1174 1031 l 1151 1025 b 1090 972 1164 981 1138 972 l 551 972 l 551 949 l 572 949 b 635 819 653 949 683 888 l 208 224 b -7 24 106 81 64 24 l -7 0 l 272 0 l 272 24 b 240 214 176 24 151 89 l 336 349 l 675 349 l 675 200 b 558 24 675 40 650 24 l 558 0 l 1118 0 b 1179 -53 1165 0 1192 -8 z m 833 1093 l 1050 1285 b 1075 1329 1067 1300 1075 1314 b 1036 1368 1075 1351 1056 1368 b 994 1343 1021 1368 1007 1360 l 819 1107 z m 358 379 l 674 821 b 675 772 675 806 675 792 l 675 379 z "},"Ǣ":{"ha":1288,"x_min":0,"x_max":0,"o":"m 1179 -53 l 1201 -58 l 1274 204 l 1247 211 b 982 29 1196 64 1143 29 l 899 29 b 756 131 768 29 756 40 l 756 496 l 858 496 b 1008 343 993 496 1008 465 l 1036 343 l 1036 679 l 1008 679 b 857 525 1008 564 996 525 l 756 525 l 756 842 b 899 943 756 932 768 943 l 940 943 b 1215 779 1129 943 1160 899 l 1239 786 l 1174 1031 l 1151 1025 b 1090 972 1164 981 1138 972 l 551 972 l 551 949 l 572 949 b 635 819 653 949 683 888 l 208 224 b -7 24 106 81 64 24 l -7 0 l 272 0 l 272 24 b 240 214 176 24 151 89 l 336 349 l 675 349 l 675 200 b 558 24 675 40 650 24 l 558 0 l 1118 0 b 1179 -53 1165 0 1192 -8 z m 682 1171 l 1079 1171 l 1079 1200 l 682 1200 z m 358 379 l 674 821 b 675 772 675 806 675 792 l 675 379 z "},"B":{"ha":813,"x_min":0,"x_max":0,"o":"m 39 24 l 39 0 l 390 0 b 760 281 671 0 760 144 b 467 539 760 479 569 539 l 467 542 b 682 764 550 551 682 632 b 397 972 682 874 590 972 l 39 972 l 39 949 b 163 772 136 949 163 932 l 163 200 b 39 24 163 40 136 24 z m 410 29 b 243 117 297 29 243 40 l 243 517 l 343 517 b 679 274 557 517 679 442 b 410 29 679 119 575 29 z m 336 546 l 243 546 l 243 856 b 393 943 243 929 281 943 b 601 758 540 943 601 857 b 336 546 601 643 519 546 z "},"C":{"ha":971,"x_min":0,"x_max":0,"o":"m 546 -25 b 943 211 703 -25 853 46 l 922 225 b 565 18 844 85 700 18 b 149 490 347 18 149 196 b 551 968 149 750 303 968 b 889 736 685 968 824 906 l 913 743 l 836 1031 l 814 1025 b 763 972 826 981 799 972 b 556 997 711 972 651 997 b 56 482 281 997 56 783 b 546 -25 56 181 282 -25 z "},"Ć":{"ha":971,"x_min":0,"x_max":0,"o":"m 546 -25 b 943 211 703 -25 853 46 l 922 225 b 565 18 844 85 700 18 b 149 490 347 18 149 196 b 551 968 149 750 303 968 b 889 736 685 968 824 906 l 913 743 l 836 1031 l 814 1025 b 763 972 826 981 799 972 b 556 997 711 972 651 997 b 56 482 281 997 56 783 b 546 -25 56 181 282 -25 z m 500 1093 l 717 1285 b 742 1329 733 1300 742 1314 b 703 1368 742 1351 722 1368 b 661 1343 688 1368 674 1360 l 486 1107 z "},"Č":{"ha":971,"x_min":0,"x_max":0,"o":"m 546 -25 b 943 211 703 -25 853 46 l 922 225 b 565 18 844 85 700 18 b 149 490 347 18 149 196 b 551 968 149 750 303 968 b 889 736 685 968 824 906 l 913 743 l 836 1031 l 814 1025 b 763 972 826 981 799 972 b 556 997 711 972 651 997 b 56 482 281 997 56 783 b 546 -25 56 181 282 -25 z m 535 1118 l 560 1118 l 754 1308 l 742 1321 l 547 1194 l 353 1321 l 340 1308 z "},"Ç":{"ha":971,"x_min":0,"x_max":0,"o":"m 522 -372 b 667 -257 615 -372 667 -318 b 557 -128 667 -186 599 -149 b 533 -72 521 -110 515 -104 l 561 -25 b 943 211 713 -21 856 51 l 922 225 b 565 18 844 85 700 18 b 149 490 347 18 149 196 b 551 968 149 750 303 968 b 889 736 685 968 824 906 l 913 743 l 836 1031 l 814 1025 b 763 972 826 981 799 972 b 556 997 711 972 651 997 b 56 482 281 997 56 783 b 532 -25 56 186 274 -18 l 469 -133 b 479 -165 460 -150 463 -157 l 560 -208 b 608 -276 593 -226 608 -249 b 518 -347 608 -317 576 -347 b 390 -300 460 -347 413 -318 l 378 -319 b 522 -372 400 -339 449 -372 z "},"Ĉ":{"ha":971,"x_min":0,"x_max":0,"o":"m 546 -25 b 943 211 703 -25 853 46 l 922 225 b 565 18 844 85 700 18 b 149 490 347 18 149 196 b 551 968 149 750 303 968 b 889 736 685 968 824 906 l 913 743 l 836 1031 l 814 1025 b 763 972 826 981 799 972 b 556 997 711 972 651 997 b 56 482 281 997 56 783 b 546 -25 56 181 282 -25 z m 353 1118 l 547 1244 l 742 1118 l 754 1131 l 560 1321 l 535 1321 l 340 1131 z "},"Ċ":{"ha":971,"x_min":0,"x_max":0,"o":"m 546 -25 b 943 211 703 -25 853 46 l 922 225 b 565 18 844 85 700 18 b 149 490 347 18 149 196 b 551 968 149 750 303 968 b 889 736 685 968 824 906 l 913 743 l 836 1031 l 814 1025 b 763 972 826 981 799 972 b 556 997 711 972 651 997 b 56 482 281 997 56 783 b 546 -25 56 181 282 -25 z m 547 1149 b 613 1215 583 1149 613 1178 b 547 1282 613 1253 583 1282 b 482 1215 511 1282 482 1253 b 547 1149 482 1178 511 1149 z "},"D":{"ha":1032,"x_min":0,"x_max":0,"o":"m 39 24 l 39 0 l 429 0 b 976 499 781 0 976 199 b 394 972 976 783 788 972 l 39 972 l 39 949 b 157 772 131 949 157 932 l 157 200 b 39 24 157 40 131 24 z m 458 29 l 401 29 b 238 156 290 29 238 42 l 238 842 b 400 943 238 932 292 943 b 886 493 719 943 886 764 b 458 29 886 225 725 29 z "},"Ď":{"ha":1032,"x_min":0,"x_max":0,"o":"m 39 24 l 39 0 l 429 0 b 976 499 781 0 976 199 b 394 972 976 783 788 972 l 39 972 l 39 949 b 157 772 131 949 157 932 l 157 200 b 39 24 157 40 131 24 z m 458 29 l 401 29 b 238 156 290 29 238 42 l 238 842 b 400 943 238 932 292 943 b 886 493 719 943 886 764 b 458 29 886 225 725 29 z m 482 1118 l 507 1118 l 701 1308 l 689 1321 l 494 1194 l 300 1321 l 288 1308 z "},"Đ":{"ha":1032,"x_min":0,"x_max":0,"o":"m 39 24 l 39 0 l 429 0 b 976 499 781 0 976 199 b 394 972 976 783 788 972 l 39 972 l 39 949 b 157 772 131 949 157 932 l 157 521 l -3 521 l -3 504 l 157 504 l 157 200 b 39 24 157 40 131 24 z m 458 29 l 401 29 b 238 156 290 29 238 42 l 238 504 l 528 504 l 528 521 l 238 521 l 238 842 b 400 943 238 932 292 943 b 886 493 719 943 886 764 b 458 29 886 225 725 29 z "},"Ḍ":{"ha":1032,"x_min":0,"x_max":0,"o":"m 39 24 l 39 0 l 429 0 b 976 499 781 0 976 199 b 394 972 976 783 788 972 l 39 972 l 39 949 b 157 772 131 949 157 932 l 157 200 b 39 24 157 40 131 24 z m 458 29 l 401 29 b 238 156 290 29 238 42 l 238 842 b 400 943 238 932 292 943 b 886 493 719 943 886 764 b 458 29 886 225 725 29 z m 492 -303 b 557 -236 528 -303 557 -274 b 492 -169 557 -199 528 -169 b 426 -236 456 -169 426 -199 b 492 -303 426 -274 456 -303 z "},"Ḏ":{"ha":1032,"x_min":0,"x_max":0,"o":"m 39 24 l 39 0 l 429 0 b 976 499 781 0 976 199 b 394 972 976 783 788 972 l 39 972 l 39 949 b 157 772 131 949 157 932 l 157 200 b 39 24 157 40 131 24 z m 458 29 l 401 29 b 238 156 290 29 238 42 l 238 842 b 400 943 238 932 292 943 b 886 493 719 943 886 764 b 458 29 886 225 725 29 z m 293 -225 l 690 -225 l 690 -196 l 293 -196 z "},"Ð":{"ha":1032,"x_min":0,"x_max":0,"o":"m 39 24 l 39 0 l 429 0 b 976 499 781 0 976 199 b 394 972 976 783 788 972 l 39 972 l 39 949 b 157 772 131 949 157 932 l 157 521 l -3 521 l -3 504 l 157 504 l 157 200 b 39 24 157 40 131 24 z m 458 29 l 401 29 b 238 156 290 29 238 42 l 238 504 l 528 504 l 528 521 l 238 521 l 238 842 b 400 943 238 932 292 943 b 886 493 719 943 886 764 b 458 29 886 225 725 29 z "},"E":{"ha":768,"x_min":0,"x_max":0,"o":"m 660 -53 l 682 -58 l 754 204 l 728 211 b 463 29 676 64 624 29 l 379 29 b 236 131 249 29 236 40 l 236 496 l 339 496 b 489 343 474 496 489 465 l 517 343 l 517 679 l 489 679 b 338 525 489 564 476 525 l 236 525 l 236 842 b 379 943 236 932 249 943 l 421 943 b 696 779 610 943 640 899 l 719 786 l 654 1031 l 632 1025 b 571 972 644 981 618 972 l 39 972 l 39 949 b 156 772 131 949 156 932 l 156 200 b 39 24 156 40 131 24 l 39 0 l 599 0 b 660 -53 646 0 672 -8 z "},"É":{"ha":768,"x_min":0,"x_max":0,"o":"m 660 -53 l 682 -58 l 754 204 l 728 211 b 463 29 676 64 624 29 l 379 29 b 236 131 249 29 236 40 l 236 496 l 339 496 b 489 343 474 496 489 465 l 517 343 l 517 679 l 489 679 b 338 525 489 564 476 525 l 236 525 l 236 842 b 379 943 236 932 249 943 l 421 943 b 696 779 610 943 640 899 l 719 786 l 654 1031 l 632 1025 b 571 972 644 981 618 972 l 39 972 l 39 949 b 156 772 131 949 156 932 l 156 200 b 39 24 156 40 131 24 l 39 0 l 599 0 b 660 -53 646 0 672 -8 z m 335 1093 l 551 1285 b 576 1329 568 1300 576 1314 b 538 1368 576 1351 557 1368 b 496 1343 522 1368 508 1360 l 321 1107 z "},"Ĕ":{"ha":768,"x_min":0,"x_max":0,"o":"m 660 -53 l 682 -58 l 754 204 l 728 211 b 463 29 676 64 624 29 l 379 29 b 236 131 249 29 236 40 l 236 496 l 339 496 b 489 343 474 496 489 465 l 517 343 l 517 679 l 489 679 b 338 525 489 564 476 525 l 236 525 l 236 842 b 379 943 236 932 249 943 l 421 943 b 696 779 610 943 640 899 l 719 786 l 654 1031 l 632 1025 b 571 972 644 981 618 972 l 39 972 l 39 949 b 156 772 131 949 156 932 l 156 200 b 39 24 156 40 131 24 l 39 0 l 599 0 b 660 -53 646 0 672 -8 z m 382 1117 b 568 1299 514 1117 561 1233 l 551 1303 b 382 1186 538 1268 481 1186 b 213 1303 283 1186 226 1268 l 196 1299 b 382 1117 203 1233 250 1117 z "},"Ě":{"ha":768,"x_min":0,"x_max":0,"o":"m 660 -53 l 682 -58 l 754 204 l 728 211 b 463 29 676 64 624 29 l 379 29 b 236 131 249 29 236 40 l 236 496 l 339 496 b 489 343 474 496 489 465 l 517 343 l 517 679 l 489 679 b 338 525 489 564 476 525 l 236 525 l 236 842 b 379 943 236 932 249 943 l 421 943 b 696 779 610 943 640 899 l 719 786 l 654 1031 l 632 1025 b 571 972 644 981 618 972 l 39 972 l 39 949 b 156 772 131 949 156 932 l 156 200 b 39 24 156 40 131 24 l 39 0 l 599 0 b 660 -53 646 0 672 -8 z m 369 1118 l 394 1118 l 589 1308 l 576 1321 l 382 1194 l 188 1321 l 175 1308 z "},"Ȩ":{"ha":768,"x_min":0,"x_max":0,"o":"m 660 -53 l 682 -58 l 754 204 l 728 211 b 463 29 676 64 624 29 l 379 29 b 236 131 249 29 236 40 l 236 496 l 339 496 b 489 343 474 496 489 465 l 517 343 l 517 679 l 489 679 b 338 525 489 564 476 525 l 236 525 l 236 842 b 379 943 236 932 249 943 l 421 943 b 696 779 610 943 640 899 l 719 786 l 654 1031 l 632 1025 b 571 972 644 981 618 972 l 39 972 l 39 949 b 156 772 131 949 156 932 l 156 200 b 39 24 156 40 131 24 l 39 0 l 400 0 l 324 -133 b 333 -165 314 -150 317 -157 l 414 -208 b 463 -276 447 -226 463 -249 b 372 -347 463 -317 431 -347 b 244 -300 314 -347 267 -318 l 232 -319 b 376 -372 254 -339 303 -372 b 521 -257 469 -372 521 -318 b 411 -128 521 -186 453 -149 b 388 -72 375 -110 369 -104 l 429 0 l 599 0 b 660 -53 646 0 672 -8 z "},"Ê":{"ha":768,"x_min":0,"x_max":0,"o":"m 660 -53 l 682 -58 l 754 204 l 728 211 b 463 29 676 64 624 29 l 379 29 b 236 131 249 29 236 40 l 236 496 l 339 496 b 489 343 474 496 489 465 l 517 343 l 517 679 l 489 679 b 338 525 489 564 476 525 l 236 525 l 236 842 b 379 943 236 932 249 943 l 421 943 b 696 779 610 943 640 899 l 719 786 l 654 1031 l 632 1025 b 571 972 644 981 618 972 l 39 972 l 39 949 b 156 772 131 949 156 932 l 156 200 b 39 24 156 40 131 24 l 39 0 l 599 0 b 660 -53 646 0 672 -8 z m 188 1118 l 382 1244 l 576 1118 l 589 1131 l 394 1321 l 369 1321 l 175 1131 z "},"Ế":{"ha":768,"x_min":0,"x_max":0,"o":"m 660 -53 l 682 -58 l 754 204 l 728 211 b 463 29 676 64 624 29 l 379 29 b 236 131 249 29 236 40 l 236 496 l 339 496 b 489 343 474 496 489 465 l 517 343 l 517 679 l 489 679 b 338 525 489 564 476 525 l 236 525 l 236 842 b 379 943 236 932 249 943 l 421 943 b 696 779 610 943 640 899 l 719 786 l 654 1031 l 632 1025 b 571 972 644 981 618 972 l 39 972 l 39 949 b 156 772 131 949 156 932 l 156 200 b 39 24 156 40 131 24 l 39 0 l 599 0 b 660 -53 646 0 672 -8 z m 188 1118 l 382 1244 l 576 1118 l 589 1131 l 394 1321 l 369 1321 l 175 1131 z m 538 1299 l 715 1453 b 740 1496 733 1468 740 1481 b 704 1532 740 1517 722 1532 b 664 1507 689 1532 676 1524 l 524 1313 z "},"Ệ":{"ha":768,"x_min":0,"x_max":0,"o":"m 660 -53 l 682 -58 l 754 204 l 728 211 b 463 29 676 64 624 29 l 379 29 b 236 131 249 29 236 40 l 236 496 l 339 496 b 489 343 474 496 489 465 l 517 343 l 517 679 l 489 679 b 338 525 489 564 476 525 l 236 525 l 236 842 b 379 943 236 932 249 943 l 421 943 b 696 779 610 943 640 899 l 719 786 l 654 1031 l 632 1025 b 571 972 644 981 618 972 l 39 972 l 39 949 b 156 772 131 949 156 932 l 156 200 b 39 24 156 40 131 24 l 39 0 l 599 0 b 660 -53 646 0 672 -8 z m 408 -303 b 474 -236 444 -303 474 -274 b 408 -169 474 -199 444 -169 b 343 -236 372 -169 343 -199 b 408 -303 343 -274 372 -303 z m 188 1118 l 382 1244 l 576 1118 l 589 1131 l 394 1321 l 369 1321 l 175 1131 z "},"Ề":{"ha":768,"x_min":0,"x_max":0,"o":"m 660 -53 l 682 -58 l 754 204 l 728 211 b 463 29 676 64 624 29 l 379 29 b 236 131 249 29 236 40 l 236 496 l 339 496 b 489 343 474 496 489 465 l 517 343 l 517 679 l 489 679 b 338 525 489 564 476 525 l 236 525 l 236 842 b 379 943 236 932 249 943 l 421 943 b 696 779 610 943 640 899 l 719 786 l 654 1031 l 632 1025 b 571 972 644 981 618 972 l 39 972 l 39 949 b 156 772 131 949 156 932 l 156 200 b 39 24 156 40 131 24 l 39 0 l 599 0 b 660 -53 646 0 672 -8 z m 188 1118 l 382 1244 l 576 1118 l 589 1131 l 394 1321 l 369 1321 l 175 1131 z m 415 1453 l 593 1299 l 607 1313 l 467 1507 b 426 1532 454 1524 442 1532 b 390 1496 408 1532 390 1517 b 415 1453 390 1481 397 1468 z "},"Ể":{"ha":768,"x_min":0,"x_max":0,"o":"m 660 -53 l 682 -58 l 754 204 l 728 211 b 463 29 676 64 624 29 l 379 29 b 236 131 249 29 236 40 l 236 496 l 339 496 b 489 343 474 496 489 465 l 517 343 l 517 679 l 489 679 b 338 525 489 564 476 525 l 236 525 l 236 842 b 379 943 236 932 249 943 l 421 943 b 696 779 610 943 640 899 l 719 786 l 654 1031 l 632 1025 b 571 972 644 981 618 972 l 39 972 l 39 949 b 156 772 131 949 156 932 l 156 200 b 39 24 156 40 131 24 l 39 0 l 599 0 b 660 -53 646 0 672 -8 z m 188 1118 l 382 1244 l 576 1118 l 589 1131 l 394 1321 l 369 1321 l 175 1131 z m 518 1310 l 539 1310 b 639 1471 553 1381 639 1396 b 544 1553 639 1526 592 1553 b 438 1478 479 1553 438 1506 b 461 1454 438 1463 447 1454 b 539 1532 503 1454 490 1532 b 576 1475 565 1532 576 1508 b 518 1310 576 1406 524 1396 z "},"Ễ":{"ha":768,"x_min":0,"x_max":0,"o":"m 660 -53 l 682 -58 l 754 204 l 728 211 b 463 29 676 64 624 29 l 379 29 b 236 131 249 29 236 40 l 236 496 l 339 496 b 489 343 474 496 489 465 l 517 343 l 517 679 l 489 679 b 338 525 489 564 476 525 l 236 525 l 236 842 b 379 943 236 932 249 943 l 421 943 b 696 779 610 943 640 899 l 719 786 l 654 1031 l 632 1025 b 571 972 644 981 618 972 l 39 972 l 39 949 b 156 772 131 949 156 932 l 156 200 b 39 24 156 40 131 24 l 39 0 l 599 0 b 660 -53 646 0 672 -8 z m 188 1118 l 382 1244 l 576 1118 l 589 1131 l 394 1321 l 369 1321 l 175 1131 z m 163 1424 l 181 1413 b 283 1488 213 1468 242 1488 b 463 1413 344 1488 390 1413 b 600 1535 503 1413 551 1431 l 582 1547 b 488 1476 550 1492 519 1476 b 300 1549 417 1476 372 1549 b 163 1424 260 1549 213 1529 z "},"Ë":{"ha":768,"x_min":0,"x_max":0,"o":"m 660 -53 l 682 -58 l 754 204 l 728 211 b 463 29 676 64 624 29 l 379 29 b 236 131 249 29 236 40 l 236 496 l 339 496 b 489 343 474 496 489 465 l 517 343 l 517 679 l 489 679 b 338 525 489 564 476 525 l 236 525 l 236 842 b 379 943 236 932 249 943 l 421 943 b 696 779 610 943 640 899 l 719 786 l 654 1031 l 632 1025 b 571 972 644 981 618 972 l 39 972 l 39 949 b 156 772 131 949 156 932 l 156 200 b 39 24 156 40 131 24 l 39 0 l 599 0 b 660 -53 646 0 672 -8 z m 247 1153 b 307 1217 282 1153 307 1181 b 247 1281 307 1253 282 1281 b 188 1217 213 1281 188 1253 b 247 1153 188 1181 213 1153 z m 517 1153 b 576 1217 551 1153 576 1181 b 517 1281 576 1253 551 1281 b 457 1217 482 1281 457 1253 b 517 1153 457 1181 482 1153 z "},"Ė":{"ha":768,"x_min":0,"x_max":0,"o":"m 660 -53 l 682 -58 l 754 204 l 728 211 b 463 29 676 64 624 29 l 379 29 b 236 131 249 29 236 40 l 236 496 l 339 496 b 489 343 474 496 489 465 l 517 343 l 517 679 l 489 679 b 338 525 489 564 476 525 l 236 525 l 236 842 b 379 943 236 932 249 943 l 421 943 b 696 779 610 943 640 899 l 719 786 l 654 1031 l 632 1025 b 571 972 644 981 618 972 l 39 972 l 39 949 b 156 772 131 949 156 932 l 156 200 b 39 24 156 40 131 24 l 39 0 l 599 0 b 660 -53 646 0 672 -8 z m 382 1149 b 447 1215 418 1149 447 1178 b 382 1282 447 1253 418 1282 b 317 1215 346 1282 317 1253 b 382 1149 317 1178 346 1149 z "},"Ẹ":{"ha":768,"x_min":0,"x_max":0,"o":"m 660 -53 l 682 -58 l 754 204 l 728 211 b 463 29 676 64 624 29 l 379 29 b 236 131 249 29 236 40 l 236 496 l 339 496 b 489 343 474 496 489 465 l 517 343 l 517 679 l 489 679 b 338 525 489 564 476 525 l 236 525 l 236 842 b 379 943 236 932 249 943 l 421 943 b 696 779 610 943 640 899 l 719 786 l 654 1031 l 632 1025 b 571 972 644 981 618 972 l 39 972 l 39 949 b 156 772 131 949 156 932 l 156 200 b 39 24 156 40 131 24 l 39 0 l 599 0 b 660 -53 646 0 672 -8 z m 408 -303 b 474 -236 444 -303 474 -274 b 408 -169 474 -199 444 -169 b 343 -236 372 -169 343 -199 b 408 -303 343 -274 372 -303 z "},"È":{"ha":768,"x_min":0,"x_max":0,"o":"m 660 -53 l 682 -58 l 754 204 l 728 211 b 463 29 676 64 624 29 l 379 29 b 236 131 249 29 236 40 l 236 496 l 339 496 b 489 343 474 496 489 465 l 517 343 l 517 679 l 489 679 b 338 525 489 564 476 525 l 236 525 l 236 842 b 379 943 236 932 249 943 l 421 943 b 696 779 610 943 640 899 l 719 786 l 654 1031 l 632 1025 b 571 972 644 981 618 972 l 39 972 l 39 949 b 156 772 131 949 156 932 l 156 200 b 39 24 156 40 131 24 l 39 0 l 599 0 b 660 -53 646 0 672 -8 z m 207 1285 l 424 1093 l 438 1107 l 263 1343 b 221 1368 250 1360 236 1368 b 182 1329 201 1368 182 1351 b 207 1285 182 1314 190 1300 z "},"Ẻ":{"ha":768,"x_min":0,"x_max":0,"o":"m 660 -53 l 682 -58 l 754 204 l 728 211 b 463 29 676 64 624 29 l 379 29 b 236 131 249 29 236 40 l 236 496 l 339 496 b 489 343 474 496 489 465 l 517 343 l 517 679 l 489 679 b 338 525 489 564 476 525 l 236 525 l 236 842 b 379 943 236 932 249 943 l 421 943 b 696 779 610 943 640 899 l 719 786 l 654 1031 l 632 1025 b 571 972 644 981 618 972 l 39 972 l 39 949 b 156 772 131 949 156 932 l 156 200 b 39 24 156 40 131 24 l 39 0 l 599 0 b 660 -53 646 0 672 -8 z m 357 1104 l 378 1104 b 478 1265 392 1175 478 1190 b 382 1347 478 1321 431 1347 b 276 1272 318 1347 276 1300 b 300 1249 276 1257 286 1249 b 378 1326 342 1249 329 1326 b 415 1269 404 1326 415 1303 b 357 1104 415 1200 363 1190 z "},"Ē":{"ha":768,"x_min":0,"x_max":0,"o":"m 660 -53 l 682 -58 l 754 204 l 728 211 b 463 29 676 64 624 29 l 379 29 b 236 131 249 29 236 40 l 236 496 l 339 496 b 489 343 474 496 489 465 l 517 343 l 517 679 l 489 679 b 338 525 489 564 476 525 l 236 525 l 236 842 b 379 943 236 932 249 943 l 421 943 b 696 779 610 943 640 899 l 719 786 l 654 1031 l 632 1025 b 571 972 644 981 618 972 l 39 972 l 39 949 b 156 772 131 949 156 932 l 156 200 b 39 24 156 40 131 24 l 39 0 l 599 0 b 660 -53 646 0 672 -8 z m 183 1171 l 581 1171 l 581 1200 l 183 1200 z "},"Ę":{"ha":768,"x_min":0,"x_max":0,"o":"m 588 -364 b 740 -287 646 -364 694 -337 l 731 -276 b 622 -321 704 -300 668 -321 b 506 -201 563 -321 506 -287 b 699 0 506 -85 608 0 l 754 204 l 728 211 b 463 29 676 64 624 29 l 379 29 b 236 131 249 29 236 40 l 236 496 l 339 496 b 489 343 474 496 489 465 l 517 343 l 517 679 l 489 679 b 338 525 489 564 476 525 l 236 525 l 236 842 b 379 943 236 932 249 943 l 421 943 b 696 779 610 943 640 899 l 719 786 l 654 1031 l 632 1025 b 571 972 644 981 618 972 l 39 972 l 39 949 b 156 772 131 949 156 932 l 156 200 b 39 24 156 40 131 24 l 39 0 l 614 0 b 446 -226 522 -44 446 -133 b 588 -364 446 -307 501 -364 z "},"Ẽ":{"ha":768,"x_min":0,"x_max":0,"o":"m 660 -53 l 682 -58 l 754 204 l 728 211 b 463 29 676 64 624 29 l 379 29 b 236 131 249 29 236 40 l 236 496 l 339 496 b 489 343 474 496 489 465 l 517 343 l 517 679 l 489 679 b 338 525 489 564 476 525 l 236 525 l 236 842 b 379 943 236 932 249 943 l 421 943 b 696 779 610 943 640 899 l 719 786 l 654 1031 l 632 1025 b 571 972 644 981 618 972 l 39 972 l 39 949 b 156 772 131 949 156 932 l 156 200 b 39 24 156 40 131 24 l 39 0 l 599 0 b 660 -53 646 0 672 -8 z m 163 1132 l 181 1121 b 283 1196 213 1176 242 1196 b 463 1121 344 1196 390 1121 b 600 1243 503 1121 551 1139 l 582 1256 b 488 1185 550 1200 519 1185 b 300 1257 417 1185 372 1257 b 163 1132 260 1257 213 1238 z "},"Ə":{"ha":988,"x_min":0,"x_max":0,"o":"m 454 -25 b 932 506 704 -25 932 165 b 467 997 932 840 710 997 b 36 728 275 997 138 901 l 57 714 b 443 954 146 857 276 954 b 839 481 689 954 839 743 b 831 374 839 444 836 410 l 236 374 b 97 274 114 374 97 360 b 454 -25 97 113 222 -25 z m 189 278 b 403 346 189 339 219 346 l 826 346 b 467 4 789 165 676 4 b 189 278 279 4 189 125 z "},"F":{"ha":742,"x_min":0,"x_max":0,"o":"m 39 24 l 39 0 l 381 0 l 381 24 b 243 200 265 24 243 40 l 243 481 l 374 481 b 524 331 508 481 524 447 l 551 331 l 551 636 l 524 636 b 372 510 524 551 511 510 l 243 510 l 243 842 b 372 943 243 932 256 943 l 428 943 b 717 739 621 943 649 893 l 739 747 l 661 1031 l 639 1025 b 578 972 651 981 625 972 l 39 972 l 39 949 b 163 772 136 949 163 932 l 163 200 b 39 24 163 40 136 24 z "},"G":{"ha":1068,"x_min":0,"x_max":0,"o":"m 589 -25 b 950 101 742 -25 850 28 l 950 318 b 1042 415 950 406 972 415 l 1042 439 l 739 439 l 739 415 b 869 318 840 415 869 406 l 869 97 b 603 7 822 53 728 7 b 149 488 353 7 149 189 b 581 968 149 743 301 968 b 928 739 731 968 865 904 l 953 746 l 878 1031 l 856 1025 b 806 972 868 981 840 972 b 582 997 751 972 683 997 b 56 479 283 997 56 779 b 589 -25 56 181 289 -25 z "},"Ğ":{"ha":1068,"x_min":0,"x_max":0,"o":"m 589 -25 b 950 101 742 -25 850 28 l 950 318 b 1042 415 950 406 972 415 l 1042 439 l 739 439 l 739 415 b 869 318 840 415 869 406 l 869 97 b 603 7 822 53 728 7 b 149 488 353 7 149 189 b 581 968 149 743 301 968 b 928 739 731 968 865 904 l 953 746 l 878 1031 l 856 1025 b 806 972 868 981 840 972 b 582 997 751 972 683 997 b 56 479 283 997 56 779 b 589 -25 56 181 289 -25 z m 579 1117 b 765 1299 711 1117 758 1233 l 749 1303 b 579 1186 735 1268 678 1186 b 410 1303 481 1186 424 1268 l 393 1299 b 579 1117 400 1233 447 1117 z "},"Ǧ":{"ha":1068,"x_min":0,"x_max":0,"o":"m 589 -25 b 950 101 742 -25 850 28 l 950 318 b 1042 415 950 406 972 415 l 1042 439 l 739 439 l 739 415 b 869 318 840 415 869 406 l 869 97 b 603 7 822 53 728 7 b 149 488 353 7 149 189 b 581 968 149 743 301 968 b 928 739 731 968 865 904 l 953 746 l 878 1031 l 856 1025 b 806 972 868 981 840 972 b 582 997 751 972 683 997 b 56 479 283 997 56 779 b 589 -25 56 181 289 -25 z m 567 1118 l 592 1118 l 786 1308 l 774 1321 l 579 1194 l 385 1321 l 372 1308 z "},"Ĝ":{"ha":1068,"x_min":0,"x_max":0,"o":"m 589 -25 b 950 101 742 -25 850 28 l 950 318 b 1042 415 950 406 972 415 l 1042 439 l 739 439 l 739 415 b 869 318 840 415 869 406 l 869 97 b 603 7 822 53 728 7 b 149 488 353 7 149 189 b 581 968 149 743 301 968 b 928 739 731 968 865 904 l 953 746 l 878 1031 l 856 1025 b 806 972 868 981 840 972 b 582 997 751 972 683 997 b 56 479 283 997 56 779 b 589 -25 56 181 289 -25 z m 385 1118 l 579 1244 l 774 1118 l 786 1131 l 592 1321 l 567 1321 l 372 1131 z "},"Ģ":{"ha":1068,"x_min":0,"x_max":0,"o":"m 589 -25 b 950 101 742 -25 850 28 l 950 318 b 1042 415 950 406 972 415 l 1042 439 l 739 439 l 739 415 b 869 318 840 415 869 406 l 869 97 b 603 7 822 53 728 7 b 149 488 353 7 149 189 b 581 968 149 743 301 968 b 928 739 731 968 865 904 l 953 746 l 878 1031 l 856 1025 b 806 972 868 981 840 972 b 582 997 751 972 683 997 b 56 479 283 997 56 779 b 589 -25 56 181 289 -25 z m 490 -383 l 501 -399 b 650 -178 625 -304 650 -239 b 594 -101 650 -131 628 -101 b 549 -147 565 -101 549 -124 b 607 -239 549 -192 607 -189 b 490 -383 607 -268 582 -311 z "},"Ġ":{"ha":1068,"x_min":0,"x_max":0,"o":"m 589 -25 b 950 101 742 -25 850 28 l 950 318 b 1042 415 950 406 972 415 l 1042 439 l 739 439 l 739 415 b 869 318 840 415 869 406 l 869 97 b 603 7 822 53 728 7 b 149 488 353 7 149 189 b 581 968 149 743 301 968 b 928 739 731 968 865 904 l 953 746 l 878 1031 l 856 1025 b 806 972 868 981 840 972 b 582 997 751 972 683 997 b 56 479 283 997 56 779 b 589 -25 56 181 289 -25 z m 579 1149 b 644 1215 615 1149 644 1178 b 579 1282 644 1253 615 1282 b 514 1215 543 1282 514 1253 b 579 1149 514 1178 543 1149 z "},"Ḡ":{"ha":1068,"x_min":0,"x_max":0,"o":"m 589 -25 b 950 101 742 -25 850 28 l 950 318 b 1042 415 950 406 972 415 l 1042 439 l 739 439 l 739 415 b 869 318 840 415 869 406 l 869 97 b 603 7 822 53 728 7 b 149 488 353 7 149 189 b 581 968 149 743 301 968 b 928 739 731 968 865 904 l 953 746 l 878 1031 l 856 1025 b 806 972 868 981 840 972 b 582 997 751 972 683 997 b 56 479 283 997 56 779 b 589 -25 56 181 289 -25 z m 381 1171 l 778 1171 l 778 1200 l 381 1200 z "},"H":{"ha":1039,"x_min":0,"x_max":0,"o":"m 686 24 l 686 0 l 1000 0 l 1000 24 b 883 200 908 24 883 40 l 883 772 b 1000 949 883 932 913 949 l 1000 972 l 686 972 l 686 949 b 803 772 778 949 803 932 l 803 528 l 236 528 l 236 772 b 353 949 236 932 265 949 l 353 972 l 39 972 l 39 949 b 156 772 131 949 156 932 l 156 200 b 39 24 156 40 131 24 l 39 0 l 353 0 l 353 24 b 236 200 261 24 236 40 l 236 496 l 803 496 l 803 200 b 686 24 803 40 778 24 z "},"Ħ":{"ha":1039,"x_min":0,"x_max":0,"o":"m 686 24 l 686 0 l 1000 0 l 1000 24 b 883 200 908 24 883 40 l 883 706 l 1063 706 l 1063 722 l 883 722 l 883 772 b 1000 949 883 932 913 949 l 1000 972 l 686 972 l 686 949 b 803 772 778 949 803 932 l 803 722 l 236 722 l 236 772 b 353 949 236 932 265 949 l 353 972 l 39 972 l 39 949 b 156 772 131 949 156 932 l 156 722 l -25 722 l -25 706 l 156 706 l 156 200 b 39 24 156 40 131 24 l 39 0 l 353 0 l 353 24 b 236 200 261 24 236 40 l 236 496 l 803 496 l 803 200 b 686 24 803 40 778 24 z m 236 528 l 236 706 l 803 706 l 803 528 z "},"Ḫ":{"ha":1039,"x_min":0,"x_max":0,"o":"m 686 24 l 686 0 l 1000 0 l 1000 24 b 883 200 908 24 883 40 l 883 772 b 1000 949 883 932 913 949 l 1000 972 l 686 972 l 686 949 b 803 772 778 949 803 932 l 803 528 l 236 528 l 236 772 b 353 949 236 932 265 949 l 353 972 l 39 972 l 39 949 b 156 772 131 949 156 932 l 156 200 b 39 24 156 40 131 24 l 39 0 l 353 0 l 353 24 b 236 200 261 24 236 40 l 236 496 l 803 496 l 803 200 b 686 24 803 40 778 24 z m 519 -306 b 706 -124 651 -306 699 -189 l 689 -119 b 519 -236 675 -154 618 -236 b 350 -119 421 -236 364 -154 l 333 -124 b 519 -306 340 -189 388 -306 z "},"Ĥ":{"ha":1039,"x_min":0,"x_max":0,"o":"m 686 24 l 686 0 l 1000 0 l 1000 24 b 883 200 908 24 883 40 l 883 772 b 1000 949 883 932 913 949 l 1000 972 l 686 972 l 686 949 b 803 772 778 949 803 932 l 803 528 l 236 528 l 236 772 b 353 949 236 932 265 949 l 353 972 l 39 972 l 39 949 b 156 772 131 949 156 932 l 156 200 b 39 24 156 40 131 24 l 39 0 l 353 0 l 353 24 b 236 200 261 24 236 40 l 236 496 l 803 496 l 803 200 b 686 24 803 40 778 24 z m 325 1118 l 519 1244 l 714 1118 l 726 1131 l 532 1321 l 507 1321 l 313 1131 z "},"Ḥ":{"ha":1039,"x_min":0,"x_max":0,"o":"m 686 24 l 686 0 l 1000 0 l 1000 24 b 883 200 908 24 883 40 l 883 772 b 1000 949 883 932 913 949 l 1000 972 l 686 972 l 686 949 b 803 772 778 949 803 932 l 803 528 l 236 528 l 236 772 b 353 949 236 932 265 949 l 353 972 l 39 972 l 39 949 b 156 772 131 949 156 932 l 156 200 b 39 24 156 40 131 24 l 39 0 l 353 0 l 353 24 b 236 200 261 24 236 40 l 236 496 l 803 496 l 803 200 b 686 24 803 40 778 24 z m 519 -303 b 585 -236 556 -303 585 -274 b 519 -169 585 -199 556 -169 b 454 -236 483 -169 454 -199 b 519 -303 454 -274 483 -303 z "},"I":{"ha":392,"x_min":0,"x_max":0,"o":"m 39 24 l 39 0 l 353 0 l 353 24 b 236 200 261 24 236 40 l 236 772 b 353 949 236 932 265 949 l 353 972 l 39 972 l 39 949 b 156 772 131 949 156 932 l 156 200 b 39 24 156 40 131 24 z "},"Ĳ":{"ha":807,"x_min":0,"x_max":0,"o":"m 39 24 l 39 0 l 353 0 l 353 24 b 236 200 261 24 236 40 l 236 772 b 353 949 236 932 265 949 l 353 972 l 39 972 l 39 949 b 156 772 131 949 156 932 l 156 200 b 39 24 156 40 131 24 z m 424 -361 b 653 -68 572 -361 653 -253 l 653 772 b 776 949 653 932 679 949 l 776 972 l 421 972 l 421 949 b 572 772 550 949 572 932 l 572 -107 b 486 -322 572 -282 536 -322 b 353 -249 417 -322 406 -249 b 308 -293 325 -249 308 -268 b 424 -361 308 -332 349 -361 z "},"Í":{"ha":392,"x_min":0,"x_max":0,"o":"m 39 24 l 39 0 l 353 0 l 353 24 b 236 200 261 24 236 40 l 236 772 b 353 949 236 932 265 949 l 353 972 l 39 972 l 39 949 b 156 772 131 949 156 932 l 156 200 b 39 24 156 40 131 24 z m 149 1093 l 365 1285 b 390 1329 382 1300 390 1314 b 351 1368 390 1351 371 1368 b 310 1343 336 1368 322 1360 l 135 1107 z "},"Ĭ":{"ha":392,"x_min":0,"x_max":0,"o":"m 39 24 l 39 0 l 353 0 l 353 24 b 236 200 261 24 236 40 l 236 772 b 353 949 236 932 265 949 l 353 972 l 39 972 l 39 949 b 156 772 131 949 156 932 l 156 200 b 39 24 156 40 131 24 z m 196 1117 b 382 1299 328 1117 375 1233 l 365 1303 b 196 1186 351 1268 294 1186 b 26 1303 97 1186 40 1268 l 10 1299 b 196 1117 17 1233 64 1117 z "},"Ǐ":{"ha":392,"x_min":0,"x_max":0,"o":"m 39 24 l 39 0 l 353 0 l 353 24 b 236 200 261 24 236 40 l 236 772 b 353 949 236 932 265 949 l 353 972 l 39 972 l 39 949 b 156 772 131 949 156 932 l 156 200 b 39 24 156 40 131 24 z m 183 1118 l 208 1118 l 403 1308 l 390 1321 l 196 1194 l 1 1321 l -11 1308 z "},"Î":{"ha":392,"x_min":0,"x_max":0,"o":"m 39 24 l 39 0 l 353 0 l 353 24 b 236 200 261 24 236 40 l 236 772 b 353 949 236 932 265 949 l 353 972 l 39 972 l 39 949 b 156 772 131 949 156 932 l 156 200 b 39 24 156 40 131 24 z m 1 1118 l 196 1244 l 390 1118 l 403 1131 l 208 1321 l 183 1321 l -11 1131 z "},"Ï":{"ha":392,"x_min":0,"x_max":0,"o":"m 39 24 l 39 0 l 353 0 l 353 24 b 236 200 261 24 236 40 l 236 772 b 353 949 236 932 265 949 l 353 972 l 39 972 l 39 949 b 156 772 131 949 156 932 l 156 200 b 39 24 156 40 131 24 z m 88 1153 b 147 1217 122 1153 147 1181 b 88 1281 147 1253 122 1281 b 28 1217 53 1281 28 1253 b 88 1153 28 1181 53 1153 z m 304 1153 b 364 1217 339 1153 364 1181 b 304 1281 364 1253 339 1281 b 244 1217 269 1281 244 1253 b 304 1153 244 1181 269 1153 z "},"İ":{"ha":392,"x_min":0,"x_max":0,"o":"m 39 24 l 39 0 l 353 0 l 353 24 b 236 200 261 24 236 40 l 236 772 b 353 949 236 932 265 949 l 353 972 l 39 972 l 39 949 b 156 772 131 949 156 932 l 156 200 b 39 24 156 40 131 24 z m 196 1149 b 261 1215 232 1149 261 1178 b 196 1282 261 1253 232 1282 b 131 1215 160 1282 131 1253 b 196 1149 131 1178 160 1149 z "},"Ị":{"ha":392,"x_min":0,"x_max":0,"o":"m 39 24 l 39 0 l 353 0 l 353 24 b 236 200 261 24 236 40 l 236 772 b 353 949 236 932 265 949 l 353 972 l 39 972 l 39 949 b 156 772 131 949 156 932 l 156 200 b 39 24 156 40 131 24 z m 196 -303 b 261 -236 232 -303 261 -274 b 196 -169 261 -199 232 -169 b 131 -236 160 -169 131 -199 b 196 -303 131 -274 160 -303 z "},"Ì":{"ha":392,"x_min":0,"x_max":0,"o":"m 39 24 l 39 0 l 353 0 l 353 24 b 236 200 261 24 236 40 l 236 772 b 353 949 236 932 265 949 l 353 972 l 39 972 l 39 949 b 156 772 131 949 156 932 l 156 200 b 39 24 156 40 131 24 z m 21 1285 l 238 1093 l 251 1107 l 76 1343 b 35 1368 64 1360 50 1368 b -4 1329 15 1368 -4 1351 b 21 1285 -4 1314 4 1300 z "},"Ỉ":{"ha":392,"x_min":0,"x_max":0,"o":"m 39 24 l 39 0 l 353 0 l 353 24 b 236 200 261 24 236 40 l 236 772 b 353 949 236 932 265 949 l 353 972 l 39 972 l 39 949 b 156 772 131 949 156 932 l 156 200 b 39 24 156 40 131 24 z m 171 1104 l 192 1104 b 292 1265 206 1175 292 1190 b 196 1347 292 1321 244 1347 b 90 1272 132 1347 90 1300 b 114 1249 90 1257 100 1249 b 192 1326 156 1249 143 1326 b 229 1269 218 1326 229 1303 b 171 1104 229 1200 176 1190 z "},"Ī":{"ha":392,"x_min":0,"x_max":0,"o":"m 39 24 l 39 0 l 353 0 l 353 24 b 236 200 261 24 236 40 l 236 772 b 353 949 236 932 265 949 l 353 972 l 39 972 l 39 949 b 156 772 131 949 156 932 l 156 200 b 39 24 156 40 131 24 z m 44 1171 l 347 1171 l 347 1200 l 44 1200 z "},"Į":{"ha":392,"x_min":0,"x_max":0,"o":"m 242 -364 b 394 -287 300 -364 349 -337 l 385 -276 b 276 -321 358 -300 322 -321 b 160 -201 217 -321 160 -287 b 353 0 160 -85 263 0 l 353 24 b 236 200 261 24 236 40 l 236 772 b 353 949 236 932 265 949 l 353 972 l 39 972 l 39 949 b 156 772 131 949 156 932 l 156 200 b 39 24 156 40 131 24 l 39 0 l 268 0 b 100 -226 176 -44 100 -133 b 242 -364 100 -307 156 -364 z "},"Ĩ":{"ha":392,"x_min":0,"x_max":0,"o":"m 39 24 l 39 0 l 353 0 l 353 24 b 236 200 261 24 236 40 l 236 772 b 353 949 236 932 265 949 l 353 972 l 39 972 l 39 949 b 156 772 131 949 156 932 l 156 200 b 39 24 156 40 131 24 z m 29 1140 l 47 1129 b 125 1189 71 1172 93 1189 b 253 1132 167 1189 199 1132 b 361 1235 282 1132 321 1144 l 343 1247 b 274 1192 319 1204 297 1192 b 138 1246 224 1192 193 1246 b 29 1140 108 1246 69 1232 z "},"J":{"ha":415,"x_min":0,"x_max":0,"o":"m 32 -361 b 261 -68 181 -361 261 -253 l 261 772 b 385 949 261 932 288 949 l 385 972 l 29 972 l 29 949 b 181 772 158 949 181 932 l 181 -107 b 94 -322 181 -282 144 -322 b -39 -249 25 -322 14 -249 b -83 -293 -67 -249 -83 -268 b 32 -361 -83 -332 -43 -361 z "},"Ĵ":{"ha":415,"x_min":0,"x_max":0,"o":"m 32 -361 b 261 -68 181 -361 261 -253 l 261 772 b 385 949 261 932 288 949 l 385 972 l 29 972 l 29 949 b 181 772 158 949 181 932 l 181 -107 b 94 -322 181 -282 144 -322 b -39 -249 25 -322 14 -249 b -83 -293 -67 -249 -83 -268 b 32 -361 -83 -332 -43 -361 z m 25 1118 l 219 1244 l 414 1118 l 426 1131 l 232 1321 l 207 1321 l 13 1131 z "},"K":{"ha":906,"x_min":0,"x_max":0,"o":"m 39 24 l 39 0 l 367 0 l 367 24 b 243 200 269 24 243 40 l 243 465 l 326 539 l 547 256 b 738 0 642 135 683 76 l 900 0 l 900 24 b 646 258 828 24 774 93 l 386 594 l 626 811 b 863 949 746 918 811 949 l 863 972 l 560 972 l 560 949 b 586 814 664 949 676 894 l 243 504 l 243 772 b 367 949 243 932 274 949 l 367 972 l 39 972 l 39 949 b 163 772 136 949 163 932 l 163 200 b 39 24 163 40 136 24 z "},"Ķ":{"ha":906,"x_min":0,"x_max":0,"o":"m 39 24 l 39 0 l 367 0 l 367 24 b 243 200 269 24 243 40 l 243 465 l 326 539 l 547 256 b 738 0 642 135 683 76 l 900 0 l 900 24 b 646 258 828 24 774 93 l 386 594 l 626 811 b 863 949 746 918 811 949 l 863 972 l 560 972 l 560 949 b 586 814 664 949 676 894 l 243 504 l 243 772 b 367 949 243 932 274 949 l 367 972 l 39 972 l 39 949 b 163 772 136 949 163 932 l 163 200 b 39 24 163 40 136 24 z m 392 -383 l 403 -399 b 551 -178 526 -304 551 -239 b 496 -101 551 -131 529 -101 b 450 -147 467 -101 450 -124 b 508 -239 450 -192 508 -189 b 392 -383 508 -268 483 -311 z "},"L":{"ha":779,"x_min":0,"x_max":0,"o":"m 660 -53 l 682 -58 l 768 253 l 744 260 b 438 29 685 83 653 29 l 393 29 b 236 131 263 29 236 40 l 236 772 b 353 949 236 932 261 949 l 353 972 l 39 972 l 39 949 b 156 772 131 949 156 932 l 156 200 b 39 24 156 40 128 24 l 39 0 l 599 0 b 660 -53 646 0 672 -8 z "},"Ĺ":{"ha":779,"x_min":0,"x_max":0,"o":"m 660 -53 l 682 -58 l 768 253 l 744 260 b 438 29 685 83 653 29 l 393 29 b 236 131 263 29 236 40 l 236 772 b 353 949 236 932 261 949 l 353 972 l 39 972 l 39 949 b 156 772 131 949 156 932 l 156 200 b 39 24 156 40 128 24 l 39 0 l 599 0 b 660 -53 646 0 672 -8 z m 149 1093 l 365 1285 b 390 1329 382 1300 390 1314 b 351 1368 390 1351 371 1368 b 310 1343 336 1368 322 1360 l 135 1107 z "},"Ľ":{"ha":779,"x_min":0,"x_max":0,"o":"m 660 -53 l 682 -58 l 768 253 l 744 260 b 438 29 685 83 653 29 l 393 29 b 236 131 263 29 236 40 l 236 772 b 353 949 236 932 261 949 l 353 972 l 39 972 l 39 949 b 156 772 131 949 156 932 l 156 200 b 39 24 156 40 128 24 l 39 0 l 599 0 b 660 -53 646 0 672 -8 z m 458 703 l 469 688 b 618 908 593 782 618 847 b 563 985 618 956 596 985 b 517 940 533 985 517 964 b 575 847 517 896 575 896 b 458 703 575 818 550 775 z "},"Ļ":{"ha":779,"x_min":0,"x_max":0,"o":"m 660 -53 l 682 -58 l 768 253 l 744 260 b 438 29 685 83 653 29 l 393 29 b 236 131 263 29 236 40 l 236 772 b 353 949 236 932 261 949 l 353 972 l 39 972 l 39 949 b 156 772 131 949 156 932 l 156 200 b 39 24 156 40 128 24 l 39 0 l 599 0 b 660 -53 646 0 672 -8 z m 290 -383 l 301 -399 b 450 -178 425 -304 450 -239 b 394 -101 450 -131 428 -101 b 349 -147 365 -101 349 -124 b 407 -239 349 -192 407 -189 b 290 -383 407 -268 382 -311 z "},"Ŀ":{"ha":779,"x_min":0,"x_max":0,"o":"m 660 -53 l 682 -58 l 768 253 l 744 260 b 438 29 685 83 653 29 l 393 29 b 236 131 263 29 236 40 l 236 772 b 353 949 236 932 261 949 l 353 972 l 39 972 l 39 949 b 156 772 131 949 156 932 l 156 200 b 39 24 156 40 128 24 l 39 0 l 599 0 b 660 -53 646 0 672 -8 z m 661 431 b 719 490 694 431 719 457 b 661 549 719 524 694 549 b 601 490 628 549 601 524 b 661 431 601 457 628 431 z "},"Ḷ":{"ha":779,"x_min":0,"x_max":0,"o":"m 660 -53 l 682 -58 l 768 253 l 744 260 b 438 29 685 83 653 29 l 393 29 b 236 131 263 29 236 40 l 236 772 b 353 949 236 932 261 949 l 353 972 l 39 972 l 39 949 b 156 772 131 949 156 932 l 156 200 b 39 24 156 40 128 24 l 39 0 l 599 0 b 660 -53 646 0 672 -8 z m 393 -303 b 458 -236 429 -303 458 -274 b 393 -169 458 -199 429 -169 b 328 -236 357 -169 328 -199 b 393 -303 328 -274 357 -303 z "},"Ḹ":{"ha":779,"x_min":0,"x_max":0,"o":"m 660 -53 l 682 -58 l 768 253 l 744 260 b 438 29 685 83 653 29 l 393 29 b 236 131 263 29 236 40 l 236 772 b 353 949 236 932 261 949 l 353 972 l 39 972 l 39 949 b 156 772 131 949 156 932 l 156 200 b 39 24 156 40 128 24 l 39 0 l 599 0 b 660 -53 646 0 672 -8 z m 393 -303 b 458 -236 429 -303 458 -274 b 393 -169 458 -199 429 -169 b 328 -236 357 -169 328 -199 b 393 -303 328 -274 357 -303 z m 44 1171 l 347 1171 l 347 1200 l 44 1200 z "},"Ḻ":{"ha":779,"x_min":0,"x_max":0,"o":"m 660 -53 l 682 -58 l 768 253 l 744 260 b 438 29 685 83 653 29 l 393 29 b 236 131 263 29 236 40 l 236 772 b 353 949 236 932 261 949 l 353 972 l 39 972 l 39 949 b 156 772 131 949 156 932 l 156 200 b 39 24 156 40 128 24 l 39 0 l 599 0 b 660 -53 646 0 672 -8 z m 194 -225 l 592 -225 l 592 -196 l 194 -196 z "},"Ł":{"ha":779,"x_min":0,"x_max":0,"o":"m 660 -53 l 682 -58 l 768 253 l 744 260 b 438 29 685 83 653 29 l 393 29 b 236 131 263 29 236 40 l 236 511 l 535 696 l 525 711 l 236 532 l 236 772 b 353 949 236 932 261 949 l 353 972 l 39 972 l 39 949 b 156 772 131 949 156 932 l 156 488 l -31 372 l -21 357 l 156 465 l 156 200 b 39 24 156 40 128 24 l 39 0 l 599 0 b 660 -53 646 0 672 -8 z "},"M":{"ha":1271,"x_min":0,"x_max":0,"o":"m 40 24 l 40 0 l 303 0 l 303 24 b 189 190 228 24 189 71 l 189 865 l 603 57 l 613 57 l 1032 900 l 1032 200 b 908 24 1032 40 1006 24 l 908 0 l 1236 0 l 1236 24 b 1113 197 1139 24 1113 40 l 1113 772 b 1236 949 1113 932 1143 949 l 1236 972 l 1031 972 l 633 174 l 224 972 l 39 972 l 39 949 b 156 840 114 949 156 929 l 156 190 b 40 24 156 71 115 24 z "},"Ṃ":{"ha":1271,"x_min":0,"x_max":0,"o":"m 40 24 l 40 0 l 303 0 l 303 24 b 189 190 228 24 189 71 l 189 865 l 603 57 l 613 57 l 1032 900 l 1032 200 b 908 24 1032 40 1006 24 l 908 0 l 1236 0 l 1236 24 b 1113 197 1139 24 1113 40 l 1113 772 b 1236 949 1113 932 1143 949 l 1236 972 l 1031 972 l 633 174 l 224 972 l 39 972 l 39 949 b 156 840 114 949 156 929 l 156 190 b 40 24 156 71 115 24 z m 624 -303 b 689 -236 660 -303 689 -274 b 624 -169 689 -199 660 -169 b 558 -236 588 -169 558 -199 b 624 -303 558 -274 588 -303 z "},"N":{"ha":1064,"x_min":0,"x_max":0,"o":"m 40 24 l 40 0 l 357 0 l 357 24 b 188 189 228 24 188 71 l 188 869 l 915 -12 l 925 -12 l 925 783 b 1029 949 925 904 957 949 l 1029 972 l 713 972 l 713 949 b 892 782 843 949 892 906 l 892 142 l 207 972 l 39 972 l 39 949 b 154 840 114 949 154 929 l 154 189 b 40 24 154 71 115 24 z "},"Ń":{"ha":1064,"x_min":0,"x_max":0,"o":"m 40 24 l 40 0 l 357 0 l 357 24 b 188 189 228 24 188 71 l 188 869 l 915 -12 l 925 -12 l 925 783 b 1029 949 925 904 957 949 l 1029 972 l 713 972 l 713 949 b 892 782 843 949 892 906 l 892 142 l 207 972 l 39 972 l 39 949 b 154 840 114 949 154 929 l 154 189 b 40 24 154 71 115 24 z m 486 1093 l 703 1285 b 728 1329 719 1300 728 1314 b 689 1368 728 1351 708 1368 b 647 1343 674 1368 660 1360 l 472 1107 z "},"Ň":{"ha":1064,"x_min":0,"x_max":0,"o":"m 40 24 l 40 0 l 357 0 l 357 24 b 188 189 228 24 188 71 l 188 869 l 915 -12 l 925 -12 l 925 783 b 1029 949 925 904 957 949 l 1029 972 l 713 972 l 713 949 b 892 782 843 949 892 906 l 892 142 l 207 972 l 39 972 l 39 949 b 154 840 114 949 154 929 l 154 189 b 40 24 154 71 115 24 z m 521 1118 l 546 1118 l 740 1308 l 728 1321 l 533 1194 l 339 1321 l 326 1308 z "},"Ņ":{"ha":1064,"x_min":0,"x_max":0,"o":"m 40 24 l 40 0 l 357 0 l 357 24 b 188 189 228 24 188 71 l 188 869 l 915 -12 l 925 -12 l 925 783 b 1029 949 925 904 957 949 l 1029 972 l 713 972 l 713 949 b 892 782 843 949 892 906 l 892 142 l 207 972 l 39 972 l 39 949 b 154 840 114 949 154 929 l 154 189 b 40 24 154 71 115 24 z m 432 -383 l 443 -399 b 592 -178 567 -304 592 -239 b 536 -101 592 -131 569 -101 b 490 -147 507 -101 490 -124 b 549 -239 490 -192 549 -189 b 432 -383 549 -268 524 -311 z "},"Ṅ":{"ha":1064,"x_min":0,"x_max":0,"o":"m 40 24 l 40 0 l 357 0 l 357 24 b 188 189 228 24 188 71 l 188 869 l 915 -12 l 925 -12 l 925 783 b 1029 949 925 904 957 949 l 1029 972 l 713 972 l 713 949 b 892 782 843 949 892 906 l 892 142 l 207 972 l 39 972 l 39 949 b 154 840 114 949 154 929 l 154 189 b 40 24 154 71 115 24 z m 533 1149 b 599 1215 569 1149 599 1178 b 533 1282 599 1253 569 1282 b 468 1215 497 1282 468 1253 b 533 1149 468 1178 497 1149 z "},"Ṇ":{"ha":1064,"x_min":0,"x_max":0,"o":"m 40 24 l 40 0 l 357 0 l 357 24 b 188 189 228 24 188 71 l 188 869 l 915 -12 l 925 -12 l 925 783 b 1029 949 925 904 957 949 l 1029 972 l 713 972 l 713 949 b 892 782 843 949 892 906 l 892 142 l 207 972 l 39 972 l 39 949 b 154 840 114 949 154 929 l 154 189 b 40 24 154 71 115 24 z m 535 -303 b 600 -236 571 -303 600 -274 b 535 -169 600 -199 571 -169 b 469 -236 499 -169 469 -199 b 535 -303 469 -274 499 -303 z "},"Ṉ":{"ha":1064,"x_min":0,"x_max":0,"o":"m 40 24 l 40 0 l 357 0 l 357 24 b 188 189 228 24 188 71 l 188 869 l 915 -12 l 925 -12 l 925 783 b 1029 949 925 904 957 949 l 1029 972 l 713 972 l 713 949 b 892 782 843 949 892 906 l 892 142 l 207 972 l 39 972 l 39 949 b 154 840 114 949 154 929 l 154 189 b 40 24 154 71 115 24 z m 336 -225 l 733 -225 l 733 -196 l 336 -196 z "},"Ñ":{"ha":1064,"x_min":0,"x_max":0,"o":"m 40 24 l 40 0 l 357 0 l 357 24 b 188 189 228 24 188 71 l 188 869 l 915 -12 l 925 -12 l 925 783 b 1029 949 925 904 957 949 l 1029 972 l 713 972 l 713 949 b 892 782 843 949 892 906 l 892 142 l 207 972 l 39 972 l 39 949 b 154 840 114 949 154 929 l 154 189 b 40 24 154 71 115 24 z m 314 1132 l 332 1121 b 435 1196 364 1176 393 1196 b 614 1121 496 1196 542 1121 b 751 1243 654 1121 703 1139 l 733 1256 b 639 1185 701 1200 671 1185 b 451 1257 568 1185 524 1257 b 314 1132 411 1257 364 1238 z "},"Ŋ":{"ha":1064,"x_min":0,"x_max":0,"o":"m 690 -285 b 925 -12 840 -285 921 -187 l 925 783 b 1029 949 925 904 957 949 l 1029 972 l 713 972 l 713 949 b 892 782 843 949 892 906 l 892 142 l 207 972 l 39 972 l 39 949 b 154 840 114 949 154 929 l 154 189 b 40 24 154 71 115 24 l 40 0 l 357 0 l 357 24 b 188 189 228 24 188 71 l 188 869 l 892 17 l 892 3 b 742 -242 892 -193 794 -242 b 618 -169 679 -242 671 -169 b 574 -214 592 -169 574 -187 b 690 -285 574 -251 608 -285 z "},"O":{"ha":1090,"x_min":0,"x_max":0,"o":"m 535 -25 b 1035 504 821 -25 1035 168 b 556 997 1035 824 811 997 b 56 471 269 997 56 807 b 535 -25 56 151 281 -25 z m 544 4 b 149 481 294 4 149 214 b 546 968 149 789 308 968 b 942 494 797 968 942 761 b 544 4 942 186 782 4 z "},"Ó":{"ha":1090,"x_min":0,"x_max":0,"o":"m 535 -25 b 1035 504 821 -25 1035 168 b 556 997 1035 824 811 997 b 56 471 269 997 56 807 b 535 -25 56 151 281 -25 z m 544 4 b 149 481 294 4 149 214 b 546 968 149 789 308 968 b 942 494 797 968 942 761 b 544 4 942 186 782 4 z m 499 1093 l 715 1285 b 740 1329 732 1300 740 1314 b 701 1368 740 1351 721 1368 b 660 1343 686 1368 672 1360 l 485 1107 z "},"Ŏ":{"ha":1090,"x_min":0,"x_max":0,"o":"m 535 -25 b 1035 504 821 -25 1035 168 b 556 997 1035 824 811 997 b 56 471 269 997 56 807 b 535 -25 56 151 281 -25 z m 544 4 b 149 481 294 4 149 214 b 546 968 149 789 308 968 b 942 494 797 968 942 761 b 544 4 942 186 782 4 z m 546 1117 b 732 1299 678 1117 725 1233 l 715 1303 b 546 1186 701 1268 644 1186 b 376 1303 447 1186 390 1268 l 360 1299 b 546 1117 367 1233 414 1117 z "},"Ǒ":{"ha":1090,"x_min":0,"x_max":0,"o":"m 535 -25 b 1035 504 821 -25 1035 168 b 556 997 1035 824 811 997 b 56 471 269 997 56 807 b 535 -25 56 151 281 -25 z m 544 4 b 149 481 294 4 149 214 b 546 968 149 789 308 968 b 942 494 797 968 942 761 b 544 4 942 186 782 4 z m 533 1118 l 558 1118 l 753 1308 l 740 1321 l 546 1194 l 351 1321 l 339 1308 z "},"Ô":{"ha":1090,"x_min":0,"x_max":0,"o":"m 535 -25 b 1035 504 821 -25 1035 168 b 556 997 1035 824 811 997 b 56 471 269 997 56 807 b 535 -25 56 151 281 -25 z m 544 4 b 149 481 294 4 149 214 b 546 968 149 789 308 968 b 942 494 797 968 942 761 b 544 4 942 186 782 4 z m 351 1118 l 546 1244 l 740 1118 l 753 1131 l 558 1321 l 533 1321 l 339 1131 z "},"Ố":{"ha":1090,"x_min":0,"x_max":0,"o":"m 535 -25 b 1035 504 821 -25 1035 168 b 556 997 1035 824 811 997 b 56 471 269 997 56 807 b 535 -25 56 151 281 -25 z m 544 4 b 149 481 294 4 149 214 b 546 968 149 789 308 968 b 942 494 797 968 942 761 b 544 4 942 186 782 4 z m 351 1118 l 546 1244 l 740 1118 l 753 1131 l 558 1321 l 533 1321 l 339 1131 z m 701 1299 l 879 1453 b 904 1496 897 1468 904 1481 b 868 1532 904 1517 886 1532 b 828 1507 853 1532 840 1524 l 688 1313 z "},"Ộ":{"ha":1090,"x_min":0,"x_max":0,"o":"m 535 -25 b 1035 504 821 -25 1035 168 b 556 997 1035 824 811 997 b 56 471 269 997 56 807 b 535 -25 56 151 281 -25 z m 544 4 b 149 481 294 4 149 214 b 546 968 149 789 308 968 b 942 494 797 968 942 761 b 544 4 942 186 782 4 z m 546 -303 b 611 -236 582 -303 611 -274 b 546 -169 611 -199 582 -169 b 481 -236 510 -169 481 -199 b 546 -303 481 -274 510 -303 z m 351 1118 l 546 1244 l 740 1118 l 753 1131 l 558 1321 l 533 1321 l 339 1131 z "},"Ồ":{"ha":1090,"x_min":0,"x_max":0,"o":"m 535 -25 b 1035 504 821 -25 1035 168 b 556 997 1035 824 811 997 b 56 471 269 997 56 807 b 535 -25 56 151 281 -25 z m 544 4 b 149 481 294 4 149 214 b 546 968 149 789 308 968 b 942 494 797 968 942 761 b 544 4 942 186 782 4 z m 351 1118 l 546 1244 l 740 1118 l 753 1131 l 558 1321 l 533 1321 l 339 1131 z m 579 1453 l 757 1299 l 771 1313 l 631 1507 b 590 1532 618 1524 606 1532 b 554 1496 572 1532 554 1517 b 579 1453 554 1481 561 1468 z "},"Ổ":{"ha":1090,"x_min":0,"x_max":0,"o":"m 535 -25 b 1035 504 821 -25 1035 168 b 556 997 1035 824 811 997 b 56 471 269 997 56 807 b 535 -25 56 151 281 -25 z m 544 4 b 149 481 294 4 149 214 b 546 968 149 789 308 968 b 942 494 797 968 942 761 b 544 4 942 186 782 4 z m 351 1118 l 546 1244 l 740 1118 l 753 1131 l 558 1321 l 533 1321 l 339 1131 z m 682 1310 l 703 1310 b 803 1471 717 1381 803 1396 b 708 1553 803 1526 756 1553 b 601 1478 643 1553 601 1506 b 625 1454 601 1463 611 1454 b 703 1532 667 1454 654 1532 b 740 1475 729 1532 740 1508 b 682 1310 740 1406 688 1396 z "},"Ỗ":{"ha":1090,"x_min":0,"x_max":0,"o":"m 535 -25 b 1035 504 821 -25 1035 168 b 556 997 1035 824 811 997 b 56 471 269 997 56 807 b 535 -25 56 151 281 -25 z m 544 4 b 149 481 294 4 149 214 b 546 968 149 789 308 968 b 942 494 797 968 942 761 b 544 4 942 186 782 4 z m 351 1118 l 546 1244 l 740 1118 l 753 1131 l 558 1321 l 533 1321 l 339 1131 z m 326 1424 l 344 1413 b 447 1488 376 1468 406 1488 b 626 1413 508 1488 554 1413 b 764 1535 667 1413 715 1431 l 746 1547 b 651 1476 714 1492 683 1476 b 464 1549 581 1476 536 1549 b 326 1424 424 1549 376 1529 z "},"Ö":{"ha":1090,"x_min":0,"x_max":0,"o":"m 535 -25 b 1035 504 821 -25 1035 168 b 556 997 1035 824 811 997 b 56 471 269 997 56 807 b 535 -25 56 151 281 -25 z m 544 4 b 149 481 294 4 149 214 b 546 968 149 789 308 968 b 942 494 797 968 942 761 b 544 4 942 186 782 4 z m 411 1153 b 471 1217 446 1153 471 1181 b 411 1281 471 1253 446 1281 b 351 1217 376 1281 351 1253 b 411 1153 351 1181 376 1153 z m 681 1153 b 740 1217 715 1153 740 1181 b 681 1281 740 1253 715 1281 b 621 1217 646 1281 621 1253 b 681 1153 621 1181 646 1153 z "},"Ọ":{"ha":1090,"x_min":0,"x_max":0,"o":"m 535 -25 b 1035 504 821 -25 1035 168 b 556 997 1035 824 811 997 b 56 471 269 997 56 807 b 535 -25 56 151 281 -25 z m 544 4 b 149 481 294 4 149 214 b 546 968 149 789 308 968 b 942 494 797 968 942 761 b 544 4 942 186 782 4 z m 546 -303 b 611 -236 582 -303 611 -274 b 546 -169 611 -199 582 -169 b 481 -236 510 -169 481 -199 b 546 -303 481 -274 510 -303 z "},"Ò":{"ha":1090,"x_min":0,"x_max":0,"o":"m 535 -25 b 1035 504 821 -25 1035 168 b 556 997 1035 824 811 997 b 56 471 269 997 56 807 b 535 -25 56 151 281 -25 z m 544 4 b 149 481 294 4 149 214 b 546 968 149 789 308 968 b 942 494 797 968 942 761 b 544 4 942 186 782 4 z m 371 1285 l 588 1093 l 601 1107 l 426 1343 b 385 1368 414 1360 400 1368 b 346 1329 365 1368 346 1351 b 371 1285 346 1314 354 1300 z "},"Ỏ":{"ha":1090,"x_min":0,"x_max":0,"o":"m 535 -25 b 1035 504 821 -25 1035 168 b 556 997 1035 824 811 997 b 56 471 269 997 56 807 b 535 -25 56 151 281 -25 z m 544 4 b 149 481 294 4 149 214 b 546 968 149 789 308 968 b 942 494 797 968 942 761 b 544 4 942 186 782 4 z m 521 1104 l 542 1104 b 642 1265 556 1175 642 1190 b 546 1347 642 1321 594 1347 b 440 1272 482 1347 440 1300 b 464 1249 440 1257 450 1249 b 542 1326 506 1249 493 1326 b 579 1269 568 1326 579 1303 b 521 1104 579 1200 526 1190 z "},"Ơ":{"ha":1090,"x_min":0,"x_max":0,"o":"m 535 -25 b 1035 504 821 -25 1035 168 b 792 942 1035 718 935 867 b 849 938 811 939 831 938 b 1022 1063 961 938 1022 993 b 964 1136 1022 1106 1000 1136 b 910 1083 932 1136 910 1113 b 951 1004 910 1042 951 1031 b 840 964 951 982 922 964 b 678 983 790 964 740 971 b 556 997 639 993 597 997 b 56 471 269 997 56 807 b 535 -25 56 151 281 -25 z m 544 4 b 149 481 294 4 149 214 b 546 968 149 789 308 968 b 942 494 797 968 942 761 b 544 4 942 186 782 4 z "},"Ớ":{"ha":1090,"x_min":0,"x_max":0,"o":"m 535 -25 b 1035 504 821 -25 1035 168 b 792 942 1035 718 935 867 b 849 938 811 939 831 938 b 1022 1063 961 938 1022 993 b 964 1136 1022 1106 1000 1136 b 910 1083 932 1136 910 1113 b 951 1004 910 1042 951 1031 b 840 964 951 982 922 964 b 678 983 790 964 740 971 b 556 997 639 993 597 997 b 56 471 269 997 56 807 b 535 -25 56 151 281 -25 z m 544 4 b 149 481 294 4 149 214 b 546 968 149 789 308 968 b 942 494 797 968 942 761 b 544 4 942 186 782 4 z m 499 1093 l 715 1285 b 740 1329 732 1300 740 1314 b 701 1368 740 1351 721 1368 b 660 1343 686 1368 672 1360 l 485 1107 z "},"Ợ":{"ha":1090,"x_min":0,"x_max":0,"o":"m 535 -25 b 1035 504 821 -25 1035 168 b 792 942 1035 718 935 867 b 849 938 811 939 831 938 b 1022 1063 961 938 1022 993 b 964 1136 1022 1106 1000 1136 b 910 1083 932 1136 910 1113 b 951 1004 910 1042 951 1031 b 840 964 951 982 922 964 b 678 983 790 964 740 971 b 556 997 639 993 597 997 b 56 471 269 997 56 807 b 535 -25 56 151 281 -25 z m 544 4 b 149 481 294 4 149 214 b 546 968 149 789 308 968 b 942 494 797 968 942 761 b 544 4 942 186 782 4 z m 546 -303 b 611 -236 582 -303 611 -274 b 546 -169 611 -199 582 -169 b 481 -236 510 -169 481 -199 b 546 -303 481 -274 510 -303 z "},"Ờ":{"ha":1090,"x_min":0,"x_max":0,"o":"m 535 -25 b 1035 504 821 -25 1035 168 b 792 942 1035 718 935 867 b 849 938 811 939 831 938 b 1022 1063 961 938 1022 993 b 964 1136 1022 1106 1000 1136 b 910 1083 932 1136 910 1113 b 951 1004 910 1042 951 1031 b 840 964 951 982 922 964 b 678 983 790 964 740 971 b 556 997 639 993 597 997 b 56 471 269 997 56 807 b 535 -25 56 151 281 -25 z m 544 4 b 149 481 294 4 149 214 b 546 968 149 789 308 968 b 942 494 797 968 942 761 b 544 4 942 186 782 4 z m 371 1285 l 588 1093 l 601 1107 l 426 1343 b 385 1368 414 1360 400 1368 b 346 1329 365 1368 346 1351 b 371 1285 346 1314 354 1300 z "},"Ở":{"ha":1090,"x_min":0,"x_max":0,"o":"m 535 -25 b 1035 504 821 -25 1035 168 b 792 942 1035 718 935 867 b 849 938 811 939 831 938 b 1022 1063 961 938 1022 993 b 964 1136 1022 1106 1000 1136 b 910 1083 932 1136 910 1113 b 951 1004 910 1042 951 1031 b 840 964 951 982 922 964 b 678 983 790 964 740 971 b 556 997 639 993 597 997 b 56 471 269 997 56 807 b 535 -25 56 151 281 -25 z m 544 4 b 149 481 294 4 149 214 b 546 968 149 789 308 968 b 942 494 797 968 942 761 b 544 4 942 186 782 4 z m 521 1104 l 542 1104 b 642 1265 556 1175 642 1190 b 546 1347 642 1321 594 1347 b 440 1272 482 1347 440 1300 b 464 1249 440 1257 450 1249 b 542 1326 506 1249 493 1326 b 579 1269 568 1326 579 1303 b 521 1104 579 1200 526 1190 z "},"Ỡ":{"ha":1090,"x_min":0,"x_max":0,"o":"m 535 -25 b 1035 504 821 -25 1035 168 b 792 942 1035 718 935 867 b 849 938 811 939 831 938 b 1022 1063 961 938 1022 993 b 964 1136 1022 1106 1000 1136 b 910 1083 932 1136 910 1113 b 951 1004 910 1042 951 1031 b 840 964 951 982 922 964 b 678 983 790 964 740 971 b 556 997 639 993 597 997 b 56 471 269 997 56 807 b 535 -25 56 151 281 -25 z m 544 4 b 149 481 294 4 149 214 b 546 968 149 789 308 968 b 942 494 797 968 942 761 b 544 4 942 186 782 4 z m 326 1132 l 344 1121 b 447 1196 376 1176 406 1196 b 626 1121 508 1196 554 1121 b 764 1243 667 1121 715 1139 l 746 1256 b 651 1185 714 1200 683 1185 b 464 1257 581 1185 536 1257 b 326 1132 424 1257 376 1238 z "},"Ő":{"ha":1090,"x_min":0,"x_max":0,"o":"m 535 -25 b 1035 504 821 -25 1035 168 b 556 997 1035 824 811 997 b 56 471 269 997 56 807 b 535 -25 56 151 281 -25 z m 544 4 b 149 481 294 4 149 214 b 546 968 149 789 308 968 b 942 494 797 968 942 761 b 544 4 942 186 782 4 z m 404 1093 l 621 1285 b 646 1329 638 1300 646 1314 b 607 1368 646 1351 626 1368 b 565 1343 592 1368 578 1360 l 390 1107 z m 628 1093 l 844 1285 b 869 1329 861 1300 869 1314 b 831 1368 869 1351 850 1368 b 789 1343 815 1368 801 1360 l 614 1107 z "},"Ō":{"ha":1090,"x_min":0,"x_max":0,"o":"m 535 -25 b 1035 504 821 -25 1035 168 b 556 997 1035 824 811 997 b 56 471 269 997 56 807 b 535 -25 56 151 281 -25 z m 544 4 b 149 481 294 4 149 214 b 546 968 149 789 308 968 b 942 494 797 968 942 761 b 544 4 942 186 782 4 z m 347 1171 l 744 1171 l 744 1200 l 347 1200 z "},"Ǫ":{"ha":1090,"x_min":0,"x_max":0,"o":"m 535 -25 b 642 -15 572 -25 608 -22 b 496 -228 560 -65 496 -143 b 638 -364 496 -307 551 -364 b 790 -287 696 -364 744 -337 l 781 -276 b 672 -321 754 -300 718 -321 b 556 -201 613 -321 556 -287 b 701 -1 556 -125 599 -61 b 1035 504 900 61 1035 238 b 556 997 1035 824 811 997 b 56 471 269 997 56 807 b 535 -25 56 151 281 -25 z m 544 4 b 149 481 294 4 149 214 b 546 968 149 789 308 968 b 942 494 797 968 942 761 b 544 4 942 186 782 4 z "},"Ø":{"ha":1090,"x_min":0,"x_max":0,"o":"m 535 -25 b 1035 504 821 -25 1035 168 b 857 900 1035 683 964 817 l 967 1053 l 953 1064 l 842 911 b 556 997 761 968 661 997 b 56 471 269 997 56 807 b 233 74 56 292 126 157 l 124 -81 l 138 -92 l 249 63 b 535 -25 331 6 429 -25 z m 544 4 b 283 108 438 4 349 43 l 821 851 b 942 494 899 765 942 639 b 544 4 942 186 782 4 z m 149 481 b 546 968 149 789 308 968 b 807 865 654 968 742 931 l 269 122 b 149 481 192 208 149 336 z "},"Ǿ":{"ha":1090,"x_min":0,"x_max":0,"o":"m 535 -25 b 1035 504 821 -25 1035 168 b 857 900 1035 683 964 817 l 967 1053 l 953 1064 l 842 911 b 556 997 761 968 661 997 b 56 471 269 997 56 807 b 233 74 56 292 126 157 l 124 -81 l 138 -92 l 249 63 b 535 -25 331 6 429 -25 z m 544 4 b 283 108 438 4 349 43 l 821 851 b 942 494 899 765 942 639 b 544 4 942 186 782 4 z m 499 1093 l 715 1285 b 740 1329 732 1300 740 1314 b 701 1368 740 1351 721 1368 b 660 1343 686 1368 672 1360 l 485 1107 z m 149 481 b 546 968 149 789 308 968 b 807 865 654 968 742 931 l 269 122 b 149 481 192 208 149 336 z "},"Õ":{"ha":1090,"x_min":0,"x_max":0,"o":"m 535 -25 b 1035 504 821 -25 1035 168 b 556 997 1035 824 811 997 b 56 471 269 997 56 807 b 535 -25 56 151 281 -25 z m 544 4 b 149 481 294 4 149 214 b 546 968 149 789 308 968 b 942 494 797 968 942 761 b 544 4 942 186 782 4 z m 326 1132 l 344 1121 b 447 1196 376 1176 406 1196 b 626 1121 508 1196 554 1121 b 764 1243 667 1121 715 1139 l 746 1256 b 651 1185 714 1200 683 1185 b 464 1257 581 1185 536 1257 b 326 1132 424 1257 376 1238 z "},"Œ":{"ha":1407,"x_min":0,"x_max":0,"o":"m 1299 -53 l 1321 -58 l 1393 204 l 1367 211 b 1101 29 1315 64 1263 29 l 1018 29 b 875 131 888 29 875 40 l 875 496 l 978 496 b 1128 343 1113 496 1128 465 l 1156 343 l 1156 679 l 1128 679 b 976 525 1128 564 1115 525 l 875 525 l 875 842 b 1018 943 875 932 888 943 l 1060 943 b 1335 779 1249 943 1279 899 l 1358 786 l 1293 1031 l 1271 1025 b 1210 972 1283 981 1257 972 l 638 972 b 56 475 244 972 56 778 b 603 0 56 179 251 0 l 1238 0 b 1299 -53 1285 0 1311 -8 z m 631 29 l 574 29 b 149 483 307 29 149 206 b 632 943 149 758 313 943 b 794 768 740 943 794 932 l 794 156 b 631 29 794 42 742 29 z "},"P":{"ha":768,"x_min":0,"x_max":0,"o":"m 39 24 l 39 0 l 394 0 l 394 24 b 243 201 265 24 243 40 l 243 415 b 364 407 278 411 324 407 b 743 703 585 407 743 522 b 392 972 743 872 603 972 l 39 972 l 39 949 b 163 772 136 949 163 932 l 163 201 b 39 24 163 38 136 24 z m 367 436 b 243 446 318 436 278 439 l 243 846 b 357 943 243 931 269 943 b 654 700 497 943 654 889 b 367 436 654 517 504 436 z "},"Þ":{"ha":765,"x_min":0,"x_max":0,"o":"m 39 24 l 39 0 l 353 0 l 353 24 b 236 200 261 24 236 40 l 236 221 b 357 213 272 215 318 213 b 736 504 578 213 736 325 b 385 778 736 675 596 778 l 236 778 b 353 949 236 932 267 949 l 353 972 l 39 972 l 39 949 b 156 772 131 949 156 932 l 156 200 b 39 24 156 40 131 24 z m 236 251 l 236 749 l 350 749 b 647 501 490 749 647 700 b 360 242 647 328 497 242 b 236 251 307 242 274 244 z "},"Q":{"ha":1090,"x_min":0,"x_max":0,"o":"m 544 4 b 149 481 294 4 149 214 b 546 968 149 789 308 968 b 942 494 797 968 942 761 b 544 4 942 186 782 4 z m 901 -283 b 1258 -68 1025 -283 1163 -229 l 1235 -53 b 932 -235 1147 -187 1039 -235 b 613 -19 801 -235 685 -164 b 1035 504 858 13 1035 200 b 556 997 1035 824 811 997 b 56 471 269 997 56 807 b 492 -24 56 169 256 -4 b 901 -283 597 -194 747 -283 z "},"R":{"ha":906,"x_min":0,"x_max":0,"o":"m 39 24 l 39 0 l 353 0 l 353 24 b 236 200 261 24 236 40 l 236 496 l 368 496 l 539 276 b 749 0 644 140 694 75 l 925 0 l 925 24 b 618 301 838 24 793 79 l 461 501 b 738 744 629 525 738 615 b 404 972 738 882 615 972 l 39 972 l 39 949 b 156 772 131 949 156 932 l 156 200 b 39 24 156 40 131 24 z m 374 525 l 236 525 l 236 842 b 388 943 236 932 264 943 l 407 943 b 649 739 572 943 649 851 b 374 525 649 593 522 525 z "},"Ŕ":{"ha":906,"x_min":0,"x_max":0,"o":"m 39 24 l 39 0 l 353 0 l 353 24 b 236 200 261 24 236 40 l 236 496 l 368 496 l 539 276 b 749 0 644 140 694 75 l 925 0 l 925 24 b 618 301 838 24 793 79 l 461 501 b 738 744 629 525 738 615 b 404 972 738 882 615 972 l 39 972 l 39 949 b 156 772 131 949 156 932 l 156 200 b 39 24 156 40 131 24 z m 374 525 l 236 525 l 236 842 b 388 943 236 932 264 943 l 407 943 b 649 739 572 943 649 851 b 374 525 649 593 522 525 z m 332 1093 l 549 1285 b 574 1329 565 1300 574 1314 b 535 1368 574 1351 554 1368 b 493 1343 519 1368 506 1360 l 318 1107 z "},"Ř":{"ha":906,"x_min":0,"x_max":0,"o":"m 39 24 l 39 0 l 353 0 l 353 24 b 236 200 261 24 236 40 l 236 496 l 368 496 l 539 276 b 749 0 644 140 694 75 l 925 0 l 925 24 b 618 301 838 24 793 79 l 461 501 b 738 744 629 525 738 615 b 404 972 738 882 615 972 l 39 972 l 39 949 b 156 772 131 949 156 932 l 156 200 b 39 24 156 40 131 24 z m 374 525 l 236 525 l 236 842 b 388 943 236 932 264 943 l 407 943 b 649 739 572 943 649 851 b 374 525 649 593 522 525 z m 367 1118 l 392 1118 l 586 1308 l 574 1321 l 379 1194 l 185 1321 l 172 1308 z "},"Ŗ":{"ha":906,"x_min":0,"x_max":0,"o":"m 39 24 l 39 0 l 353 0 l 353 24 b 236 200 261 24 236 40 l 236 496 l 368 496 l 539 276 b 749 0 644 140 694 75 l 925 0 l 925 24 b 618 301 838 24 793 79 l 461 501 b 738 744 629 525 738 615 b 404 972 738 882 615 972 l 39 972 l 39 949 b 156 772 131 949 156 932 l 156 200 b 39 24 156 40 131 24 z m 374 525 l 236 525 l 236 842 b 388 943 236 932 264 943 l 407 943 b 649 739 572 943 649 851 b 374 525 649 593 522 525 z m 400 -383 l 411 -399 b 560 -178 535 -304 560 -239 b 504 -101 560 -131 538 -101 b 458 -147 475 -101 458 -124 b 517 -239 458 -192 517 -189 b 400 -383 517 -268 492 -311 z "},"Ṛ":{"ha":906,"x_min":0,"x_max":0,"o":"m 39 24 l 39 0 l 353 0 l 353 24 b 236 200 261 24 236 40 l 236 496 l 368 496 l 539 276 b 749 0 644 140 694 75 l 925 0 l 925 24 b 618 301 838 24 793 79 l 461 501 b 738 744 629 525 738 615 b 404 972 738 882 615 972 l 39 972 l 39 949 b 156 772 131 949 156 932 l 156 200 b 39 24 156 40 131 24 z m 374 525 l 236 525 l 236 842 b 388 943 236 932 264 943 l 407 943 b 649 739 572 943 649 851 b 374 525 649 593 522 525 z m 503 -303 b 568 -236 539 -303 568 -274 b 503 -169 568 -199 539 -169 b 438 -236 467 -169 438 -199 b 503 -303 438 -274 467 -303 z "},"Ṝ":{"ha":906,"x_min":0,"x_max":0,"o":"m 39 24 l 39 0 l 353 0 l 353 24 b 236 200 261 24 236 40 l 236 496 l 368 496 l 539 276 b 749 0 644 140 694 75 l 925 0 l 925 24 b 618 301 838 24 793 79 l 461 501 b 738 744 629 525 738 615 b 404 972 738 882 615 972 l 39 972 l 39 949 b 156 772 131 949 156 932 l 156 200 b 39 24 156 40 131 24 z m 374 525 l 236 525 l 236 842 b 388 943 236 932 264 943 l 407 943 b 649 739 572 943 649 851 b 374 525 649 593 522 525 z m 503 -303 b 568 -236 539 -303 568 -274 b 503 -169 568 -199 539 -169 b 438 -236 467 -169 438 -199 b 503 -303 438 -274 467 -303 z m 181 1171 l 578 1171 l 578 1200 l 181 1200 z "},"Ṟ":{"ha":906,"x_min":0,"x_max":0,"o":"m 39 24 l 39 0 l 353 0 l 353 24 b 236 200 261 24 236 40 l 236 496 l 368 496 l 539 276 b 749 0 644 140 694 75 l 925 0 l 925 24 b 618 301 838 24 793 79 l 461 501 b 738 744 629 525 738 615 b 404 972 738 882 615 972 l 39 972 l 39 949 b 156 772 131 949 156 932 l 156 200 b 39 24 156 40 131 24 z m 374 525 l 236 525 l 236 842 b 388 943 236 932 264 943 l 407 943 b 649 739 572 943 649 851 b 374 525 649 593 522 525 z m 304 -225 l 701 -225 l 701 -196 l 304 -196 z "},"S":{"ha":767,"x_min":0,"x_max":0,"o":"m 72 -18 l 96 -17 b 142 36 97 14 113 36 b 386 -25 188 36 246 -25 b 721 253 585 -25 721 96 b 392 554 721 389 618 478 b 142 779 210 615 142 679 b 360 968 142 883 217 968 b 658 722 518 968 614 867 l 686 729 l 619 1018 l 593 1015 b 556 961 594 985 582 961 b 360 997 521 961 463 997 b 60 750 181 997 60 886 b 385 467 60 599 207 529 b 638 224 550 408 638 344 b 390 4 638 106 554 4 b 81 296 215 4 125 117 l 53 292 z "},"Ś":{"ha":767,"x_min":0,"x_max":0,"o":"m 72 -18 l 96 -17 b 142 36 97 14 113 36 b 386 -25 188 36 246 -25 b 721 253 585 -25 721 96 b 392 554 721 389 618 478 b 142 779 210 615 142 679 b 360 968 142 883 217 968 b 658 722 518 968 614 867 l 686 729 l 619 1018 l 593 1015 b 556 961 594 985 582 961 b 360 997 521 961 463 997 b 60 750 181 997 60 886 b 385 467 60 599 207 529 b 638 224 550 408 638 344 b 390 4 638 106 554 4 b 81 296 215 4 125 117 l 53 292 z m 317 1093 l 533 1285 b 558 1329 550 1300 558 1314 b 519 1368 558 1351 539 1368 b 478 1343 504 1368 490 1360 l 303 1107 z "},"Š":{"ha":767,"x_min":0,"x_max":0,"o":"m 72 -18 l 96 -17 b 142 36 97 14 113 36 b 386 -25 188 36 246 -25 b 721 253 585 -25 721 96 b 392 554 721 389 618 478 b 142 779 210 615 142 679 b 360 968 142 883 217 968 b 658 722 518 968 614 867 l 686 729 l 619 1018 l 593 1015 b 556 961 594 985 582 961 b 360 997 521 961 463 997 b 60 750 181 997 60 886 b 385 467 60 599 207 529 b 638 224 550 408 638 344 b 390 4 638 106 554 4 b 81 296 215 4 125 117 l 53 292 z m 351 1118 l 376 1118 l 571 1308 l 558 1321 l 364 1194 l 169 1321 l 157 1308 z "},"Ş":{"ha":767,"x_min":0,"x_max":0,"o":"m 72 -18 l 96 -17 b 142 36 97 14 113 36 b 376 -25 186 36 243 -22 l 314 -133 b 324 -165 304 -150 307 -157 l 404 -208 b 453 -276 438 -226 453 -249 b 363 -347 453 -317 421 -347 b 235 -300 304 -347 257 -318 l 222 -319 b 367 -372 244 -339 293 -372 b 511 -257 460 -372 511 -318 b 401 -128 511 -186 443 -149 b 378 -72 365 -110 360 -104 l 406 -25 b 721 253 593 -17 721 101 b 392 554 721 389 618 478 b 142 779 210 615 142 679 b 360 968 142 883 217 968 b 658 722 518 968 614 867 l 686 729 l 619 1018 l 593 1015 b 556 961 594 985 582 961 b 360 997 521 961 463 997 b 60 750 181 997 60 886 b 385 467 60 599 207 529 b 638 224 550 408 638 344 b 390 4 638 106 554 4 b 81 296 215 4 125 117 l 53 292 z "},"Ŝ":{"ha":767,"x_min":0,"x_max":0,"o":"m 72 -18 l 96 -17 b 142 36 97 14 113 36 b 386 -25 188 36 246 -25 b 721 253 585 -25 721 96 b 392 554 721 389 618 478 b 142 779 210 615 142 679 b 360 968 142 883 217 968 b 658 722 518 968 614 867 l 686 729 l 619 1018 l 593 1015 b 556 961 594 985 582 961 b 360 997 521 961 463 997 b 60 750 181 997 60 886 b 385 467 60 599 207 529 b 638 224 550 408 638 344 b 390 4 638 106 554 4 b 81 296 215 4 125 117 l 53 292 z m 169 1118 l 364 1244 l 558 1118 l 571 1131 l 376 1321 l 351 1321 l 157 1131 z "},"Ș":{"ha":767,"x_min":0,"x_max":0,"o":"m 72 -18 l 96 -17 b 142 36 97 14 113 36 b 386 -25 188 36 246 -25 b 721 253 585 -25 721 96 b 392 554 721 389 618 478 b 142 779 210 615 142 679 b 360 968 142 883 217 968 b 658 722 518 968 614 867 l 686 729 l 619 1018 l 593 1015 b 556 961 594 985 582 961 b 360 997 521 961 463 997 b 60 750 181 997 60 886 b 385 467 60 599 207 529 b 638 224 550 408 638 344 b 390 4 638 106 554 4 b 81 296 215 4 125 117 l 53 292 z m 296 -383 l 307 -399 b 456 -178 431 -304 456 -239 b 400 -101 456 -131 433 -101 b 354 -147 371 -101 354 -124 b 413 -239 354 -192 413 -189 b 296 -383 413 -268 388 -311 z "},"Ṡ":{"ha":767,"x_min":0,"x_max":0,"o":"m 72 -18 l 96 -17 b 142 36 97 14 113 36 b 386 -25 188 36 246 -25 b 721 253 585 -25 721 96 b 392 554 721 389 618 478 b 142 779 210 615 142 679 b 360 968 142 883 217 968 b 658 722 518 968 614 867 l 686 729 l 619 1018 l 593 1015 b 556 961 594 985 582 961 b 360 997 521 961 463 997 b 60 750 181 997 60 886 b 385 467 60 599 207 529 b 638 224 550 408 638 344 b 390 4 638 106 554 4 b 81 296 215 4 125 117 l 53 292 z m 364 1149 b 429 1215 400 1149 429 1178 b 364 1282 429 1253 400 1282 b 299 1215 328 1282 299 1253 b 364 1149 299 1178 328 1149 z "},"Ṣ":{"ha":767,"x_min":0,"x_max":0,"o":"m 72 -18 l 96 -17 b 142 36 97 14 113 36 b 386 -25 188 36 246 -25 b 721 253 585 -25 721 96 b 392 554 721 389 618 478 b 142 779 210 615 142 679 b 360 968 142 883 217 968 b 658 722 518 968 614 867 l 686 729 l 619 1018 l 593 1015 b 556 961 594 985 582 961 b 360 997 521 961 463 997 b 60 750 181 997 60 886 b 385 467 60 599 207 529 b 638 224 550 408 638 344 b 390 4 638 106 554 4 b 81 296 215 4 125 117 l 53 292 z m 399 -303 b 464 -236 435 -303 464 -274 b 399 -169 464 -199 435 -169 b 333 -236 363 -169 333 -199 b 399 -303 333 -274 363 -303 z "},"ẞ":{"ha":958,"x_min":0,"x_max":0,"o":"m 658 -25 b 913 199 803 -25 913 64 b 675 472 913 329 806 407 b 489 658 538 542 489 589 b 688 803 489 738 554 803 b 843 775 750 803 804 789 l 853 790 b 486 997 771 936 633 997 b 147 711 310 997 147 911 l 147 200 b 31 24 147 40 122 24 l 31 0 l 336 0 l 336 24 b 228 200 253 24 228 40 l 228 732 b 482 969 228 904 350 969 b 736 822 601 969 686 915 b 672 828 715 826 694 828 b 411 632 518 828 411 744 b 624 407 411 525 508 464 b 829 176 747 346 829 290 b 651 4 829 79 769 4 b 404 254 518 4 440 100 l 376 250 l 396 -18 l 419 -17 b 458 25 418 11 435 25 b 658 -25 499 25 550 -25 z "},"T":{"ha":931,"x_min":0,"x_max":0,"o":"m 294 24 l 294 0 l 636 0 l 636 24 b 506 200 533 24 506 40 l 506 843 b 603 943 506 918 529 943 l 661 943 b 893 717 790 943 832 860 l 917 724 l 844 1024 l 822 1018 b 761 972 835 974 808 972 l 171 972 b 108 1018 124 972 96 974 l 86 1024 l 14 724 l 38 717 b 271 943 99 860 140 943 l 328 943 b 425 843 401 943 425 917 l 425 200 b 294 24 425 40 397 24 z "},"Ŧ":{"ha":931,"x_min":0,"x_max":0,"o":"m 294 24 l 294 0 l 636 0 l 636 24 b 506 200 533 24 506 40 l 506 488 l 721 488 l 721 504 l 506 504 l 506 843 b 603 943 506 918 529 943 l 661 943 b 893 717 790 943 832 860 l 917 724 l 844 1024 l 822 1018 b 761 972 835 974 808 972 l 171 972 b 108 1018 124 972 96 974 l 86 1024 l 14 724 l 38 717 b 271 943 99 860 140 943 l 328 943 b 425 843 401 943 425 917 l 425 504 l 211 504 l 211 488 l 425 488 l 425 200 b 294 24 425 40 397 24 z "},"Ť":{"ha":931,"x_min":0,"x_max":0,"o":"m 294 24 l 294 0 l 636 0 l 636 24 b 506 200 533 24 506 40 l 506 843 b 603 943 506 918 529 943 l 661 943 b 893 717 790 943 832 860 l 917 724 l 844 1024 l 822 1018 b 761 972 835 974 808 972 l 171 972 b 108 1018 124 972 96 974 l 86 1024 l 14 724 l 38 717 b 271 943 99 860 140 943 l 328 943 b 425 843 401 943 425 917 l 425 200 b 294 24 425 40 397 24 z m 453 1118 l 478 1118 l 672 1308 l 660 1321 l 465 1194 l 271 1321 l 258 1308 z "},"Ţ":{"ha":931,"x_min":0,"x_max":0,"o":"m 294 24 l 294 0 l 457 0 l 381 -133 b 390 -165 371 -150 374 -157 l 471 -208 b 519 -276 504 -226 519 -249 b 429 -347 519 -317 488 -347 b 301 -300 371 -347 324 -318 l 289 -319 b 433 -372 311 -339 360 -372 b 578 -257 526 -372 578 -318 b 468 -128 578 -186 510 -149 b 444 -72 432 -110 426 -104 l 486 0 l 636 0 l 636 24 b 506 200 533 24 506 40 l 506 843 b 603 943 506 918 529 943 l 661 943 b 893 717 790 943 832 860 l 917 724 l 844 1024 l 822 1018 b 761 972 835 974 808 972 l 171 972 b 108 1018 124 972 96 974 l 86 1024 l 14 724 l 38 717 b 271 943 99 860 140 943 l 328 943 b 425 843 401 943 425 917 l 425 200 b 294 24 425 40 397 24 z "},"Ț":{"ha":931,"x_min":0,"x_max":0,"o":"m 294 24 l 294 0 l 636 0 l 636 24 b 506 200 533 24 506 40 l 506 843 b 603 943 506 918 529 943 l 661 943 b 893 717 790 943 832 860 l 917 724 l 844 1024 l 822 1018 b 761 972 835 974 808 972 l 171 972 b 108 1018 124 972 96 974 l 86 1024 l 14 724 l 38 717 b 271 943 99 860 140 943 l 328 943 b 425 843 401 943 425 917 l 425 200 b 294 24 425 40 397 24 z m 363 -383 l 374 -399 b 522 -178 497 -304 522 -239 b 467 -101 522 -131 500 -101 b 421 -147 438 -101 421 -124 b 479 -239 421 -192 479 -189 b 363 -383 479 -268 454 -311 z "},"Ṭ":{"ha":931,"x_min":0,"x_max":0,"o":"m 294 24 l 294 0 l 636 0 l 636 24 b 506 200 533 24 506 40 l 506 843 b 603 943 506 918 529 943 l 661 943 b 893 717 790 943 832 860 l 917 724 l 844 1024 l 822 1018 b 761 972 835 974 808 972 l 171 972 b 108 1018 124 972 96 974 l 86 1024 l 14 724 l 38 717 b 271 943 99 860 140 943 l 328 943 b 425 843 401 943 425 917 l 425 200 b 294 24 425 40 397 24 z m 465 -303 b 531 -236 501 -303 531 -274 b 465 -169 531 -199 501 -169 b 400 -236 429 -169 400 -199 b 465 -303 400 -274 429 -303 z "},"Ṯ":{"ha":931,"x_min":0,"x_max":0,"o":"m 294 24 l 294 0 l 636 0 l 636 24 b 506 200 533 24 506 40 l 506 843 b 603 943 506 918 529 943 l 661 943 b 893 717 790 943 832 860 l 917 724 l 844 1024 l 822 1018 b 761 972 835 974 808 972 l 171 972 b 108 1018 124 972 96 974 l 86 1024 l 14 724 l 38 717 b 271 943 99 860 140 943 l 328 943 b 425 843 401 943 425 917 l 425 200 b 294 24 425 40 397 24 z m 267 -225 l 664 -225 l 664 -196 l 267 -196 z "},"U":{"ha":1015,"x_min":0,"x_max":0,"o":"m 517 -25 b 868 381 764 -25 868 117 l 868 785 b 982 949 868 904 907 949 l 982 972 l 694 972 l 694 949 b 836 783 796 949 836 907 l 836 375 b 532 19 836 135 735 19 b 235 371 333 19 235 128 l 235 772 b 358 949 235 932 265 949 l 358 972 l 31 972 l 31 949 b 154 772 128 949 154 932 l 154 364 b 517 -25 154 96 289 -25 z "},"Ú":{"ha":1015,"x_min":0,"x_max":0,"o":"m 517 -25 b 868 381 764 -25 868 117 l 868 785 b 982 949 868 904 907 949 l 982 972 l 694 972 l 694 949 b 836 783 796 949 836 907 l 836 375 b 532 19 836 135 735 19 b 235 371 333 19 235 128 l 235 772 b 358 949 235 932 265 949 l 358 972 l 31 972 l 31 949 b 154 772 128 949 154 932 l 154 364 b 517 -25 154 96 289 -25 z m 486 1093 l 703 1285 b 728 1329 719 1300 728 1314 b 689 1368 728 1351 708 1368 b 647 1343 674 1368 660 1360 l 472 1107 z "},"Ŭ":{"ha":1015,"x_min":0,"x_max":0,"o":"m 517 -25 b 868 381 764 -25 868 117 l 868 785 b 982 949 868 904 907 949 l 982 972 l 694 972 l 694 949 b 836 783 796 949 836 907 l 836 375 b 532 19 836 135 735 19 b 235 371 333 19 235 128 l 235 772 b 358 949 235 932 265 949 l 358 972 l 31 972 l 31 949 b 154 772 128 949 154 932 l 154 364 b 517 -25 154 96 289 -25 z m 533 1117 b 719 1299 665 1117 713 1233 l 703 1303 b 533 1186 689 1268 632 1186 b 364 1303 435 1186 378 1268 l 347 1299 b 533 1117 354 1233 401 1117 z "},"Ǔ":{"ha":1015,"x_min":0,"x_max":0,"o":"m 517 -25 b 868 381 764 -25 868 117 l 868 785 b 982 949 868 904 907 949 l 982 972 l 694 972 l 694 949 b 836 783 796 949 836 907 l 836 375 b 532 19 836 135 735 19 b 235 371 333 19 235 128 l 235 772 b 358 949 235 932 265 949 l 358 972 l 31 972 l 31 949 b 154 772 128 949 154 932 l 154 364 b 517 -25 154 96 289 -25 z m 521 1118 l 546 1118 l 740 1308 l 728 1321 l 533 1194 l 339 1321 l 326 1308 z "},"Û":{"ha":1015,"x_min":0,"x_max":0,"o":"m 517 -25 b 868 381 764 -25 868 117 l 868 785 b 982 949 868 904 907 949 l 982 972 l 694 972 l 694 949 b 836 783 796 949 836 907 l 836 375 b 532 19 836 135 735 19 b 235 371 333 19 235 128 l 235 772 b 358 949 235 932 265 949 l 358 972 l 31 972 l 31 949 b 154 772 128 949 154 932 l 154 364 b 517 -25 154 96 289 -25 z m 339 1118 l 533 1244 l 728 1118 l 740 1131 l 546 1321 l 521 1321 l 326 1131 z "},"Ü":{"ha":1015,"x_min":0,"x_max":0,"o":"m 517 -25 b 868 381 764 -25 868 117 l 868 785 b 982 949 868 904 907 949 l 982 972 l 694 972 l 694 949 b 836 783 796 949 836 907 l 836 375 b 532 19 836 135 735 19 b 235 371 333 19 235 128 l 235 772 b 358 949 235 932 265 949 l 358 972 l 31 972 l 31 949 b 154 772 128 949 154 932 l 154 364 b 517 -25 154 96 289 -25 z m 399 1153 b 458 1217 433 1153 458 1181 b 399 1281 458 1253 433 1281 b 339 1217 364 1281 339 1253 b 399 1153 339 1181 364 1153 z m 668 1153 b 728 1217 703 1153 728 1181 b 668 1281 728 1253 703 1281 b 608 1217 633 1281 608 1253 b 668 1153 608 1181 633 1153 z "},"Ǘ":{"ha":1015,"x_min":0,"x_max":0,"o":"m 517 -25 b 868 381 764 -25 868 117 l 868 785 b 982 949 868 904 907 949 l 982 972 l 694 972 l 694 949 b 836 783 796 949 836 907 l 836 375 b 532 19 836 135 735 19 b 235 371 333 19 235 128 l 235 772 b 358 949 235 932 265 949 l 358 972 l 31 972 l 31 949 b 154 772 128 949 154 932 l 154 364 b 517 -25 154 96 289 -25 z m 399 1153 b 458 1217 433 1153 458 1181 b 399 1281 458 1253 433 1281 b 339 1217 364 1281 339 1253 b 399 1153 339 1181 364 1153 z m 668 1153 b 728 1217 703 1153 728 1181 b 668 1281 728 1253 703 1281 b 608 1217 633 1281 608 1253 b 668 1153 608 1181 633 1153 z m 486 1365 l 703 1557 b 728 1601 719 1572 728 1586 b 689 1640 728 1624 708 1640 b 647 1615 674 1640 660 1632 l 472 1379 z "},"Ǚ":{"ha":1015,"x_min":0,"x_max":0,"o":"m 517 -25 b 868 381 764 -25 868 117 l 868 785 b 982 949 868 904 907 949 l 982 972 l 694 972 l 694 949 b 836 783 796 949 836 907 l 836 375 b 532 19 836 135 735 19 b 235 371 333 19 235 128 l 235 772 b 358 949 235 932 265 949 l 358 972 l 31 972 l 31 949 b 154 772 128 949 154 932 l 154 364 b 517 -25 154 96 289 -25 z m 399 1153 b 458 1217 433 1153 458 1181 b 399 1281 458 1253 433 1281 b 339 1217 364 1281 339 1253 b 399 1153 339 1181 364 1153 z m 668 1153 b 728 1217 703 1153 728 1181 b 668 1281 728 1253 703 1281 b 608 1217 633 1281 608 1253 b 668 1153 608 1181 633 1153 z m 521 1390 l 546 1390 l 740 1581 l 728 1593 l 533 1467 l 339 1593 l 326 1581 z "},"Ǜ":{"ha":1015,"x_min":0,"x_max":0,"o":"m 517 -25 b 868 381 764 -25 868 117 l 868 785 b 982 949 868 904 907 949 l 982 972 l 694 972 l 694 949 b 836 783 796 949 836 907 l 836 375 b 532 19 836 135 735 19 b 235 371 333 19 235 128 l 235 772 b 358 949 235 932 265 949 l 358 972 l 31 972 l 31 949 b 154 772 128 949 154 932 l 154 364 b 517 -25 154 96 289 -25 z m 399 1153 b 458 1217 433 1153 458 1181 b 399 1281 458 1253 433 1281 b 339 1217 364 1281 339 1253 b 399 1153 339 1181 364 1153 z m 668 1153 b 728 1217 703 1153 728 1181 b 668 1281 728 1253 703 1281 b 608 1217 633 1281 608 1253 b 668 1153 608 1181 633 1153 z m 358 1557 l 575 1365 l 589 1379 l 414 1615 b 372 1640 401 1632 388 1640 b 333 1601 353 1640 333 1624 b 358 1557 333 1586 342 1572 z "},"Ǖ":{"ha":1015,"x_min":0,"x_max":0,"o":"m 517 -25 b 868 381 764 -25 868 117 l 868 785 b 982 949 868 904 907 949 l 982 972 l 694 972 l 694 949 b 836 783 796 949 836 907 l 836 375 b 532 19 836 135 735 19 b 235 371 333 19 235 128 l 235 772 b 358 949 235 932 265 949 l 358 972 l 31 972 l 31 949 b 154 772 128 949 154 932 l 154 364 b 517 -25 154 96 289 -25 z m 399 1153 b 458 1217 433 1153 458 1181 b 399 1281 458 1253 433 1281 b 339 1217 364 1281 339 1253 b 399 1153 339 1181 364 1153 z m 668 1153 b 728 1217 703 1153 728 1181 b 668 1281 728 1253 703 1281 b 608 1217 633 1281 608 1253 b 668 1153 608 1181 633 1153 z m 335 1443 l 732 1443 l 732 1472 l 335 1472 z "},"Ụ":{"ha":1015,"x_min":0,"x_max":0,"o":"m 517 -25 b 868 381 764 -25 868 117 l 868 785 b 982 949 868 904 907 949 l 982 972 l 694 972 l 694 949 b 836 783 796 949 836 907 l 836 375 b 532 19 836 135 735 19 b 235 371 333 19 235 128 l 235 772 b 358 949 235 932 265 949 l 358 972 l 31 972 l 31 949 b 154 772 128 949 154 932 l 154 364 b 517 -25 154 96 289 -25 z m 506 -303 b 571 -236 542 -303 571 -274 b 506 -169 571 -199 542 -169 b 440 -236 469 -169 440 -199 b 506 -303 440 -274 469 -303 z "},"Ù":{"ha":1015,"x_min":0,"x_max":0,"o":"m 517 -25 b 868 381 764 -25 868 117 l 868 785 b 982 949 868 904 907 949 l 982 972 l 694 972 l 694 949 b 836 783 796 949 836 907 l 836 375 b 532 19 836 135 735 19 b 235 371 333 19 235 128 l 235 772 b 358 949 235 932 265 949 l 358 972 l 31 972 l 31 949 b 154 772 128 949 154 932 l 154 364 b 517 -25 154 96 289 -25 z m 358 1285 l 575 1093 l 589 1107 l 414 1343 b 372 1368 401 1360 388 1368 b 333 1329 353 1368 333 1351 b 358 1285 333 1314 342 1300 z "},"Ủ":{"ha":1015,"x_min":0,"x_max":0,"o":"m 517 -25 b 868 381 764 -25 868 117 l 868 785 b 982 949 868 904 907 949 l 982 972 l 694 972 l 694 949 b 836 783 796 949 836 907 l 836 375 b 532 19 836 135 735 19 b 235 371 333 19 235 128 l 235 772 b 358 949 235 932 265 949 l 358 972 l 31 972 l 31 949 b 154 772 128 949 154 932 l 154 364 b 517 -25 154 96 289 -25 z m 508 1104 l 529 1104 b 629 1265 543 1175 629 1190 b 533 1347 629 1321 582 1347 b 428 1272 469 1347 428 1300 b 451 1249 428 1257 438 1249 b 529 1326 493 1249 481 1326 b 567 1269 556 1326 567 1303 b 508 1104 567 1200 514 1190 z "},"Ư":{"ha":1065,"x_min":0,"x_max":0,"o":"m 517 -25 b 868 381 764 -25 868 117 l 868 826 b 961 949 868 913 911 940 b 1082 1058 1044 963 1082 997 b 1022 1136 1082 1106 1058 1136 b 971 1082 990 1136 971 1113 b 1011 1004 971 1039 1011 1032 b 940 972 1011 986 994 972 l 694 972 l 694 949 b 836 783 796 949 836 907 l 836 375 b 532 19 836 135 735 19 b 235 371 333 19 235 128 l 235 772 b 358 949 235 932 265 949 l 358 972 l 31 972 l 31 949 b 154 772 128 949 154 932 l 154 364 b 517 -25 154 96 289 -25 z "},"Ứ":{"ha":1065,"x_min":0,"x_max":0,"o":"m 517 -25 b 868 381 764 -25 868 117 l 868 826 b 961 949 868 913 911 940 b 1082 1058 1044 963 1082 997 b 1022 1136 1082 1106 1058 1136 b 971 1082 990 1136 971 1113 b 1011 1004 971 1039 1011 1032 b 940 972 1011 986 994 972 l 694 972 l 694 949 b 836 783 796 949 836 907 l 836 375 b 532 19 836 135 735 19 b 235 371 333 19 235 128 l 235 772 b 358 949 235 932 265 949 l 358 972 l 31 972 l 31 949 b 154 772 128 949 154 932 l 154 364 b 517 -25 154 96 289 -25 z m 486 1093 l 703 1285 b 728 1329 719 1300 728 1314 b 689 1368 728 1351 708 1368 b 647 1343 674 1368 660 1360 l 472 1107 z "},"Ự":{"ha":1065,"x_min":0,"x_max":0,"o":"m 517 -25 b 868 381 764 -25 868 117 l 868 826 b 961 949 868 913 911 940 b 1082 1058 1044 963 1082 997 b 1022 1136 1082 1106 1058 1136 b 971 1082 990 1136 971 1113 b 1011 1004 971 1039 1011 1032 b 940 972 1011 986 994 972 l 694 972 l 694 949 b 836 783 796 949 836 907 l 836 375 b 532 19 836 135 735 19 b 235 371 333 19 235 128 l 235 772 b 358 949 235 932 265 949 l 358 972 l 31 972 l 31 949 b 154 772 128 949 154 932 l 154 364 b 517 -25 154 96 289 -25 z m 506 -303 b 571 -236 542 -303 571 -274 b 506 -169 571 -199 542 -169 b 440 -236 469 -169 440 -199 b 506 -303 440 -274 469 -303 z "},"Ừ":{"ha":1065,"x_min":0,"x_max":0,"o":"m 517 -25 b 868 381 764 -25 868 117 l 868 826 b 961 949 868 913 911 940 b 1082 1058 1044 963 1082 997 b 1022 1136 1082 1106 1058 1136 b 971 1082 990 1136 971 1113 b 1011 1004 971 1039 1011 1032 b 940 972 1011 986 994 972 l 694 972 l 694 949 b 836 783 796 949 836 907 l 836 375 b 532 19 836 135 735 19 b 235 371 333 19 235 128 l 235 772 b 358 949 235 932 265 949 l 358 972 l 31 972 l 31 949 b 154 772 128 949 154 932 l 154 364 b 517 -25 154 96 289 -25 z m 358 1285 l 575 1093 l 589 1107 l 414 1343 b 372 1368 401 1360 388 1368 b 333 1329 353 1368 333 1351 b 358 1285 333 1314 342 1300 z "},"Ử":{"ha":1065,"x_min":0,"x_max":0,"o":"m 517 -25 b 868 381 764 -25 868 117 l 868 826 b 961 949 868 913 911 940 b 1082 1058 1044 963 1082 997 b 1022 1136 1082 1106 1058 1136 b 971 1082 990 1136 971 1113 b 1011 1004 971 1039 1011 1032 b 940 972 1011 986 994 972 l 694 972 l 694 949 b 836 783 796 949 836 907 l 836 375 b 532 19 836 135 735 19 b 235 371 333 19 235 128 l 235 772 b 358 949 235 932 265 949 l 358 972 l 31 972 l 31 949 b 154 772 128 949 154 932 l 154 364 b 517 -25 154 96 289 -25 z m 508 1104 l 529 1104 b 629 1265 543 1175 629 1190 b 533 1347 629 1321 582 1347 b 428 1272 469 1347 428 1300 b 451 1249 428 1257 438 1249 b 529 1326 493 1249 481 1326 b 567 1269 556 1326 567 1303 b 508 1104 567 1200 514 1190 z "},"Ữ":{"ha":1065,"x_min":0,"x_max":0,"o":"m 517 -25 b 868 381 764 -25 868 117 l 868 826 b 961 949 868 913 911 940 b 1082 1058 1044 963 1082 997 b 1022 1136 1082 1106 1058 1136 b 971 1082 990 1136 971 1113 b 1011 1004 971 1039 1011 1032 b 940 972 1011 986 994 972 l 694 972 l 694 949 b 836 783 796 949 836 907 l 836 375 b 532 19 836 135 735 19 b 235 371 333 19 235 128 l 235 772 b 358 949 235 932 265 949 l 358 972 l 31 972 l 31 949 b 154 772 128 949 154 932 l 154 364 b 517 -25 154 96 289 -25 z m 314 1132 l 332 1121 b 435 1196 364 1176 393 1196 b 614 1121 496 1196 542 1121 b 751 1243 654 1121 703 1139 l 733 1256 b 639 1185 701 1200 671 1185 b 451 1257 568 1185 524 1257 b 314 1132 411 1257 364 1238 z "},"Ű":{"ha":1015,"x_min":0,"x_max":0,"o":"m 517 -25 b 868 381 764 -25 868 117 l 868 785 b 982 949 868 904 907 949 l 982 972 l 694 972 l 694 949 b 836 783 796 949 836 907 l 836 375 b 532 19 836 135 735 19 b 235 371 333 19 235 128 l 235 772 b 358 949 235 932 265 949 l 358 972 l 31 972 l 31 949 b 154 772 128 949 154 932 l 154 364 b 517 -25 154 96 289 -25 z m 392 1093 l 608 1285 b 633 1329 625 1300 633 1314 b 594 1368 633 1351 614 1368 b 553 1343 579 1368 565 1360 l 378 1107 z m 615 1093 l 832 1285 b 857 1329 849 1300 857 1314 b 818 1368 857 1351 838 1368 b 776 1343 803 1368 789 1360 l 601 1107 z "},"Ū":{"ha":1015,"x_min":0,"x_max":0,"o":"m 517 -25 b 868 381 764 -25 868 117 l 868 785 b 982 949 868 904 907 949 l 982 972 l 694 972 l 694 949 b 836 783 796 949 836 907 l 836 375 b 532 19 836 135 735 19 b 235 371 333 19 235 128 l 235 772 b 358 949 235 932 265 949 l 358 972 l 31 972 l 31 949 b 154 772 128 949 154 932 l 154 364 b 517 -25 154 96 289 -25 z m 335 1171 l 732 1171 l 732 1200 l 335 1200 z "},"Ų":{"ha":1015,"x_min":0,"x_max":0,"o":"m 517 -25 b 608 -18 550 -25 581 -22 b 465 -228 528 -68 465 -144 b 607 -364 465 -307 521 -364 b 760 -287 665 -364 714 -337 l 750 -276 b 642 -321 724 -300 688 -321 b 525 -201 582 -321 525 -287 b 672 0 525 -125 568 -61 b 868 381 808 51 868 181 l 868 785 b 982 949 868 904 907 949 l 982 972 l 694 972 l 694 949 b 836 783 796 949 836 907 l 836 375 b 532 19 836 135 735 19 b 235 371 333 19 235 128 l 235 772 b 358 949 235 932 265 949 l 358 972 l 31 972 l 31 949 b 154 772 128 949 154 932 l 154 364 b 517 -25 154 96 289 -25 z "},"Ů":{"ha":1015,"x_min":0,"x_max":0,"o":"m 517 -25 b 868 381 764 -25 868 117 l 868 785 b 982 949 868 904 907 949 l 982 972 l 694 972 l 694 949 b 836 783 796 949 836 907 l 836 375 b 532 19 836 135 735 19 b 235 371 333 19 235 128 l 235 772 b 358 949 235 932 265 949 l 358 972 l 31 972 l 31 949 b 154 772 128 949 154 932 l 154 364 b 517 -25 154 96 289 -25 z m 532 1083 b 679 1226 608 1083 679 1138 b 535 1364 679 1318 606 1364 b 388 1221 458 1364 388 1310 b 532 1083 388 1129 461 1083 z m 533 1096 b 457 1221 482 1096 457 1149 b 533 1351 457 1294 485 1351 b 610 1226 585 1351 610 1299 b 533 1096 610 1153 583 1096 z "},"Ũ":{"ha":1015,"x_min":0,"x_max":0,"o":"m 517 -25 b 868 381 764 -25 868 117 l 868 785 b 982 949 868 904 907 949 l 982 972 l 694 972 l 694 949 b 836 783 796 949 836 907 l 836 375 b 532 19 836 135 735 19 b 235 371 333 19 235 128 l 235 772 b 358 949 235 932 265 949 l 358 972 l 31 972 l 31 949 b 154 772 128 949 154 932 l 154 364 b 517 -25 154 96 289 -25 z m 314 1132 l 332 1121 b 435 1196 364 1176 393 1196 b 614 1121 496 1196 542 1121 b 751 1243 654 1121 703 1139 l 733 1256 b 639 1185 701 1200 671 1185 b 451 1257 568 1185 524 1257 b 314 1132 411 1257 364 1238 z "},"V":{"ha":971,"x_min":0,"x_max":0,"o":"m 142 785 l 474 -14 l 497 -14 l 810 756 b 971 949 865 893 897 949 l 971 972 l 674 972 l 674 949 b 776 758 804 949 817 860 l 511 100 l 228 785 b 328 949 185 890 197 949 l 328 972 l 4 972 l 4 949 b 142 785 67 949 89 913 z "},"W":{"ha":1397,"x_min":0,"x_max":0,"o":"m 681 786 l 710 706 l 492 114 l 233 786 b 324 949 186 908 219 949 l 324 972 l 4 972 l 4 949 b 150 786 69 949 101 914 l 456 -14 l 479 -14 l 726 661 l 969 -14 l 993 -14 l 1221 707 b 1397 949 1276 883 1321 949 l 1397 972 l 1103 972 l 1103 949 b 1188 710 1213 949 1247 901 l 1004 126 l 764 786 b 846 949 717 914 753 949 l 846 972 l 518 972 l 518 949 b 681 786 597 949 633 915 z "},"Ẃ":{"ha":1397,"x_min":0,"x_max":0,"o":"m 681 786 l 710 706 l 492 114 l 233 786 b 324 949 186 908 219 949 l 324 972 l 4 972 l 4 949 b 150 786 69 949 101 914 l 456 -14 l 479 -14 l 726 661 l 969 -14 l 993 -14 l 1221 707 b 1397 949 1276 883 1321 949 l 1397 972 l 1103 972 l 1103 949 b 1188 710 1213 949 1247 901 l 1004 126 l 764 786 b 846 949 717 914 753 949 l 846 972 l 518 972 l 518 949 b 681 786 597 949 633 915 z m 644 1093 l 861 1285 b 886 1329 878 1300 886 1314 b 847 1368 886 1351 867 1368 b 806 1343 832 1368 818 1360 l 631 1107 z "},"Ŵ":{"ha":1397,"x_min":0,"x_max":0,"o":"m 681 786 l 710 706 l 492 114 l 233 786 b 324 949 186 908 219 949 l 324 972 l 4 972 l 4 949 b 150 786 69 949 101 914 l 456 -14 l 479 -14 l 726 661 l 969 -14 l 993 -14 l 1221 707 b 1397 949 1276 883 1321 949 l 1397 972 l 1103 972 l 1103 949 b 1188 710 1213 949 1247 901 l 1004 126 l 764 786 b 846 949 717 914 753 949 l 846 972 l 518 972 l 518 949 b 681 786 597 949 633 915 z m 497 1118 l 692 1244 l 886 1118 l 899 1131 l 704 1321 l 679 1321 l 485 1131 z "},"Ẅ":{"ha":1397,"x_min":0,"x_max":0,"o":"m 681 786 l 710 706 l 492 114 l 233 786 b 324 949 186 908 219 949 l 324 972 l 4 972 l 4 949 b 150 786 69 949 101 914 l 456 -14 l 479 -14 l 726 661 l 969 -14 l 993 -14 l 1221 707 b 1397 949 1276 883 1321 949 l 1397 972 l 1103 972 l 1103 949 b 1188 710 1213 949 1247 901 l 1004 126 l 764 786 b 846 949 717 914 753 949 l 846 972 l 518 972 l 518 949 b 681 786 597 949 633 915 z m 557 1153 b 617 1217 592 1153 617 1181 b 557 1281 617 1253 592 1281 b 497 1217 522 1281 497 1253 b 557 1153 497 1181 522 1153 z m 826 1153 b 886 1217 861 1153 886 1181 b 826 1281 886 1253 861 1281 b 767 1217 792 1281 767 1253 b 826 1153 767 1181 792 1153 z "},"Ẁ":{"ha":1397,"x_min":0,"x_max":0,"o":"m 681 786 l 710 706 l 492 114 l 233 786 b 324 949 186 908 219 949 l 324 972 l 4 972 l 4 949 b 150 786 69 949 101 914 l 456 -14 l 479 -14 l 726 661 l 969 -14 l 993 -14 l 1221 707 b 1397 949 1276 883 1321 949 l 1397 972 l 1103 972 l 1103 949 b 1188 710 1213 949 1247 901 l 1004 126 l 764 786 b 846 949 717 914 753 949 l 846 972 l 518 972 l 518 949 b 681 786 597 949 633 915 z m 517 1285 l 733 1093 l 747 1107 l 572 1343 b 531 1368 560 1360 546 1368 b 492 1329 511 1368 492 1351 b 517 1285 492 1314 500 1300 z "},"X":{"ha":924,"x_min":0,"x_max":0,"o":"m 586 25 l 586 0 l 924 0 l 924 24 b 763 157 868 24 829 63 l 493 536 l 710 819 b 881 949 775 906 831 949 l 881 972 l 576 972 l 576 947 b 665 813 717 947 719 883 l 474 563 l 272 846 b 354 947 235 900 265 947 l 354 972 l 32 972 l 32 949 b 194 817 101 949 143 889 l 421 499 l 169 153 b 8 24 107 67 58 24 l 8 0 l 318 0 l 318 25 b 213 161 190 25 158 88 l 439 472 l 689 122 b 586 25 735 57 707 25 z "},"Y":{"ha":904,"x_min":0,"x_max":0,"o":"m 283 24 l 283 0 l 622 0 l 622 24 b 493 200 521 24 493 40 l 493 392 l 728 789 b 901 947 797 906 864 947 l 901 972 l 615 972 l 615 949 b 715 826 735 949 754 893 l 481 429 l 242 831 b 300 949 196 908 218 949 l 300 972 l 8 972 l 8 949 b 165 803 76 949 104 906 l 413 389 l 413 200 b 283 24 413 40 385 24 z "},"Ý":{"ha":904,"x_min":0,"x_max":0,"o":"m 283 24 l 283 0 l 622 0 l 622 24 b 493 200 521 24 493 40 l 493 392 l 728 789 b 901 947 797 906 864 947 l 901 972 l 615 972 l 615 949 b 715 826 735 949 754 893 l 481 429 l 242 831 b 300 949 196 908 218 949 l 300 972 l 8 972 l 8 949 b 165 803 76 949 104 906 l 413 389 l 413 200 b 283 24 413 40 385 24 z m 410 1093 l 626 1285 b 651 1329 643 1300 651 1314 b 613 1368 651 1351 632 1368 b 571 1343 597 1368 583 1360 l 396 1107 z "},"Ŷ":{"ha":904,"x_min":0,"x_max":0,"o":"m 283 24 l 283 0 l 622 0 l 622 24 b 493 200 521 24 493 40 l 493 392 l 728 789 b 901 947 797 906 864 947 l 901 972 l 615 972 l 615 949 b 715 826 735 949 754 893 l 481 429 l 242 831 b 300 949 196 908 218 949 l 300 972 l 8 972 l 8 949 b 165 803 76 949 104 906 l 413 389 l 413 200 b 283 24 413 40 385 24 z m 263 1118 l 457 1244 l 651 1118 l 664 1131 l 469 1321 l 444 1321 l 250 1131 z "},"Ÿ":{"ha":904,"x_min":0,"x_max":0,"o":"m 283 24 l 283 0 l 622 0 l 622 24 b 493 200 521 24 493 40 l 493 392 l 728 789 b 901 947 797 906 864 947 l 901 972 l 615 972 l 615 949 b 715 826 735 949 754 893 l 481 429 l 242 831 b 300 949 196 908 218 949 l 300 972 l 8 972 l 8 949 b 165 803 76 949 104 906 l 413 389 l 413 200 b 283 24 413 40 385 24 z m 322 1153 b 382 1217 357 1153 382 1181 b 322 1281 382 1253 357 1281 b 263 1217 288 1281 263 1253 b 322 1153 263 1181 288 1153 z m 592 1153 b 651 1217 626 1153 651 1181 b 592 1281 651 1253 626 1281 b 532 1217 557 1281 532 1253 b 592 1153 532 1181 557 1153 z "},"Ẏ":{"ha":904,"x_min":0,"x_max":0,"o":"m 283 24 l 283 0 l 622 0 l 622 24 b 493 200 521 24 493 40 l 493 392 l 728 789 b 901 947 797 906 864 947 l 901 972 l 615 972 l 615 949 b 715 826 735 949 754 893 l 481 429 l 242 831 b 300 949 196 908 218 949 l 300 972 l 8 972 l 8 949 b 165 803 76 949 104 906 l 413 389 l 413 200 b 283 24 413 40 385 24 z m 457 1149 b 522 1215 493 1149 522 1178 b 457 1282 522 1253 493 1282 b 392 1215 421 1282 392 1253 b 457 1149 392 1178 421 1149 z "},"Ỵ":{"ha":904,"x_min":0,"x_max":0,"o":"m 283 24 l 283 0 l 622 0 l 622 24 b 493 200 521 24 493 40 l 493 392 l 728 789 b 901 947 797 906 864 947 l 901 972 l 615 972 l 615 949 b 715 826 735 949 754 893 l 481 429 l 242 831 b 300 949 196 908 218 949 l 300 972 l 8 972 l 8 949 b 165 803 76 949 104 906 l 413 389 l 413 200 b 283 24 413 40 385 24 z m 456 -303 b 521 -236 492 -303 521 -274 b 456 -169 521 -199 492 -169 b 390 -236 419 -169 390 -199 b 456 -303 390 -274 419 -303 z "},"Ỳ":{"ha":904,"x_min":0,"x_max":0,"o":"m 283 24 l 283 0 l 622 0 l 622 24 b 493 200 521 24 493 40 l 493 392 l 728 789 b 901 947 797 906 864 947 l 901 972 l 615 972 l 615 949 b 715 826 735 949 754 893 l 481 429 l 242 831 b 300 949 196 908 218 949 l 300 972 l 8 972 l 8 949 b 165 803 76 949 104 906 l 413 389 l 413 200 b 283 24 413 40 385 24 z m 282 1285 l 499 1093 l 513 1107 l 338 1343 b 296 1368 325 1360 311 1368 b 257 1329 276 1368 257 1351 b 282 1285 257 1314 265 1300 z "},"Ỷ":{"ha":904,"x_min":0,"x_max":0,"o":"m 283 24 l 283 0 l 622 0 l 622 24 b 493 200 521 24 493 40 l 493 392 l 728 789 b 901 947 797 906 864 947 l 901 972 l 615 972 l 615 949 b 715 826 735 949 754 893 l 481 429 l 242 831 b 300 949 196 908 218 949 l 300 972 l 8 972 l 8 949 b 165 803 76 949 104 906 l 413 389 l 413 200 b 283 24 413 40 385 24 z m 432 1104 l 453 1104 b 553 1265 467 1175 553 1190 b 457 1347 553 1321 506 1347 b 351 1272 393 1347 351 1300 b 375 1249 351 1257 361 1249 b 453 1326 417 1249 404 1326 b 490 1269 479 1326 490 1303 b 432 1104 490 1200 438 1190 z "},"Ȳ":{"ha":904,"x_min":0,"x_max":0,"o":"m 283 24 l 283 0 l 622 0 l 622 24 b 493 200 521 24 493 40 l 493 392 l 728 789 b 901 947 797 906 864 947 l 901 972 l 615 972 l 615 949 b 715 826 735 949 754 893 l 481 429 l 242 831 b 300 949 196 908 218 949 l 300 972 l 8 972 l 8 949 b 165 803 76 949 104 906 l 413 389 l 413 200 b 283 24 413 40 385 24 z m 258 1171 l 656 1171 l 656 1200 l 258 1200 z "},"Ỹ":{"ha":904,"x_min":0,"x_max":0,"o":"m 283 24 l 283 0 l 622 0 l 622 24 b 493 200 521 24 493 40 l 493 392 l 728 789 b 901 947 797 906 864 947 l 901 972 l 615 972 l 615 949 b 715 826 735 949 754 893 l 481 429 l 242 831 b 300 949 196 908 218 949 l 300 972 l 8 972 l 8 949 b 165 803 76 949 104 906 l 413 389 l 413 200 b 283 24 413 40 385 24 z m 238 1132 l 256 1121 b 358 1196 288 1176 317 1196 b 538 1121 419 1196 465 1121 b 675 1243 578 1121 626 1139 l 657 1256 b 563 1185 625 1200 594 1185 b 375 1257 492 1185 447 1257 b 238 1132 335 1257 288 1238 z "},"Z":{"ha":815,"x_min":0,"x_max":0,"o":"m 703 -53 l 725 -57 l 789 268 l 765 274 b 453 31 706 83 674 31 l 136 31 l 760 967 l 757 972 l 207 972 b 146 1025 160 972 133 981 l 121 1029 l 65 726 l 89 721 b 410 942 140 881 189 942 l 647 942 l 17 6 l 19 0 l 642 0 b 703 -53 689 0 713 -10 z "},"Ź":{"ha":815,"x_min":0,"x_max":0,"o":"m 703 -53 l 725 -57 l 789 268 l 765 274 b 453 31 706 83 674 31 l 136 31 l 760 967 l 757 972 l 207 972 b 146 1025 160 972 133 981 l 121 1029 l 65 726 l 89 721 b 410 942 140 881 189 942 l 647 942 l 17 6 l 19 0 l 642 0 b 703 -53 689 0 713 -10 z m 382 1093 l 599 1285 b 624 1329 615 1300 624 1314 b 585 1368 624 1351 604 1368 b 543 1343 569 1368 556 1360 l 368 1107 z "},"Ž":{"ha":815,"x_min":0,"x_max":0,"o":"m 703 -53 l 725 -57 l 789 268 l 765 274 b 453 31 706 83 674 31 l 136 31 l 760 967 l 757 972 l 207 972 b 146 1025 160 972 133 981 l 121 1029 l 65 726 l 89 721 b 410 942 140 881 189 942 l 647 942 l 17 6 l 19 0 l 642 0 b 703 -53 689 0 713 -10 z m 417 1118 l 442 1118 l 636 1308 l 624 1321 l 429 1194 l 235 1321 l 222 1308 z "},"Ż":{"ha":815,"x_min":0,"x_max":0,"o":"m 703 -53 l 725 -57 l 789 268 l 765 274 b 453 31 706 83 674 31 l 136 31 l 760 967 l 757 972 l 207 972 b 146 1025 160 972 133 981 l 121 1029 l 65 726 l 89 721 b 410 942 140 881 189 942 l 647 942 l 17 6 l 19 0 l 642 0 b 703 -53 689 0 713 -10 z m 429 1149 b 494 1215 465 1149 494 1178 b 429 1282 494 1253 465 1282 b 364 1215 393 1282 364 1253 b 429 1149 364 1178 393 1149 z "},"Ẓ":{"ha":815,"x_min":0,"x_max":0,"o":"m 703 -53 l 725 -57 l 789 268 l 765 274 b 453 31 706 83 674 31 l 136 31 l 760 967 l 757 972 l 207 972 b 146 1025 160 972 133 981 l 121 1029 l 65 726 l 89 721 b 410 942 140 881 189 942 l 647 942 l 17 6 l 19 0 l 642 0 b 703 -53 689 0 713 -10 z m 399 -303 b 464 -236 435 -303 464 -274 b 399 -169 464 -199 435 -169 b 333 -236 363 -169 333 -199 b 399 -303 333 -274 363 -303 z "},"a":{"ha":707,"x_min":0,"x_max":0,"o":"m 235 -25 b 503 117 342 -25 421 28 l 506 117 l 506 113 b 592 -25 506 53 511 -25 b 690 19 625 -25 658 -10 l 676 36 b 631 15 663 22 646 15 b 581 182 586 15 581 69 l 581 492 b 354 719 581 678 483 719 b 74 582 185 719 74 632 b 114 543 74 557 88 543 b 356 696 197 543 185 696 b 507 492 464 696 507 632 l 507 419 b 47 135 333 392 47 324 b 235 -25 47 31 129 -25 z m 269 25 b 129 153 178 25 129 76 b 507 394 129 310 358 371 l 507 153 b 269 25 432 67 353 25 z "},"á":{"ha":707,"x_min":0,"x_max":0,"o":"m 235 -25 b 503 117 342 -25 421 28 l 506 117 l 506 113 b 592 -25 506 53 511 -25 b 690 19 625 -25 658 -10 l 676 36 b 631 15 663 22 646 15 b 581 182 586 15 581 69 l 581 492 b 354 719 581 678 483 719 b 74 582 185 719 74 632 b 114 543 74 557 88 543 b 356 696 197 543 185 696 b 507 492 464 696 507 632 l 507 419 b 47 135 333 392 47 324 b 235 -25 47 31 129 -25 z m 269 25 b 129 153 178 25 129 76 b 507 394 129 310 358 371 l 507 153 b 269 25 432 67 353 25 z m 301 815 l 518 1007 b 543 1051 535 1022 543 1036 b 504 1090 543 1074 524 1090 b 463 1065 489 1090 475 1082 l 288 829 z "},"ă":{"ha":707,"x_min":0,"x_max":0,"o":"m 235 -25 b 503 117 342 -25 421 28 l 506 117 l 506 113 b 592 -25 506 53 511 -25 b 690 19 625 -25 658 -10 l 676 36 b 631 15 663 22 646 15 b 581 182 586 15 581 69 l 581 492 b 354 719 581 678 483 719 b 74 582 185 719 74 632 b 114 543 74 557 88 543 b 356 696 197 543 185 696 b 507 492 464 696 507 632 l 507 419 b 47 135 333 392 47 324 b 235 -25 47 31 129 -25 z m 269 25 b 129 153 178 25 129 76 b 507 394 129 310 358 371 l 507 153 b 269 25 432 67 353 25 z m 349 839 b 535 1021 481 839 528 956 l 518 1025 b 349 908 504 990 447 908 b 179 1025 250 908 193 990 l 163 1021 b 349 839 169 956 217 839 z "},"ắ":{"ha":707,"x_min":0,"x_max":0,"o":"m 235 -25 b 503 117 342 -25 421 28 l 506 117 l 506 113 b 592 -25 506 53 511 -25 b 690 19 625 -25 658 -10 l 676 36 b 631 15 663 22 646 15 b 581 182 586 15 581 69 l 581 492 b 354 719 581 678 483 719 b 74 582 185 719 74 632 b 114 543 74 557 88 543 b 356 696 197 543 185 696 b 507 492 464 696 507 632 l 507 419 b 47 135 333 392 47 324 b 235 -25 47 31 129 -25 z m 269 25 b 129 153 178 25 129 76 b 507 394 129 310 358 371 l 507 153 b 269 25 432 67 353 25 z m 349 839 b 535 1021 481 839 528 956 l 518 1025 b 349 908 504 990 447 908 b 179 1025 250 908 193 990 l 163 1021 b 349 839 169 956 217 839 z m 301 1047 l 518 1239 b 543 1283 535 1254 543 1268 b 504 1322 543 1306 524 1322 b 463 1297 489 1322 475 1314 l 288 1061 z "},"ặ":{"ha":707,"x_min":0,"x_max":0,"o":"m 235 -25 b 503 117 342 -25 421 28 l 506 117 l 506 113 b 592 -25 506 53 511 -25 b 690 19 625 -25 658 -10 l 676 36 b 631 15 663 22 646 15 b 581 182 586 15 581 69 l 581 492 b 354 719 581 678 483 719 b 74 582 185 719 74 632 b 114 543 74 557 88 543 b 356 696 197 543 185 696 b 507 492 464 696 507 632 l 507 419 b 47 135 333 392 47 324 b 235 -25 47 31 129 -25 z m 269 25 b 129 153 178 25 129 76 b 507 394 129 310 358 371 l 507 153 b 269 25 432 67 353 25 z m 356 -303 b 421 -236 392 -303 421 -274 b 356 -169 421 -199 392 -169 b 290 -236 319 -169 290 -199 b 356 -303 290 -274 319 -303 z m 349 839 b 535 1021 481 839 528 956 l 518 1025 b 349 908 504 990 447 908 b 179 1025 250 908 193 990 l 163 1021 b 349 839 169 956 217 839 z "},"ằ":{"ha":707,"x_min":0,"x_max":0,"o":"m 235 -25 b 503 117 342 -25 421 28 l 506 117 l 506 113 b 592 -25 506 53 511 -25 b 690 19 625 -25 658 -10 l 676 36 b 631 15 663 22 646 15 b 581 182 586 15 581 69 l 581 492 b 354 719 581 678 483 719 b 74 582 185 719 74 632 b 114 543 74 557 88 543 b 356 696 197 543 185 696 b 507 492 464 696 507 632 l 507 419 b 47 135 333 392 47 324 b 235 -25 47 31 129 -25 z m 269 25 b 129 153 178 25 129 76 b 507 394 129 310 358 371 l 507 153 b 269 25 432 67 353 25 z m 349 839 b 535 1021 481 839 528 956 l 518 1025 b 349 908 504 990 447 908 b 179 1025 250 908 193 990 l 163 1021 b 349 839 169 956 217 839 z m 174 1239 l 390 1047 l 404 1061 l 229 1297 b 188 1322 217 1314 203 1322 b 149 1283 168 1322 149 1306 b 174 1239 149 1268 157 1254 z "},"ẳ":{"ha":707,"x_min":0,"x_max":0,"o":"m 235 -25 b 503 117 342 -25 421 28 l 506 117 l 506 113 b 592 -25 506 53 511 -25 b 690 19 625 -25 658 -10 l 676 36 b 631 15 663 22 646 15 b 581 182 586 15 581 69 l 581 492 b 354 719 581 678 483 719 b 74 582 185 719 74 632 b 114 543 74 557 88 543 b 356 696 197 543 185 696 b 507 492 464 696 507 632 l 507 419 b 47 135 333 392 47 324 b 235 -25 47 31 129 -25 z m 269 25 b 129 153 178 25 129 76 b 507 394 129 310 358 371 l 507 153 b 269 25 432 67 353 25 z m 349 839 b 535 1021 481 839 528 956 l 518 1025 b 349 908 504 990 447 908 b 179 1025 250 908 193 990 l 163 1021 b 349 839 169 956 217 839 z m 324 1058 l 344 1058 b 444 1219 358 1129 444 1144 b 349 1301 444 1275 397 1301 b 243 1226 285 1301 243 1254 b 267 1203 243 1211 253 1203 b 344 1281 308 1203 296 1281 b 382 1224 371 1281 382 1257 b 324 1058 382 1154 329 1144 z "},"ẵ":{"ha":707,"x_min":0,"x_max":0,"o":"m 235 -25 b 503 117 342 -25 421 28 l 506 117 l 506 113 b 592 -25 506 53 511 -25 b 690 19 625 -25 658 -10 l 676 36 b 631 15 663 22 646 15 b 581 182 586 15 581 69 l 581 492 b 354 719 581 678 483 719 b 74 582 185 719 74 632 b 114 543 74 557 88 543 b 356 696 197 543 185 696 b 507 492 464 696 507 632 l 507 419 b 47 135 333 392 47 324 b 235 -25 47 31 129 -25 z m 269 25 b 129 153 178 25 129 76 b 507 394 129 310 358 371 l 507 153 b 269 25 432 67 353 25 z m 349 839 b 535 1021 481 839 528 956 l 518 1025 b 349 908 504 990 447 908 b 179 1025 250 908 193 990 l 163 1021 b 349 839 169 956 217 839 z m 129 1086 l 147 1075 b 250 1150 179 1131 208 1150 b 429 1075 311 1150 357 1075 b 567 1197 469 1075 518 1093 l 549 1210 b 454 1139 517 1154 486 1139 b 267 1211 383 1139 339 1211 b 129 1086 226 1211 179 1192 z "},"ǎ":{"ha":707,"x_min":0,"x_max":0,"o":"m 235 -25 b 503 117 342 -25 421 28 l 506 117 l 506 113 b 592 -25 506 53 511 -25 b 690 19 625 -25 658 -10 l 676 36 b 631 15 663 22 646 15 b 581 182 586 15 581 69 l 581 492 b 354 719 581 678 483 719 b 74 582 185 719 74 632 b 114 543 74 557 88 543 b 356 696 197 543 185 696 b 507 492 464 696 507 632 l 507 419 b 47 135 333 392 47 324 b 235 -25 47 31 129 -25 z m 269 25 b 129 153 178 25 129 76 b 507 394 129 310 358 371 l 507 153 b 269 25 432 67 353 25 z m 336 840 l 361 840 l 556 1031 l 543 1043 l 349 917 l 154 1043 l 142 1031 z "},"â":{"ha":707,"x_min":0,"x_max":0,"o":"m 235 -25 b 503 117 342 -25 421 28 l 506 117 l 506 113 b 592 -25 506 53 511 -25 b 690 19 625 -25 658 -10 l 676 36 b 631 15 663 22 646 15 b 581 182 586 15 581 69 l 581 492 b 354 719 581 678 483 719 b 74 582 185 719 74 632 b 114 543 74 557 88 543 b 356 696 197 543 185 696 b 507 492 464 696 507 632 l 507 419 b 47 135 333 392 47 324 b 235 -25 47 31 129 -25 z m 269 25 b 129 153 178 25 129 76 b 507 394 129 310 358 371 l 507 153 b 269 25 432 67 353 25 z m 154 840 l 349 967 l 543 840 l 556 853 l 361 1043 l 336 1043 l 142 853 z "},"ấ":{"ha":707,"x_min":0,"x_max":0,"o":"m 235 -25 b 503 117 342 -25 421 28 l 506 117 l 506 113 b 592 -25 506 53 511 -25 b 690 19 625 -25 658 -10 l 676 36 b 631 15 663 22 646 15 b 581 182 586 15 581 69 l 581 492 b 354 719 581 678 483 719 b 74 582 185 719 74 632 b 114 543 74 557 88 543 b 356 696 197 543 185 696 b 507 492 464 696 507 632 l 507 419 b 47 135 333 392 47 324 b 235 -25 47 31 129 -25 z m 269 25 b 129 153 178 25 129 76 b 507 394 129 310 358 371 l 507 153 b 269 25 432 67 353 25 z m 154 840 l 349 967 l 543 840 l 556 853 l 361 1043 l 336 1043 l 142 853 z m 504 1021 l 682 1175 b 707 1218 700 1190 707 1203 b 671 1254 707 1239 689 1254 b 631 1229 656 1254 643 1246 l 490 1035 z "},"ậ":{"ha":707,"x_min":0,"x_max":0,"o":"m 235 -25 b 503 117 342 -25 421 28 l 506 117 l 506 113 b 592 -25 506 53 511 -25 b 690 19 625 -25 658 -10 l 676 36 b 631 15 663 22 646 15 b 581 182 586 15 581 69 l 581 492 b 354 719 581 678 483 719 b 74 582 185 719 74 632 b 114 543 74 557 88 543 b 356 696 197 543 185 696 b 507 492 464 696 507 632 l 507 419 b 47 135 333 392 47 324 b 235 -25 47 31 129 -25 z m 269 25 b 129 153 178 25 129 76 b 507 394 129 310 358 371 l 507 153 b 269 25 432 67 353 25 z m 356 -303 b 421 -236 392 -303 421 -274 b 356 -169 421 -199 392 -169 b 290 -236 319 -169 290 -199 b 356 -303 290 -274 319 -303 z m 154 840 l 349 967 l 543 840 l 556 853 l 361 1043 l 336 1043 l 142 853 z "},"ầ":{"ha":707,"x_min":0,"x_max":0,"o":"m 235 -25 b 503 117 342 -25 421 28 l 506 117 l 506 113 b 592 -25 506 53 511 -25 b 690 19 625 -25 658 -10 l 676 36 b 631 15 663 22 646 15 b 581 182 586 15 581 69 l 581 492 b 354 719 581 678 483 719 b 74 582 185 719 74 632 b 114 543 74 557 88 543 b 356 696 197 543 185 696 b 507 492 464 696 507 632 l 507 419 b 47 135 333 392 47 324 b 235 -25 47 31 129 -25 z m 269 25 b 129 153 178 25 129 76 b 507 394 129 310 358 371 l 507 153 b 269 25 432 67 353 25 z m 154 840 l 349 967 l 543 840 l 556 853 l 361 1043 l 336 1043 l 142 853 z m 382 1175 l 560 1021 l 574 1035 l 433 1229 b 393 1254 421 1246 408 1254 b 357 1218 375 1254 357 1239 b 382 1175 357 1203 364 1190 z "},"ẩ":{"ha":707,"x_min":0,"x_max":0,"o":"m 235 -25 b 503 117 342 -25 421 28 l 506 117 l 506 113 b 592 -25 506 53 511 -25 b 690 19 625 -25 658 -10 l 676 36 b 631 15 663 22 646 15 b 581 182 586 15 581 69 l 581 492 b 354 719 581 678 483 719 b 74 582 185 719 74 632 b 114 543 74 557 88 543 b 356 696 197 543 185 696 b 507 492 464 696 507 632 l 507 419 b 47 135 333 392 47 324 b 235 -25 47 31 129 -25 z m 269 25 b 129 153 178 25 129 76 b 507 394 129 310 358 371 l 507 153 b 269 25 432 67 353 25 z m 154 840 l 349 967 l 543 840 l 556 853 l 361 1043 l 336 1043 l 142 853 z m 485 1032 l 506 1032 b 606 1193 519 1103 606 1118 b 511 1275 606 1249 558 1275 b 404 1200 446 1275 404 1228 b 428 1176 404 1185 414 1176 b 506 1254 469 1176 457 1254 b 543 1197 532 1254 543 1231 b 485 1032 543 1128 490 1118 z "},"ẫ":{"ha":707,"x_min":0,"x_max":0,"o":"m 235 -25 b 503 117 342 -25 421 28 l 506 117 l 506 113 b 592 -25 506 53 511 -25 b 690 19 625 -25 658 -10 l 676 36 b 631 15 663 22 646 15 b 581 182 586 15 581 69 l 581 492 b 354 719 581 678 483 719 b 74 582 185 719 74 632 b 114 543 74 557 88 543 b 356 696 197 543 185 696 b 507 492 464 696 507 632 l 507 419 b 47 135 333 392 47 324 b 235 -25 47 31 129 -25 z m 269 25 b 129 153 178 25 129 76 b 507 394 129 310 358 371 l 507 153 b 269 25 432 67 353 25 z m 154 840 l 349 967 l 543 840 l 556 853 l 361 1043 l 336 1043 l 142 853 z m 129 1146 l 147 1135 b 250 1210 179 1190 208 1210 b 429 1135 311 1210 357 1135 b 567 1257 469 1135 518 1153 l 549 1269 b 454 1199 517 1214 486 1199 b 267 1271 383 1199 339 1271 b 129 1146 226 1271 179 1251 z "},"ä":{"ha":707,"x_min":0,"x_max":0,"o":"m 235 -25 b 503 117 342 -25 421 28 l 506 117 l 506 113 b 592 -25 506 53 511 -25 b 690 19 625 -25 658 -10 l 676 36 b 631 15 663 22 646 15 b 581 182 586 15 581 69 l 581 492 b 354 719 581 678 483 719 b 74 582 185 719 74 632 b 114 543 74 557 88 543 b 356 696 197 543 185 696 b 507 492 464 696 507 632 l 507 419 b 47 135 333 392 47 324 b 235 -25 47 31 129 -25 z m 269 25 b 129 153 178 25 129 76 b 507 394 129 310 358 371 l 507 153 b 269 25 432 67 353 25 z m 214 875 b 274 939 249 875 274 903 b 214 1003 274 975 249 1003 b 154 939 179 1003 154 975 b 214 875 154 903 179 875 z m 483 875 b 543 939 518 875 543 903 b 483 1003 543 975 518 1003 b 424 939 449 1003 424 975 b 483 875 424 903 449 875 z "},"ȧ":{"ha":707,"x_min":0,"x_max":0,"o":"m 235 -25 b 503 117 342 -25 421 28 l 506 117 l 506 113 b 592 -25 506 53 511 -25 b 690 19 625 -25 658 -10 l 676 36 b 631 15 663 22 646 15 b 581 182 586 15 581 69 l 581 492 b 354 719 581 678 483 719 b 74 582 185 719 74 632 b 114 543 74 557 88 543 b 356 696 197 543 185 696 b 507 492 464 696 507 632 l 507 419 b 47 135 333 392 47 324 b 235 -25 47 31 129 -25 z m 269 25 b 129 153 178 25 129 76 b 507 394 129 310 358 371 l 507 153 b 269 25 432 67 353 25 z m 349 874 b 414 940 385 874 414 903 b 349 1007 414 978 385 1007 b 283 940 313 1007 283 978 b 349 874 283 903 313 874 z "},"ạ":{"ha":707,"x_min":0,"x_max":0,"o":"m 235 -25 b 503 117 342 -25 421 28 l 506 117 l 506 113 b 592 -25 506 53 511 -25 b 690 19 625 -25 658 -10 l 676 36 b 631 15 663 22 646 15 b 581 182 586 15 581 69 l 581 492 b 354 719 581 678 483 719 b 74 582 185 719 74 632 b 114 543 74 557 88 543 b 356 696 197 543 185 696 b 507 492 464 696 507 632 l 507 419 b 47 135 333 392 47 324 b 235 -25 47 31 129 -25 z m 269 25 b 129 153 178 25 129 76 b 507 394 129 310 358 371 l 507 153 b 269 25 432 67 353 25 z m 356 -303 b 421 -236 392 -303 421 -274 b 356 -169 421 -199 392 -169 b 290 -236 319 -169 290 -199 b 356 -303 290 -274 319 -303 z "},"à":{"ha":707,"x_min":0,"x_max":0,"o":"m 235 -25 b 503 117 342 -25 421 28 l 506 117 l 506 113 b 592 -25 506 53 511 -25 b 690 19 625 -25 658 -10 l 676 36 b 631 15 663 22 646 15 b 581 182 586 15 581 69 l 581 492 b 354 719 581 678 483 719 b 74 582 185 719 74 632 b 114 543 74 557 88 543 b 356 696 197 543 185 696 b 507 492 464 696 507 632 l 507 419 b 47 135 333 392 47 324 b 235 -25 47 31 129 -25 z m 269 25 b 129 153 178 25 129 76 b 507 394 129 310 358 371 l 507 153 b 269 25 432 67 353 25 z m 174 1007 l 390 815 l 404 829 l 229 1065 b 188 1090 217 1082 203 1090 b 149 1051 168 1090 149 1074 b 174 1007 149 1036 157 1022 z "},"ả":{"ha":707,"x_min":0,"x_max":0,"o":"m 235 -25 b 503 117 342 -25 421 28 l 506 117 l 506 113 b 592 -25 506 53 511 -25 b 690 19 625 -25 658 -10 l 676 36 b 631 15 663 22 646 15 b 581 182 586 15 581 69 l 581 492 b 354 719 581 678 483 719 b 74 582 185 719 74 632 b 114 543 74 557 88 543 b 356 696 197 543 185 696 b 507 492 464 696 507 632 l 507 419 b 47 135 333 392 47 324 b 235 -25 47 31 129 -25 z m 269 25 b 129 153 178 25 129 76 b 507 394 129 310 358 371 l 507 153 b 269 25 432 67 353 25 z m 324 826 l 344 826 b 444 988 358 897 444 913 b 349 1069 444 1043 397 1069 b 243 994 285 1069 243 1022 b 267 971 243 979 253 971 b 344 1049 308 971 296 1049 b 382 992 371 1049 382 1025 b 324 826 382 922 329 913 z "},"ɑ":{"ha":836,"x_min":0,"x_max":0,"o":"m 358 -25 b 628 101 479 -25 563 31 l 631 101 b 651 -12 632 60 638 10 l 811 39 l 804 63 b 704 172 725 39 704 50 l 704 508 b 729 697 704 604 713 651 l 708 707 b 650 658 690 678 676 658 b 407 719 613 658 556 719 b 50 329 210 719 50 586 b 358 -25 50 79 206 -25 z m 394 18 b 135 346 249 18 135 146 b 401 694 135 565 249 694 b 631 586 507 694 586 639 l 631 143 b 394 18 549 47 469 18 z "},"ā":{"ha":707,"x_min":0,"x_max":0,"o":"m 235 -25 b 503 117 342 -25 421 28 l 506 117 l 506 113 b 592 -25 506 53 511 -25 b 690 19 625 -25 658 -10 l 676 36 b 631 15 663 22 646 15 b 581 182 586 15 581 69 l 581 492 b 354 719 581 678 483 719 b 74 582 185 719 74 632 b 114 543 74 557 88 543 b 356 696 197 543 185 696 b 507 492 464 696 507 632 l 507 419 b 47 135 333 392 47 324 b 235 -25 47 31 129 -25 z m 269 25 b 129 153 178 25 129 76 b 507 394 129 310 358 371 l 507 153 b 269 25 432 67 353 25 z m 150 893 l 547 893 l 547 922 l 150 922 z "},"ą":{"ha":707,"x_min":0,"x_max":0,"o":"m 574 -364 b 726 -287 632 -364 681 -337 l 717 -276 b 608 -321 690 -300 654 -321 b 492 -203 549 -321 492 -287 b 644 -12 492 -129 536 -74 b 690 19 664 -1 676 7 l 676 36 b 631 15 663 22 646 15 b 581 182 586 15 581 69 l 581 492 b 354 719 581 678 483 719 b 74 582 185 719 74 632 b 114 543 74 557 88 543 b 356 696 197 543 185 696 b 507 492 464 696 507 632 l 507 419 b 47 135 333 392 47 324 b 235 -25 47 31 129 -25 b 503 117 342 -25 421 28 l 506 117 l 506 113 b 589 -25 506 54 511 -24 b 432 -231 501 -74 432 -146 b 574 -364 432 -307 488 -364 z m 269 25 b 129 153 178 25 129 76 b 507 394 129 310 358 371 l 507 153 b 269 25 432 67 353 25 z "},"å":{"ha":707,"x_min":0,"x_max":0,"o":"m 235 -25 b 503 117 342 -25 421 28 l 506 117 l 506 113 b 592 -25 506 53 511 -25 b 690 19 625 -25 658 -10 l 676 36 b 631 15 663 22 646 15 b 581 182 586 15 581 69 l 581 492 b 354 719 581 678 483 719 b 74 582 185 719 74 632 b 114 543 74 557 88 543 b 356 696 197 543 185 696 b 507 492 464 696 507 632 l 507 419 b 47 135 333 392 47 324 b 235 -25 47 31 129 -25 z m 269 25 b 129 153 178 25 129 76 b 507 394 129 310 358 371 l 507 153 b 269 25 432 67 353 25 z m 347 806 b 494 949 424 806 494 860 b 350 1086 494 1040 421 1086 b 203 943 274 1086 203 1032 b 347 806 203 851 276 806 z m 349 818 b 272 943 297 818 272 871 b 349 1074 272 1017 300 1074 b 425 949 400 1074 425 1021 b 349 818 425 875 399 818 z "},"ǻ":{"ha":707,"x_min":0,"x_max":0,"o":"m 235 -25 b 503 117 342 -25 421 28 l 506 117 l 506 113 b 592 -25 506 53 511 -25 b 690 19 625 -25 658 -10 l 676 36 b 631 15 663 22 646 15 b 581 182 586 15 581 69 l 581 492 b 354 719 581 678 483 719 b 74 582 185 719 74 632 b 114 543 74 557 88 543 b 356 696 197 543 185 696 b 507 492 464 696 507 632 l 507 419 b 47 135 333 392 47 324 b 235 -25 47 31 129 -25 z m 269 25 b 129 153 178 25 129 76 b 507 394 129 310 358 371 l 507 153 b 269 25 432 67 353 25 z m 350 775 b 497 918 426 775 497 829 b 353 1056 497 1010 424 1056 b 206 913 276 1056 206 1001 b 350 775 206 821 279 775 z m 351 788 b 275 913 300 788 275 840 b 351 1043 275 986 303 1043 b 428 918 403 1043 428 990 b 351 788 428 844 401 788 z m 308 1108 l 503 1282 b 526 1321 518 1294 526 1307 b 490 1357 526 1342 508 1357 b 453 1333 478 1357 465 1349 l 296 1121 z "},"ã":{"ha":707,"x_min":0,"x_max":0,"o":"m 235 -25 b 503 117 342 -25 421 28 l 506 117 l 506 113 b 592 -25 506 53 511 -25 b 690 19 625 -25 658 -10 l 676 36 b 631 15 663 22 646 15 b 581 182 586 15 581 69 l 581 492 b 354 719 581 678 483 719 b 74 582 185 719 74 632 b 114 543 74 557 88 543 b 356 696 197 543 185 696 b 507 492 464 696 507 632 l 507 419 b 47 135 333 392 47 324 b 235 -25 47 31 129 -25 z m 269 25 b 129 153 178 25 129 76 b 507 394 129 310 358 371 l 507 153 b 269 25 432 67 353 25 z m 129 854 l 147 843 b 250 918 179 899 208 918 b 429 843 311 918 357 843 b 567 965 469 843 518 861 l 549 978 b 454 907 517 922 486 907 b 267 979 383 907 339 979 b 129 854 226 979 179 960 z "},"æ":{"ha":1174,"x_min":0,"x_max":0,"o":"m 240 -25 b 521 149 353 -25 426 32 l 533 149 b 829 -25 585 40 683 -25 b 1160 181 985 -25 1079 50 l 1143 192 b 869 22 1082 97 993 24 b 574 360 692 21 574 165 b 578 424 574 381 575 403 l 999 424 b 1097 501 1085 424 1097 435 b 839 719 1097 619 1008 719 b 558 558 715 719 624 656 b 329 719 538 689 432 719 b 60 582 160 719 60 632 b 100 543 60 563 74 543 b 331 696 183 543 171 696 b 493 492 442 696 493 633 l 493 418 b 47 135 333 392 47 324 b 240 -25 47 31 126 -25 z m 269 29 b 132 153 181 29 132 82 b 493 396 132 310 358 371 l 493 339 b 518 188 493 283 503 233 b 269 29 431 71 351 29 z m 582 449 b 821 692 606 576 683 692 b 1013 499 942 692 1013 603 b 857 449 1013 454 990 449 z "},"ǽ":{"ha":1174,"x_min":0,"x_max":0,"o":"m 240 -25 b 521 149 353 -25 426 32 l 533 149 b 829 -25 585 40 683 -25 b 1160 181 985 -25 1079 50 l 1143 192 b 869 22 1082 97 993 24 b 574 360 692 21 574 165 b 578 424 574 381 575 403 l 999 424 b 1097 501 1085 424 1097 435 b 839 719 1097 619 1008 719 b 558 558 715 719 624 656 b 329 719 538 689 432 719 b 60 582 160 719 60 632 b 100 543 60 563 74 543 b 331 696 183 543 171 696 b 493 492 442 696 493 633 l 493 418 b 47 135 333 392 47 324 b 240 -25 47 31 126 -25 z m 269 29 b 132 153 181 29 132 82 b 493 396 132 310 358 371 l 493 339 b 518 188 493 283 503 233 b 269 29 431 71 351 29 z m 538 815 l 754 1007 b 779 1051 771 1022 779 1036 b 740 1090 779 1074 760 1090 b 699 1065 725 1090 711 1082 l 524 829 z m 582 449 b 821 692 606 576 683 692 b 1013 499 942 692 1013 603 b 857 449 1013 454 990 449 z "},"ǣ":{"ha":1174,"x_min":0,"x_max":0,"o":"m 240 -25 b 521 149 353 -25 426 32 l 533 149 b 829 -25 585 40 683 -25 b 1160 181 985 -25 1079 50 l 1143 192 b 869 22 1082 97 993 24 b 574 360 692 21 574 165 b 578 424 574 381 575 403 l 999 424 b 1097 501 1085 424 1097 435 b 839 719 1097 619 1008 719 b 558 558 715 719 624 656 b 329 719 538 689 432 719 b 60 582 160 719 60 632 b 100 543 60 563 74 543 b 331 696 183 543 171 696 b 493 492 442 696 493 633 l 493 418 b 47 135 333 392 47 324 b 240 -25 47 31 126 -25 z m 269 29 b 132 153 181 29 132 82 b 493 396 132 310 358 371 l 493 339 b 518 188 493 283 503 233 b 269 29 431 71 351 29 z m 386 893 l 783 893 l 783 922 l 386 922 z m 582 449 b 821 692 606 576 683 692 b 1013 499 942 692 1013 603 b 857 449 1013 454 990 449 z "},"b":{"ha":821,"x_min":0,"x_max":0,"o":"m 419 -25 b 771 364 608 -25 771 108 b 460 719 771 615 617 719 b 194 593 344 719 260 664 l 192 593 l 192 1119 l 165 1119 b 8 1025 144 1058 74 1025 l 8 1001 l 118 1001 l 118 186 b 93 -3 118 90 110 43 l 115 -12 b 182 38 133 17 151 38 b 419 -25 221 38 290 -25 z m 414 -1 b 192 113 324 -1 244 42 l 192 551 b 432 676 265 635 346 676 b 685 344 576 676 685 556 b 414 -1 685 135 576 -1 z "},"c":{"ha":731,"x_min":0,"x_max":0,"o":"m 397 -25 b 719 181 536 -25 639 47 l 703 192 b 424 22 642 97 551 22 b 133 365 253 22 133 157 b 383 692 133 561 238 692 b 610 561 531 692 529 561 b 653 600 638 561 653 576 b 415 719 653 656 544 719 b 50 331 214 719 50 563 b 397 -25 50 101 214 -25 z "},"ć":{"ha":731,"x_min":0,"x_max":0,"o":"m 397 -25 b 719 181 536 -25 639 47 l 703 192 b 424 22 642 97 551 22 b 133 365 253 22 133 157 b 383 692 133 561 238 692 b 610 561 531 692 529 561 b 653 600 638 561 653 576 b 415 719 653 656 544 719 b 50 331 214 719 50 563 b 397 -25 50 101 214 -25 z m 361 815 l 578 1007 b 603 1051 594 1022 603 1036 b 564 1090 603 1074 583 1090 b 522 1065 549 1090 535 1082 l 347 829 z "},"č":{"ha":731,"x_min":0,"x_max":0,"o":"m 397 -25 b 719 181 536 -25 639 47 l 703 192 b 424 22 642 97 551 22 b 133 365 253 22 133 157 b 383 692 133 561 238 692 b 610 561 531 692 529 561 b 653 600 638 561 653 576 b 415 719 653 656 544 719 b 50 331 214 719 50 563 b 397 -25 50 101 214 -25 z m 396 840 l 421 840 l 615 1031 l 603 1043 l 408 917 l 214 1043 l 201 1031 z "},"ç":{"ha":731,"x_min":0,"x_max":0,"o":"m 386 -372 b 531 -257 479 -372 531 -318 b 421 -128 531 -186 463 -149 b 397 -72 385 -110 379 -104 l 425 -24 b 719 181 550 -15 644 57 l 703 192 b 424 22 642 97 551 22 b 133 365 253 22 133 157 b 383 692 133 561 238 692 b 610 561 531 692 529 561 b 653 600 638 561 653 576 b 415 719 653 656 544 719 b 50 331 214 719 50 563 b 396 -25 50 103 213 -24 l 333 -133 b 343 -165 324 -150 326 -157 l 424 -208 b 472 -276 457 -226 472 -249 b 382 -347 472 -317 440 -347 b 254 -300 324 -347 276 -318 l 242 -319 b 386 -372 264 -339 313 -372 z "},"ĉ":{"ha":731,"x_min":0,"x_max":0,"o":"m 397 -25 b 719 181 536 -25 639 47 l 703 192 b 424 22 642 97 551 22 b 133 365 253 22 133 157 b 383 692 133 561 238 692 b 610 561 531 692 529 561 b 653 600 638 561 653 576 b 415 719 653 656 544 719 b 50 331 214 719 50 563 b 397 -25 50 101 214 -25 z m 214 840 l 408 967 l 603 840 l 615 853 l 421 1043 l 396 1043 l 201 853 z "},"ċ":{"ha":731,"x_min":0,"x_max":0,"o":"m 397 -25 b 719 181 536 -25 639 47 l 703 192 b 424 22 642 97 551 22 b 133 365 253 22 133 157 b 383 692 133 561 238 692 b 610 561 531 692 529 561 b 653 600 638 561 653 576 b 415 719 653 656 544 719 b 50 331 214 719 50 563 b 397 -25 50 101 214 -25 z m 408 874 b 474 940 444 874 474 903 b 408 1007 474 978 444 1007 b 343 940 372 1007 343 978 b 408 874 343 903 372 874 z "},"d":{"ha":836,"x_min":0,"x_max":0,"o":"m 360 -25 b 628 104 475 -25 561 29 l 631 104 b 651 -12 632 61 638 10 l 811 39 l 804 63 b 704 172 725 39 704 50 l 704 1119 l 678 1119 b 521 1025 657 1058 586 1025 l 521 1001 l 631 1001 l 631 657 b 410 719 563 701 486 719 b 50 335 211 719 50 594 b 360 -25 50 79 200 -25 z m 397 18 b 133 363 243 18 133 150 b 401 694 133 579 249 694 b 631 588 501 694 576 646 l 631 147 b 397 18 549 50 474 18 z "},"ď":{"ha":888,"x_min":0,"x_max":0,"o":"m 360 -25 b 628 104 475 -25 561 29 l 631 104 b 651 -12 632 61 638 10 l 811 39 l 804 63 b 704 172 725 39 704 50 l 704 1119 l 678 1119 b 521 1025 657 1058 586 1025 l 521 1001 l 631 1001 l 631 657 b 410 719 563 701 486 719 b 50 335 211 719 50 594 b 360 -25 50 79 200 -25 z m 397 18 b 133 363 243 18 133 150 b 401 694 133 579 249 694 b 631 588 501 694 576 646 l 631 147 b 397 18 549 50 474 18 z m 775 842 l 786 826 b 935 1047 910 921 935 986 b 879 1124 935 1094 913 1124 b 833 1079 850 1124 833 1103 b 892 986 833 1035 892 1035 b 775 842 892 957 867 914 z "},"đ":{"ha":836,"x_min":0,"x_max":0,"o":"m 360 -25 b 628 104 475 -25 561 29 l 631 104 b 651 -12 632 61 638 10 l 811 39 l 804 63 b 704 172 725 39 704 50 l 704 843 l 863 843 l 863 860 l 704 860 l 704 1119 l 678 1119 b 521 1025 657 1058 586 1025 l 521 1001 l 631 1001 l 631 860 l 344 860 l 344 843 l 631 843 l 631 657 b 410 719 563 701 486 719 b 50 335 211 719 50 594 b 360 -25 50 79 200 -25 z m 397 18 b 133 363 243 18 133 150 b 401 694 133 579 249 694 b 631 588 501 694 576 646 l 631 147 b 397 18 549 50 474 18 z "},"ḍ":{"ha":836,"x_min":0,"x_max":0,"o":"m 360 -25 b 628 104 475 -25 561 29 l 631 104 b 651 -12 632 61 638 10 l 811 39 l 804 63 b 704 172 725 39 704 50 l 704 1119 l 678 1119 b 521 1025 657 1058 586 1025 l 521 1001 l 631 1001 l 631 657 b 410 719 563 701 486 719 b 50 335 211 719 50 594 b 360 -25 50 79 200 -25 z m 397 18 b 133 363 243 18 133 150 b 401 694 133 579 249 694 b 631 588 501 694 576 646 l 631 147 b 397 18 549 50 474 18 z m 444 -303 b 510 -236 481 -303 510 -274 b 444 -169 510 -199 481 -169 b 379 -236 408 -169 379 -199 b 444 -303 379 -274 408 -303 z "},"ḏ":{"ha":836,"x_min":0,"x_max":0,"o":"m 360 -25 b 628 104 475 -25 561 29 l 631 104 b 651 -12 632 61 638 10 l 811 39 l 804 63 b 704 172 725 39 704 50 l 704 1119 l 678 1119 b 521 1025 657 1058 586 1025 l 521 1001 l 631 1001 l 631 657 b 410 719 563 701 486 719 b 50 335 211 719 50 594 b 360 -25 50 79 200 -25 z m 397 18 b 133 363 243 18 133 150 b 401 694 133 579 249 694 b 631 588 501 694 576 646 l 631 147 b 397 18 549 50 474 18 z m 246 -225 l 643 -225 l 643 -196 l 246 -196 z "},"ð":{"ha":794,"x_min":0,"x_max":0,"o":"m 396 -25 b 742 388 599 -25 742 132 b 415 979 742 636 601 846 l 601 1083 l 586 1111 l 388 999 b 140 1113 310 1050 225 1089 l 132 1092 b 350 978 211 1063 285 1024 l 157 869 l 171 842 l 378 958 b 618 625 489 872 574 760 b 393 719 569 681 494 719 b 47 342 201 719 47 582 b 396 -25 47 71 238 -25 z m 132 349 b 396 694 132 558 232 694 b 646 515 517 694 600 619 b 657 379 653 472 657 426 b 403 1 657 147 567 1 b 132 349 261 1 132 111 z "},"e":{"ha":733,"x_min":0,"x_max":0,"o":"m 394 -25 b 719 181 539 -25 639 49 l 703 192 b 426 22 642 97 551 22 b 135 358 251 22 135 168 b 139 424 135 379 136 401 l 558 424 b 660 499 647 424 660 435 b 400 719 660 628 556 719 b 50 335 203 719 50 571 b 394 -25 50 93 213 -25 z m 143 449 b 388 694 167 576 243 694 b 572 499 511 694 572 608 b 417 449 572 454 550 449 z "},"é":{"ha":733,"x_min":0,"x_max":0,"o":"m 394 -25 b 719 181 539 -25 639 49 l 703 192 b 426 22 642 97 551 22 b 135 358 251 22 135 168 b 139 424 135 379 136 401 l 558 424 b 660 499 647 424 660 435 b 400 719 660 628 556 719 b 50 335 203 719 50 571 b 394 -25 50 93 213 -25 z m 335 815 l 551 1007 b 576 1051 568 1022 576 1036 b 538 1090 576 1074 557 1090 b 496 1065 522 1090 508 1082 l 321 829 z m 143 449 b 388 694 167 576 243 694 b 572 499 511 694 572 608 b 417 449 572 454 550 449 z "},"ĕ":{"ha":733,"x_min":0,"x_max":0,"o":"m 394 -25 b 719 181 539 -25 639 49 l 703 192 b 426 22 642 97 551 22 b 135 358 251 22 135 168 b 139 424 135 379 136 401 l 558 424 b 660 499 647 424 660 435 b 400 719 660 628 556 719 b 50 335 203 719 50 571 b 394 -25 50 93 213 -25 z m 382 839 b 568 1021 514 839 561 956 l 551 1025 b 382 908 538 990 481 908 b 213 1025 283 908 226 990 l 196 1021 b 382 839 203 956 250 839 z m 143 449 b 388 694 167 576 243 694 b 572 499 511 694 572 608 b 417 449 572 454 550 449 z "},"ě":{"ha":733,"x_min":0,"x_max":0,"o":"m 394 -25 b 719 181 539 -25 639 49 l 703 192 b 426 22 642 97 551 22 b 135 358 251 22 135 168 b 139 424 135 379 136 401 l 558 424 b 660 499 647 424 660 435 b 400 719 660 628 556 719 b 50 335 203 719 50 571 b 394 -25 50 93 213 -25 z m 369 840 l 394 840 l 589 1031 l 576 1043 l 382 917 l 188 1043 l 175 1031 z m 143 449 b 388 694 167 576 243 694 b 572 499 511 694 572 608 b 417 449 572 454 550 449 z "},"ȩ":{"ha":733,"x_min":0,"x_max":0,"o":"m 382 -372 b 526 -257 475 -372 526 -318 b 417 -128 526 -186 458 -149 b 393 -72 381 -110 375 -104 l 421 -24 b 719 181 551 -15 644 57 l 703 192 b 426 22 642 97 551 22 b 135 358 251 22 135 168 b 139 424 135 379 136 401 l 558 424 b 660 499 647 424 660 435 b 400 719 660 628 556 719 b 50 335 203 719 50 571 b 392 -25 50 94 211 -24 l 329 -133 b 339 -165 319 -150 322 -157 l 419 -208 b 468 -276 453 -226 468 -249 b 378 -347 468 -317 436 -347 b 250 -300 319 -347 272 -318 l 238 -319 b 382 -372 260 -339 308 -372 z m 143 449 b 388 694 167 576 243 694 b 572 499 511 694 572 608 b 417 449 572 454 550 449 z "},"ê":{"ha":733,"x_min":0,"x_max":0,"o":"m 394 -25 b 719 181 539 -25 639 49 l 703 192 b 426 22 642 97 551 22 b 135 358 251 22 135 168 b 139 424 135 379 136 401 l 558 424 b 660 499 647 424 660 435 b 400 719 660 628 556 719 b 50 335 203 719 50 571 b 394 -25 50 93 213 -25 z m 188 840 l 382 967 l 576 840 l 589 853 l 394 1043 l 369 1043 l 175 853 z m 143 449 b 388 694 167 576 243 694 b 572 499 511 694 572 608 b 417 449 572 454 550 449 z "},"ế":{"ha":733,"x_min":0,"x_max":0,"o":"m 394 -25 b 719 181 539 -25 639 49 l 703 192 b 426 22 642 97 551 22 b 135 358 251 22 135 168 b 139 424 135 379 136 401 l 558 424 b 660 499 647 424 660 435 b 400 719 660 628 556 719 b 50 335 203 719 50 571 b 394 -25 50 93 213 -25 z m 188 840 l 382 967 l 576 840 l 589 853 l 394 1043 l 369 1043 l 175 853 z m 538 1021 l 715 1175 b 740 1218 733 1190 740 1203 b 704 1254 740 1239 722 1254 b 664 1229 689 1254 676 1246 l 524 1035 z m 143 449 b 388 694 167 576 243 694 b 572 499 511 694 572 608 b 417 449 572 454 550 449 z "},"ệ":{"ha":733,"x_min":0,"x_max":0,"o":"m 394 -25 b 719 181 539 -25 639 49 l 703 192 b 426 22 642 97 551 22 b 135 358 251 22 135 168 b 139 424 135 379 136 401 l 558 424 b 660 499 647 424 660 435 b 400 719 660 628 556 719 b 50 335 203 719 50 571 b 394 -25 50 93 213 -25 z m 414 -303 b 479 -236 450 -303 479 -274 b 414 -169 479 -199 450 -169 b 349 -236 378 -169 349 -199 b 414 -303 349 -274 378 -303 z m 188 840 l 382 967 l 576 840 l 589 853 l 394 1043 l 369 1043 l 175 853 z m 143 449 b 388 694 167 576 243 694 b 572 499 511 694 572 608 b 417 449 572 454 550 449 z "},"ề":{"ha":733,"x_min":0,"x_max":0,"o":"m 394 -25 b 719 181 539 -25 639 49 l 703 192 b 426 22 642 97 551 22 b 135 358 251 22 135 168 b 139 424 135 379 136 401 l 558 424 b 660 499 647 424 660 435 b 400 719 660 628 556 719 b 50 335 203 719 50 571 b 394 -25 50 93 213 -25 z m 188 840 l 382 967 l 576 840 l 589 853 l 394 1043 l 369 1043 l 175 853 z m 415 1175 l 593 1021 l 607 1035 l 467 1229 b 426 1254 454 1246 442 1254 b 390 1218 408 1254 390 1239 b 415 1175 390 1203 397 1190 z m 143 449 b 388 694 167 576 243 694 b 572 499 511 694 572 608 b 417 449 572 454 550 449 z "},"ể":{"ha":733,"x_min":0,"x_max":0,"o":"m 394 -25 b 719 181 539 -25 639 49 l 703 192 b 426 22 642 97 551 22 b 135 358 251 22 135 168 b 139 424 135 379 136 401 l 558 424 b 660 499 647 424 660 435 b 400 719 660 628 556 719 b 50 335 203 719 50 571 b 394 -25 50 93 213 -25 z m 188 840 l 382 967 l 576 840 l 589 853 l 394 1043 l 369 1043 l 175 853 z m 518 1032 l 539 1032 b 639 1193 553 1103 639 1118 b 544 1275 639 1249 592 1275 b 438 1200 479 1275 438 1228 b 461 1176 438 1185 447 1176 b 539 1254 503 1176 490 1254 b 576 1197 565 1254 576 1231 b 518 1032 576 1128 524 1118 z m 143 449 b 388 694 167 576 243 694 b 572 499 511 694 572 608 b 417 449 572 454 550 449 z "},"ễ":{"ha":733,"x_min":0,"x_max":0,"o":"m 394 -25 b 719 181 539 -25 639 49 l 703 192 b 426 22 642 97 551 22 b 135 358 251 22 135 168 b 139 424 135 379 136 401 l 558 424 b 660 499 647 424 660 435 b 400 719 660 628 556 719 b 50 335 203 719 50 571 b 394 -25 50 93 213 -25 z m 188 840 l 382 967 l 576 840 l 589 853 l 394 1043 l 369 1043 l 175 853 z m 163 1146 l 181 1135 b 283 1210 213 1190 242 1210 b 463 1135 344 1210 390 1135 b 600 1257 503 1135 551 1153 l 582 1269 b 488 1199 550 1214 519 1199 b 300 1271 417 1199 372 1271 b 163 1146 260 1271 213 1251 z m 143 449 b 388 694 167 576 243 694 b 572 499 511 694 572 608 b 417 449 572 454 550 449 z "},"ë":{"ha":733,"x_min":0,"x_max":0,"o":"m 394 -25 b 719 181 539 -25 639 49 l 703 192 b 426 22 642 97 551 22 b 135 358 251 22 135 168 b 139 424 135 379 136 401 l 558 424 b 660 499 647 424 660 435 b 400 719 660 628 556 719 b 50 335 203 719 50 571 b 394 -25 50 93 213 -25 z m 247 875 b 307 939 282 875 307 903 b 247 1003 307 975 282 1003 b 188 939 213 1003 188 975 b 247 875 188 903 213 875 z m 517 875 b 576 939 551 875 576 903 b 517 1003 576 975 551 1003 b 457 939 482 1003 457 975 b 517 875 457 903 482 875 z m 143 449 b 388 694 167 576 243 694 b 572 499 511 694 572 608 b 417 449 572 454 550 449 z "},"ė":{"ha":733,"x_min":0,"x_max":0,"o":"m 394 -25 b 719 181 539 -25 639 49 l 703 192 b 426 22 642 97 551 22 b 135 358 251 22 135 168 b 139 424 135 379 136 401 l 558 424 b 660 499 647 424 660 435 b 400 719 660 628 556 719 b 50 335 203 719 50 571 b 394 -25 50 93 213 -25 z m 382 874 b 447 940 418 874 447 903 b 382 1007 447 978 418 1007 b 317 940 346 1007 317 978 b 382 874 317 903 346 874 z m 143 449 b 388 694 167 576 243 694 b 572 499 511 694 572 608 b 417 449 572 454 550 449 z "},"ẹ":{"ha":733,"x_min":0,"x_max":0,"o":"m 394 -25 b 719 181 539 -25 639 49 l 703 192 b 426 22 642 97 551 22 b 135 358 251 22 135 168 b 139 424 135 379 136 401 l 558 424 b 660 499 647 424 660 435 b 400 719 660 628 556 719 b 50 335 203 719 50 571 b 394 -25 50 93 213 -25 z m 414 -303 b 479 -236 450 -303 479 -274 b 414 -169 479 -199 450 -169 b 349 -236 378 -169 349 -199 b 414 -303 349 -274 378 -303 z m 143 449 b 388 694 167 576 243 694 b 572 499 511 694 572 608 b 417 449 572 454 550 449 z "},"è":{"ha":733,"x_min":0,"x_max":0,"o":"m 394 -25 b 719 181 539 -25 639 49 l 703 192 b 426 22 642 97 551 22 b 135 358 251 22 135 168 b 139 424 135 379 136 401 l 558 424 b 660 499 647 424 660 435 b 400 719 660 628 556 719 b 50 335 203 719 50 571 b 394 -25 50 93 213 -25 z m 207 1007 l 424 815 l 438 829 l 263 1065 b 221 1090 250 1082 236 1090 b 182 1051 201 1090 182 1074 b 207 1007 182 1036 190 1022 z m 143 449 b 388 694 167 576 243 694 b 572 499 511 694 572 608 b 417 449 572 454 550 449 z "},"ẻ":{"ha":733,"x_min":0,"x_max":0,"o":"m 394 -25 b 719 181 539 -25 639 49 l 703 192 b 426 22 642 97 551 22 b 135 358 251 22 135 168 b 139 424 135 379 136 401 l 558 424 b 660 499 647 424 660 435 b 400 719 660 628 556 719 b 50 335 203 719 50 571 b 394 -25 50 93 213 -25 z m 357 826 l 378 826 b 478 988 392 897 478 913 b 382 1069 478 1043 431 1069 b 276 994 318 1069 276 1022 b 300 971 276 979 286 971 b 378 1049 342 971 329 1049 b 415 992 404 1049 415 1025 b 357 826 415 922 363 913 z m 143 449 b 388 694 167 576 243 694 b 572 499 511 694 572 608 b 417 449 572 454 550 449 z "},"ē":{"ha":733,"x_min":0,"x_max":0,"o":"m 394 -25 b 719 181 539 -25 639 49 l 703 192 b 426 22 642 97 551 22 b 135 358 251 22 135 168 b 139 424 135 379 136 401 l 558 424 b 660 499 647 424 660 435 b 400 719 660 628 556 719 b 50 335 203 719 50 571 b 394 -25 50 93 213 -25 z m 183 893 l 581 893 l 581 922 l 183 922 z m 143 449 b 388 694 167 576 243 694 b 572 499 511 694 572 608 b 417 449 572 454 550 449 z "},"ę":{"ha":733,"x_min":0,"x_max":0,"o":"m 394 -25 b 458 -19 417 -25 439 -24 b 319 -228 381 -69 319 -144 b 461 -364 319 -307 375 -364 b 614 -287 519 -364 568 -337 l 604 -276 b 496 -321 578 -300 542 -321 b 379 -201 436 -321 379 -287 b 524 -1 379 -125 422 -62 b 719 181 603 31 665 92 l 703 192 b 426 22 642 97 551 22 b 135 358 251 22 135 168 b 139 424 135 379 136 401 l 558 424 b 660 499 647 424 660 435 b 400 719 660 628 556 719 b 50 335 203 719 50 571 b 394 -25 50 93 213 -25 z m 143 449 b 388 694 167 576 243 694 b 572 499 511 694 572 608 b 417 449 572 454 550 449 z "},"ẽ":{"ha":733,"x_min":0,"x_max":0,"o":"m 394 -25 b 719 181 539 -25 639 49 l 703 192 b 426 22 642 97 551 22 b 135 358 251 22 135 168 b 139 424 135 379 136 401 l 558 424 b 660 499 647 424 660 435 b 400 719 660 628 556 719 b 50 335 203 719 50 571 b 394 -25 50 93 213 -25 z m 163 854 l 181 843 b 283 918 213 899 242 918 b 463 843 344 918 390 843 b 600 965 503 843 551 861 l 582 978 b 488 907 550 922 519 907 b 300 979 417 907 372 979 b 163 854 260 979 213 960 z m 143 449 b 388 694 167 576 243 694 b 572 499 511 694 572 608 b 417 449 572 454 550 449 z "},"ə":{"ha":733,"x_min":0,"x_max":0,"o":"m 339 719 b 14 514 194 719 94 646 l 31 503 b 307 672 92 597 182 672 b 599 336 482 672 599 526 b 594 271 599 315 597 293 l 175 271 b 74 196 86 271 74 260 b 333 -25 74 67 178 -25 b 683 360 531 -25 683 124 b 339 719 683 601 521 719 z m 161 196 b 317 246 161 240 183 246 l 590 246 b 346 0 567 118 490 0 b 161 196 222 0 161 86 z "},"f":{"ha":431,"x_min":0,"x_max":0,"o":"m 44 24 l 44 0 l 365 0 l 365 24 l 343 24 b 228 201 244 24 228 40 l 228 663 l 413 663 l 413 694 l 228 694 l 228 978 b 332 1103 228 1065 276 1103 b 497 1017 413 1103 443 1017 b 536 1054 521 1017 536 1033 b 389 1136 536 1097 472 1136 b 160 892 272 1136 160 1063 l 160 800 b 44 688 160 700 129 688 l 44 663 l 154 663 l 154 201 b 44 24 154 40 129 24 z "},"g":{"ha":736,"x_min":0,"x_max":0,"o":"m 342 -372 b 725 -78 572 -372 725 -236 b 474 99 725 40 639 96 l 311 101 b 133 165 153 104 133 139 b 247 236 133 204 176 229 b 350 222 281 226 315 222 b 650 468 510 222 650 308 b 475 696 650 607 550 665 l 475 706 b 660 682 542 706 603 682 b 717 729 703 682 717 704 b 675 769 717 751 706 769 b 368 719 628 769 553 719 b 64 463 192 719 64 613 b 213 249 64 358 124 285 b 64 139 108 233 64 189 b 194 42 64 78 128 51 b 25 -160 89 1 25 -71 b 342 -372 25 -293 168 -372 z m 353 -350 b 108 -147 219 -350 108 -287 b 222 39 108 -61 150 0 b 308 35 254 36 285 35 l 467 31 b 663 -112 604 26 663 -28 b 353 -350 663 -239 532 -350 z m 350 244 b 149 463 226 244 149 328 b 358 697 149 575 203 697 b 565 472 501 697 565 592 b 350 244 565 333 475 244 z "},"ğ":{"ha":736,"x_min":0,"x_max":0,"o":"m 342 -372 b 725 -78 572 -372 725 -236 b 474 99 725 40 639 96 l 311 101 b 133 165 153 104 133 139 b 247 236 133 204 176 229 b 350 222 281 226 315 222 b 650 468 510 222 650 308 b 475 696 650 607 550 665 l 475 706 b 660 682 542 706 603 682 b 717 729 703 682 717 704 b 675 769 717 751 706 769 b 368 719 628 769 553 719 b 64 463 192 719 64 613 b 213 249 64 358 124 285 b 64 139 108 233 64 189 b 194 42 64 78 128 51 b 25 -160 89 1 25 -71 b 342 -372 25 -293 168 -372 z m 353 -350 b 108 -147 219 -350 108 -287 b 222 39 108 -61 150 0 b 308 35 254 36 285 35 l 467 31 b 663 -112 604 26 663 -28 b 353 -350 663 -239 532 -350 z m 350 244 b 149 463 226 244 149 328 b 358 697 149 575 203 697 b 565 472 501 697 565 592 b 350 244 565 333 475 244 z m 365 839 b 551 1021 497 839 544 956 l 535 1025 b 365 908 521 990 464 908 b 196 1025 267 908 210 990 l 179 1021 b 365 839 186 956 233 839 z "},"ǧ":{"ha":736,"x_min":0,"x_max":0,"o":"m 342 -372 b 725 -78 572 -372 725 -236 b 474 99 725 40 639 96 l 311 101 b 133 165 153 104 133 139 b 247 236 133 204 176 229 b 350 222 281 226 315 222 b 650 468 510 222 650 308 b 475 696 650 607 550 665 l 475 706 b 660 682 542 706 603 682 b 717 729 703 682 717 704 b 675 769 717 751 706 769 b 368 719 628 769 553 719 b 64 463 192 719 64 613 b 213 249 64 358 124 285 b 64 139 108 233 64 189 b 194 42 64 78 128 51 b 25 -160 89 1 25 -71 b 342 -372 25 -293 168 -372 z m 353 -350 b 108 -147 219 -350 108 -287 b 222 39 108 -61 150 0 b 308 35 254 36 285 35 l 467 31 b 663 -112 604 26 663 -28 b 353 -350 663 -239 532 -350 z m 350 244 b 149 463 226 244 149 328 b 358 697 149 575 203 697 b 565 472 501 697 565 592 b 350 244 565 333 475 244 z m 353 840 l 378 840 l 572 1031 l 560 1043 l 365 917 l 171 1043 l 158 1031 z "},"ĝ":{"ha":736,"x_min":0,"x_max":0,"o":"m 342 -372 b 725 -78 572 -372 725 -236 b 474 99 725 40 639 96 l 311 101 b 133 165 153 104 133 139 b 247 236 133 204 176 229 b 350 222 281 226 315 222 b 650 468 510 222 650 308 b 475 696 650 607 550 665 l 475 706 b 660 682 542 706 603 682 b 717 729 703 682 717 704 b 675 769 717 751 706 769 b 368 719 628 769 553 719 b 64 463 192 719 64 613 b 213 249 64 358 124 285 b 64 139 108 233 64 189 b 194 42 64 78 128 51 b 25 -160 89 1 25 -71 b 342 -372 25 -293 168 -372 z m 353 -350 b 108 -147 219 -350 108 -287 b 222 39 108 -61 150 0 b 308 35 254 36 285 35 l 467 31 b 663 -112 604 26 663 -28 b 353 -350 663 -239 532 -350 z m 350 244 b 149 463 226 244 149 328 b 358 697 149 575 203 697 b 565 472 501 697 565 592 b 350 244 565 333 475 244 z m 171 840 l 365 967 l 560 840 l 572 853 l 378 1043 l 353 1043 l 158 853 z "},"ģ":{"ha":736,"x_min":0,"x_max":0,"o":"m 342 -372 b 725 -78 572 -372 725 -236 b 474 99 725 40 639 96 l 311 101 b 133 165 153 104 133 139 b 247 236 133 204 176 229 b 350 222 281 226 315 222 b 650 468 510 222 650 308 b 475 696 650 607 550 665 l 475 706 b 660 682 542 706 603 682 b 717 729 703 682 717 704 b 675 769 717 751 706 769 b 368 719 628 769 553 719 b 64 463 192 719 64 613 b 213 249 64 358 124 285 b 64 139 108 233 64 189 b 194 42 64 78 128 51 b 25 -160 89 1 25 -71 b 342 -372 25 -293 168 -372 z m 353 -350 b 108 -147 219 -350 108 -287 b 222 39 108 -61 150 0 b 308 35 254 36 285 35 l 467 31 b 663 -112 604 26 663 -28 b 353 -350 663 -239 532 -350 z m 350 244 b 149 463 226 244 149 328 b 358 697 149 575 203 697 b 565 472 501 697 565 592 b 350 244 565 333 475 244 z m 329 818 b 375 863 358 818 375 839 b 317 956 375 907 317 907 b 433 1100 317 985 342 1028 l 422 1115 b 274 894 299 1021 274 956 b 329 818 274 847 296 818 z "},"ġ":{"ha":736,"x_min":0,"x_max":0,"o":"m 342 -372 b 725 -78 572 -372 725 -236 b 474 99 725 40 639 96 l 311 101 b 133 165 153 104 133 139 b 247 236 133 204 176 229 b 350 222 281 226 315 222 b 650 468 510 222 650 308 b 475 696 650 607 550 665 l 475 706 b 660 682 542 706 603 682 b 717 729 703 682 717 704 b 675 769 717 751 706 769 b 368 719 628 769 553 719 b 64 463 192 719 64 613 b 213 249 64 358 124 285 b 64 139 108 233 64 189 b 194 42 64 78 128 51 b 25 -160 89 1 25 -71 b 342 -372 25 -293 168 -372 z m 353 -350 b 108 -147 219 -350 108 -287 b 222 39 108 -61 150 0 b 308 35 254 36 285 35 l 467 31 b 663 -112 604 26 663 -28 b 353 -350 663 -239 532 -350 z m 350 244 b 149 463 226 244 149 328 b 358 697 149 575 203 697 b 565 472 501 697 565 592 b 350 244 565 333 475 244 z m 365 874 b 431 940 401 874 431 903 b 365 1007 431 978 401 1007 b 300 940 329 1007 300 978 b 365 874 300 903 329 874 z "},"ḡ":{"ha":736,"x_min":0,"x_max":0,"o":"m 342 -372 b 725 -78 572 -372 725 -236 b 474 99 725 40 639 96 l 311 101 b 133 165 153 104 133 139 b 247 236 133 204 176 229 b 350 222 281 226 315 222 b 650 468 510 222 650 308 b 475 696 650 607 550 665 l 475 706 b 660 682 542 706 603 682 b 717 729 703 682 717 704 b 675 769 717 751 706 769 b 368 719 628 769 553 719 b 64 463 192 719 64 613 b 213 249 64 358 124 285 b 64 139 108 233 64 189 b 194 42 64 78 128 51 b 25 -160 89 1 25 -71 b 342 -372 25 -293 168 -372 z m 353 -350 b 108 -147 219 -350 108 -287 b 222 39 108 -61 150 0 b 308 35 254 36 285 35 l 467 31 b 663 -112 604 26 663 -28 b 353 -350 663 -239 532 -350 z m 350 244 b 149 463 226 244 149 328 b 358 697 149 575 203 697 b 565 472 501 697 565 592 b 350 244 565 333 475 244 z m 167 893 l 564 893 l 564 922 l 167 922 z "},"ɡ":{"ha":819,"x_min":0,"x_max":0,"o":"m 372 -372 b 704 -96 569 -372 704 -250 l 704 508 b 729 697 704 604 713 651 l 708 707 b 650 658 690 678 676 658 b 407 719 613 658 556 719 b 50 329 210 719 50 586 b 358 -25 50 79 206 -25 b 628 101 479 -25 563 31 l 631 101 l 631 -100 b 386 -347 631 -250 535 -347 b 136 -186 197 -347 214 -186 b 89 -235 108 -186 89 -206 b 372 -372 89 -310 226 -372 z m 394 18 b 135 346 249 18 135 146 b 401 694 135 565 249 694 b 631 586 507 694 586 639 l 631 143 b 394 18 549 47 469 18 z "},"h":{"ha":839,"x_min":0,"x_max":0,"o":"m 25 24 l 25 0 l 318 0 l 318 24 b 208 201 222 24 208 40 l 208 551 b 468 669 285 624 386 669 b 639 465 578 669 639 597 l 639 201 b 529 24 639 40 613 24 l 529 0 l 822 0 l 822 24 b 713 201 726 24 713 40 l 713 465 b 501 719 713 654 621 719 b 208 583 396 719 278 651 l 208 1119 l 182 1119 b 25 1025 160 1058 90 1025 l 25 1000 l 135 1000 l 135 201 b 25 24 135 40 108 24 z "},"ħ":{"ha":839,"x_min":0,"x_max":0,"o":"m 25 24 l 25 0 l 318 0 l 318 24 b 208 201 222 24 208 40 l 208 551 b 468 669 285 624 386 669 b 639 465 578 669 639 597 l 639 201 b 529 24 639 40 613 24 l 529 0 l 822 0 l 822 24 b 713 201 726 24 713 40 l 713 465 b 501 719 713 654 621 719 b 208 583 396 719 278 651 l 208 843 l 456 843 l 456 860 l 208 860 l 208 1119 l 182 1119 b 25 1025 160 1058 90 1025 l 25 1000 l 135 1000 l 135 860 l -24 860 l -24 843 l 135 843 l 135 201 b 25 24 135 40 108 24 z "},"ḫ":{"ha":839,"x_min":0,"x_max":0,"o":"m 25 24 l 25 0 l 318 0 l 318 24 b 208 201 222 24 208 40 l 208 551 b 468 669 285 624 386 669 b 639 465 578 669 639 597 l 639 201 b 529 24 639 40 613 24 l 529 0 l 822 0 l 822 24 b 713 201 726 24 713 40 l 713 465 b 501 719 713 654 621 719 b 208 583 396 719 278 651 l 208 1119 l 182 1119 b 25 1025 160 1058 90 1025 l 25 1000 l 135 1000 l 135 201 b 25 24 135 40 108 24 z m 425 -306 b 611 -124 557 -306 604 -189 l 594 -119 b 425 -236 581 -154 524 -236 b 256 -119 326 -236 269 -154 l 239 -124 b 425 -306 246 -189 293 -306 z "},"ĥ":{"ha":839,"x_min":0,"x_max":0,"o":"m 25 24 l 25 0 l 318 0 l 318 24 b 208 201 222 24 208 40 l 208 551 b 468 669 285 624 386 669 b 639 465 578 669 639 597 l 639 201 b 529 24 639 40 613 24 l 529 0 l 822 0 l 822 24 b 713 201 726 24 713 40 l 713 465 b 501 719 713 654 621 719 b 208 583 396 719 278 651 l 208 1119 l 182 1119 b 25 1025 160 1058 90 1025 l 25 1000 l 135 1000 l 135 201 b 25 24 135 40 108 24 z m -24 1190 l 171 1317 l 365 1190 l 378 1203 l 183 1393 l 158 1393 l -36 1203 z "},"ḥ":{"ha":839,"x_min":0,"x_max":0,"o":"m 25 24 l 25 0 l 318 0 l 318 24 b 208 201 222 24 208 40 l 208 551 b 468 669 285 624 386 669 b 639 465 578 669 639 597 l 639 201 b 529 24 639 40 613 24 l 529 0 l 822 0 l 822 24 b 713 201 726 24 713 40 l 713 465 b 501 719 713 654 621 719 b 208 583 396 719 278 651 l 208 1119 l 182 1119 b 25 1025 160 1058 90 1025 l 25 1000 l 135 1000 l 135 201 b 25 24 135 40 108 24 z m 425 -303 b 490 -236 461 -303 490 -274 b 425 -169 490 -199 461 -169 b 360 -236 389 -169 360 -199 b 425 -303 360 -274 389 -303 z "},"i":{"ha":357,"x_min":0,"x_max":0,"o":"m 39 24 l 39 0 l 332 0 l 332 24 b 222 201 224 24 222 40 l 222 719 l 196 719 b 39 625 174 658 103 625 l 39 600 l 149 600 l 149 201 b 39 24 149 40 122 24 z m 189 874 b 254 940 225 874 254 903 b 189 1007 254 978 225 1007 b 124 940 153 1007 124 978 b 189 874 124 903 153 874 z "},"ı":{"ha":357,"x_min":0,"x_max":0,"o":"m 39 24 l 39 0 l 332 0 l 332 24 b 222 201 224 24 222 40 l 222 719 l 196 719 b 39 625 174 658 103 625 l 39 600 l 149 600 l 149 201 b 39 24 149 40 122 24 z "},"í":{"ha":357,"x_min":0,"x_max":0,"o":"m 39 24 l 39 0 l 332 0 l 332 24 b 222 201 224 24 222 40 l 222 719 l 196 719 b 39 625 174 658 103 625 l 39 600 l 149 600 l 149 201 b 39 24 149 40 122 24 z m 138 815 l 354 1007 b 379 1051 371 1022 379 1036 b 340 1090 379 1074 360 1090 b 299 1065 325 1090 311 1082 l 124 829 z "},"ĭ":{"ha":357,"x_min":0,"x_max":0,"o":"m 39 24 l 39 0 l 332 0 l 332 24 b 222 201 224 24 222 40 l 222 719 l 196 719 b 39 625 174 658 103 625 l 39 600 l 149 600 l 149 201 b 39 24 149 40 122 24 z m 185 839 b 329 1021 288 839 324 942 l 311 1024 b 185 908 299 971 260 908 b 58 1024 110 908 71 971 l 40 1021 b 185 839 46 942 82 839 z "},"ǐ":{"ha":357,"x_min":0,"x_max":0,"o":"m 39 24 l 39 0 l 332 0 l 332 24 b 222 201 224 24 222 40 l 222 719 l 196 719 b 39 625 174 658 103 625 l 39 600 l 149 600 l 149 201 b 39 24 149 40 122 24 z m 169 840 l 200 840 l 350 1031 l 336 1043 l 185 918 l 33 1043 l 19 1031 z "},"î":{"ha":357,"x_min":0,"x_max":0,"o":"m 39 24 l 39 0 l 332 0 l 332 24 b 222 201 224 24 222 40 l 222 719 l 196 719 b 39 625 174 658 103 625 l 39 600 l 149 600 l 149 201 b 39 24 149 40 122 24 z m 33 840 l 185 965 l 336 840 l 350 853 l 200 1043 l 169 1043 l 19 853 z "},"ï":{"ha":357,"x_min":0,"x_max":0,"o":"m 39 24 l 39 0 l 332 0 l 332 24 b 222 201 224 24 222 40 l 222 719 l 196 719 b 39 625 174 658 103 625 l 39 600 l 149 600 l 149 201 b 39 24 149 40 122 24 z m 76 875 b 136 939 111 875 136 903 b 76 1003 136 975 111 1003 b 17 939 42 1003 17 975 b 76 875 17 903 42 875 z m 293 875 b 353 939 328 875 353 903 b 293 1003 353 975 328 1003 b 233 939 258 1003 233 975 b 293 875 233 903 258 875 z "},"ị":{"ha":357,"x_min":0,"x_max":0,"o":"m 39 24 l 39 0 l 332 0 l 332 24 b 222 201 224 24 222 40 l 222 719 l 196 719 b 39 625 174 658 103 625 l 39 600 l 149 600 l 149 201 b 39 24 149 40 122 24 z m 189 874 b 254 940 225 874 254 903 b 189 1007 254 978 225 1007 b 124 940 153 1007 124 978 b 189 874 124 903 153 874 z m 185 -303 b 250 -236 221 -303 250 -274 b 185 -169 250 -199 221 -169 b 119 -236 149 -169 119 -199 b 185 -303 119 -274 149 -303 z "},"ì":{"ha":357,"x_min":0,"x_max":0,"o":"m 39 24 l 39 0 l 332 0 l 332 24 b 222 201 224 24 222 40 l 222 719 l 196 719 b 39 625 174 658 103 625 l 39 600 l 149 600 l 149 201 b 39 24 149 40 122 24 z m 10 1007 l 226 815 l 240 829 l 65 1065 b 24 1090 53 1082 39 1090 b -15 1051 4 1090 -15 1074 b 10 1007 -15 1036 -7 1022 z "},"ỉ":{"ha":357,"x_min":0,"x_max":0,"o":"m 39 24 l 39 0 l 332 0 l 332 24 b 222 201 224 24 222 40 l 222 719 l 196 719 b 39 625 174 658 103 625 l 39 600 l 149 600 l 149 201 b 39 24 149 40 122 24 z m 160 826 l 181 826 b 281 988 194 897 281 913 b 185 1069 281 1043 233 1069 b 79 994 121 1069 79 1022 b 103 971 79 979 89 971 b 181 1049 144 971 132 1049 b 218 992 207 1049 218 1025 b 160 826 218 922 165 913 z "},"ī":{"ha":357,"x_min":0,"x_max":0,"o":"m 39 24 l 39 0 l 332 0 l 332 24 b 222 201 224 24 222 40 l 222 719 l 196 719 b 39 625 174 658 103 625 l 39 600 l 149 600 l 149 201 b 39 24 149 40 122 24 z m 33 893 l 336 893 l 336 922 l 33 922 z "},"į":{"ha":357,"x_min":0,"x_max":0,"o":"m 221 -364 b 374 -287 279 -364 328 -337 l 364 -276 b 256 -321 338 -300 301 -321 b 139 -201 196 -321 139 -287 b 332 0 139 -85 242 0 l 332 24 b 222 201 224 24 222 40 l 222 719 l 196 719 b 39 625 174 658 103 625 l 39 600 l 149 600 l 149 201 b 39 24 149 40 122 24 l 39 0 l 240 0 b 79 -226 156 -44 79 -133 b 221 -364 79 -307 135 -364 z m 189 874 b 254 940 225 874 254 903 b 189 1007 254 978 225 1007 b 124 940 153 1007 124 978 b 189 874 124 903 153 874 z "},"ĩ":{"ha":357,"x_min":0,"x_max":0,"o":"m 39 24 l 39 0 l 332 0 l 332 24 b 222 201 224 24 222 40 l 222 719 l 196 719 b 39 625 174 658 103 625 l 39 600 l 149 600 l 149 201 b 39 24 149 40 122 24 z m 18 863 l 36 851 b 114 911 60 894 82 911 b 242 854 156 911 188 854 b 350 957 271 854 310 867 l 332 969 b 263 914 308 926 286 914 b 126 968 213 914 182 968 b 18 863 97 968 58 954 z "},"ĳ":{"ha":656,"x_min":0,"x_max":0,"o":"m 39 24 l 39 0 l 332 0 l 332 24 b 222 201 224 24 222 40 l 222 719 l 196 719 b 39 625 174 658 103 625 l 39 600 l 149 600 l 149 201 b 39 24 149 40 122 24 z m 189 874 b 254 940 225 874 254 903 b 189 1007 254 978 225 1007 b 124 940 153 1007 124 978 b 189 874 124 903 153 874 z m 333 -358 b 558 -51 475 -358 558 -217 l 558 719 l 532 719 b 375 625 511 658 440 625 l 375 600 l 485 600 l 485 -54 b 411 -306 485 -207 464 -306 b 299 -261 372 -306 338 -261 b 253 -304 274 -261 253 -278 b 333 -358 253 -328 269 -358 z m 525 874 b 590 940 561 874 590 903 b 525 1007 590 978 561 1007 b 460 940 489 1007 460 978 b 525 874 460 903 489 874 z "},"j":{"ha":308,"x_min":0,"x_max":0,"o":"m -14 -358 b 211 -51 128 -358 211 -217 l 211 719 l 185 719 b 28 625 164 658 93 625 l 28 600 l 138 600 l 138 -54 b 64 -306 138 -207 117 -306 b -49 -261 25 -306 -10 -261 b -94 -304 -74 -261 -94 -278 b -14 -358 -94 -328 -78 -358 z m 178 874 b 243 940 214 874 243 903 b 178 1007 243 978 214 1007 b 113 940 142 1007 113 978 b 178 874 113 903 142 874 z "},"ȷ":{"ha":308,"x_min":0,"x_max":0,"o":"m -14 -358 b 211 -51 128 -358 211 -217 l 211 719 l 185 719 b 28 625 164 658 93 625 l 28 600 l 138 600 l 138 -54 b 64 -306 138 -207 117 -306 b -49 -261 25 -306 -10 -261 b -94 -304 -74 -261 -94 -278 b -14 -358 -94 -328 -78 -358 z "},"ĵ":{"ha":308,"x_min":0,"x_max":0,"o":"m -14 -358 b 211 -51 128 -358 211 -217 l 211 719 l 185 719 b 28 625 164 658 93 625 l 28 600 l 138 600 l 138 -54 b 64 -306 138 -207 117 -306 b -49 -261 25 -306 -10 -261 b -94 -304 -74 -261 -94 -278 b -14 -358 -94 -328 -78 -358 z m 22 840 l 174 965 l 325 840 l 339 853 l 189 1043 l 158 1043 l 8 853 z "},"k":{"ha":744,"x_min":0,"x_max":0,"o":"m 25 24 l 25 0 l 318 0 l 318 24 b 208 201 222 24 208 40 l 208 283 l 321 399 l 451 206 b 586 0 524 100 557 47 l 753 0 l 753 24 b 569 158 667 24 624 76 l 372 451 l 447 528 b 696 676 554 638 619 676 l 696 694 l 419 694 l 419 676 b 431 553 514 676 514 638 l 208 325 l 208 1119 l 182 1119 b 25 1025 161 1058 90 1025 l 25 1003 l 135 1003 l 135 201 b 25 24 135 40 110 24 z "},"ǩ":{"ha":744,"x_min":0,"x_max":0,"o":"m 25 24 l 25 0 l 318 0 l 318 24 b 208 201 222 24 208 40 l 208 283 l 321 399 l 451 206 b 586 0 524 100 557 47 l 753 0 l 753 24 b 569 158 667 24 624 76 l 372 451 l 447 528 b 696 676 554 638 619 676 l 696 694 l 419 694 l 419 676 b 431 553 514 676 514 638 l 208 325 l 208 1119 l 182 1119 b 25 1025 161 1058 90 1025 l 25 1003 l 135 1003 l 135 201 b 25 24 135 40 110 24 z m 160 1190 l 185 1190 l 379 1381 l 367 1393 l 172 1267 l -22 1393 l -35 1381 z "},"ķ":{"ha":744,"x_min":0,"x_max":0,"o":"m 25 24 l 25 0 l 318 0 l 318 24 b 208 201 222 24 208 40 l 208 283 l 321 399 l 451 206 b 586 0 524 100 557 47 l 753 0 l 753 24 b 569 158 667 24 624 76 l 372 451 l 447 528 b 696 676 554 638 619 676 l 696 694 l 419 694 l 419 676 b 431 553 514 676 514 638 l 208 325 l 208 1119 l 182 1119 b 25 1025 161 1058 90 1025 l 25 1003 l 135 1003 l 135 201 b 25 24 135 40 110 24 z m 313 -383 l 324 -399 b 472 -178 447 -304 472 -239 b 417 -101 472 -131 450 -101 b 371 -147 388 -101 371 -124 b 429 -239 371 -192 429 -189 b 313 -383 429 -268 404 -311 z "},"ĸ":{"ha":758,"x_min":0,"x_max":0,"o":"m 39 24 l 39 0 l 332 0 l 332 24 b 222 201 236 24 222 40 l 222 283 l 335 399 l 465 206 b 600 0 538 100 571 47 l 767 0 l 767 24 b 583 158 681 24 638 76 l 386 451 l 461 528 b 710 676 568 638 633 676 l 710 694 l 433 694 l 433 676 b 444 553 528 676 528 638 l 222 325 l 222 719 l 196 719 b 39 625 175 658 104 625 l 39 601 l 149 601 l 149 201 b 39 24 149 40 124 24 z "},"l":{"ha":343,"x_min":0,"x_max":0,"o":"m 25 24 l 25 0 l 318 0 l 318 24 b 208 201 222 24 208 40 l 208 1119 l 182 1119 b 25 1025 160 1058 90 1025 l 25 1001 l 135 1001 l 135 201 b 25 24 135 40 108 24 z "},"ĺ":{"ha":343,"x_min":0,"x_max":0,"o":"m 25 24 l 25 0 l 318 0 l 318 24 b 208 201 222 24 208 40 l 208 1119 l 182 1119 b 25 1025 160 1058 90 1025 l 25 1001 l 135 1001 l 135 201 b 25 24 135 40 108 24 z m 125 1165 l 342 1357 b 367 1401 358 1372 367 1386 b 328 1440 367 1424 347 1440 b 286 1415 313 1440 299 1432 l 111 1179 z "},"ľ":{"ha":392,"x_min":0,"x_max":0,"o":"m 25 24 l 25 0 l 318 0 l 318 24 b 208 201 222 24 208 40 l 208 1119 l 182 1119 b 25 1025 160 1058 90 1025 l 25 1001 l 135 1001 l 135 201 b 25 24 135 40 108 24 z m 279 842 l 290 826 b 439 1047 414 921 439 986 b 383 1124 439 1094 417 1124 b 338 1079 354 1124 338 1103 b 396 986 338 1035 396 1035 b 279 842 396 957 371 914 z "},"ļ":{"ha":343,"x_min":0,"x_max":0,"o":"m 25 24 l 25 0 l 318 0 l 318 24 b 208 201 222 24 208 40 l 208 1119 l 182 1119 b 25 1025 160 1058 90 1025 l 25 1001 l 135 1001 l 135 201 b 25 24 135 40 108 24 z m 69 -383 l 81 -399 b 229 -178 204 -304 229 -239 b 174 -101 229 -131 207 -101 b 128 -147 144 -101 128 -124 b 186 -239 128 -192 186 -189 b 69 -383 186 -268 161 -311 z "},"ŀ":{"ha":451,"x_min":0,"x_max":0,"o":"m 25 24 l 25 0 l 318 0 l 318 24 b 208 201 222 24 208 40 l 208 1119 l 182 1119 b 25 1025 160 1058 90 1025 l 25 1001 l 135 1001 l 135 201 b 25 24 135 40 108 24 z m 394 488 b 468 561 436 488 468 521 b 394 635 468 601 436 635 b 321 561 353 635 321 601 b 394 488 321 521 353 488 z "},"ḷ":{"ha":343,"x_min":0,"x_max":0,"o":"m 25 24 l 25 0 l 318 0 l 318 24 b 208 201 222 24 208 40 l 208 1119 l 182 1119 b 25 1025 160 1058 90 1025 l 25 1001 l 135 1001 l 135 201 b 25 24 135 40 108 24 z m 172 -303 b 238 -236 208 -303 238 -274 b 172 -169 238 -199 208 -169 b 107 -236 136 -169 107 -199 b 172 -303 107 -274 136 -303 z "},"ḹ":{"ha":343,"x_min":0,"x_max":0,"o":"m 25 24 l 25 0 l 318 0 l 318 24 b 208 201 222 24 208 40 l 208 1119 l 182 1119 b 25 1025 160 1058 90 1025 l 25 1001 l 135 1001 l 135 201 b 25 24 135 40 108 24 z m 172 -303 b 238 -236 208 -303 238 -274 b 172 -169 238 -199 208 -169 b 107 -236 136 -169 107 -199 b 172 -303 107 -274 136 -303 z m 21 1310 l 324 1310 l 324 1339 l 21 1339 z "},"ḻ":{"ha":343,"x_min":0,"x_max":0,"o":"m 25 24 l 25 0 l 318 0 l 318 24 b 208 201 222 24 208 40 l 208 1119 l 182 1119 b 25 1025 160 1058 90 1025 l 25 1001 l 135 1001 l 135 201 b 25 24 135 40 108 24 z m 21 -225 l 324 -225 l 324 -196 l 21 -196 z "},"ł":{"ha":343,"x_min":0,"x_max":0,"o":"m 25 24 l 25 0 l 318 0 l 318 24 b 208 201 222 24 208 40 l 208 572 l 360 674 l 350 689 l 208 593 l 208 1119 l 182 1119 b 25 1025 160 1058 90 1025 l 25 1001 l 135 1001 l 135 547 l -17 446 l -7 431 l 135 526 l 135 201 b 25 24 135 40 108 24 z "},"m":{"ha":1357,"x_min":0,"x_max":0,"o":"m 39 24 l 39 0 l 332 0 l 332 24 b 222 201 235 24 222 40 l 222 538 b 496 669 301 618 410 669 b 653 465 606 669 653 597 l 653 201 b 543 24 653 40 626 24 l 543 0 l 836 0 l 836 24 b 726 201 739 24 726 40 l 726 465 b 721 546 726 492 725 519 b 986 669 800 622 903 669 b 1157 465 1096 669 1157 597 l 1157 201 b 1047 24 1157 40 1131 24 l 1047 0 l 1340 0 l 1340 24 b 1231 201 1243 24 1231 40 l 1231 465 b 1019 719 1231 654 1139 719 b 715 572 910 719 783 643 b 529 719 696 654 646 719 b 222 569 418 719 289 642 l 222 719 l 196 719 b 39 625 174 658 103 625 l 39 601 l 149 601 l 149 201 b 39 24 149 40 122 24 z "},"ṃ":{"ha":1357,"x_min":0,"x_max":0,"o":"m 39 24 l 39 0 l 332 0 l 332 24 b 222 201 235 24 222 40 l 222 538 b 496 669 301 618 410 669 b 653 465 606 669 653 597 l 653 201 b 543 24 653 40 626 24 l 543 0 l 836 0 l 836 24 b 726 201 739 24 726 40 l 726 465 b 721 546 726 492 725 519 b 986 669 800 622 903 669 b 1157 465 1096 669 1157 597 l 1157 201 b 1047 24 1157 40 1131 24 l 1047 0 l 1340 0 l 1340 24 b 1231 201 1243 24 1231 40 l 1231 465 b 1019 719 1231 654 1139 719 b 715 572 910 719 783 643 b 529 719 696 654 646 719 b 222 569 418 719 289 642 l 222 719 l 196 719 b 39 625 174 658 103 625 l 39 601 l 149 601 l 149 201 b 39 24 149 40 122 24 z m 690 -303 b 756 -236 726 -303 756 -274 b 690 -169 756 -199 726 -169 b 625 -236 654 -169 625 -199 b 690 -303 625 -274 654 -303 z "},"n":{"ha":853,"x_min":0,"x_max":0,"o":"m 543 24 l 543 0 l 836 0 l 836 24 b 726 201 739 24 726 40 l 726 465 b 515 719 726 654 635 719 b 222 583 413 719 299 656 l 222 719 l 196 719 b 39 625 174 658 103 625 l 39 601 l 149 601 l 149 201 b 39 24 149 40 122 24 l 39 0 l 332 0 l 332 24 b 222 201 235 24 222 40 l 222 551 b 482 669 300 624 401 669 b 653 465 592 669 653 597 l 653 201 b 543 24 653 40 626 24 z "},"ń":{"ha":853,"x_min":0,"x_max":0,"o":"m 543 24 l 543 0 l 836 0 l 836 24 b 726 201 739 24 726 40 l 726 465 b 515 719 726 654 635 719 b 222 583 413 719 299 656 l 222 719 l 196 719 b 39 625 174 658 103 625 l 39 601 l 149 601 l 149 201 b 39 24 149 40 122 24 l 39 0 l 332 0 l 332 24 b 222 201 235 24 222 40 l 222 551 b 482 669 300 624 401 669 b 653 465 592 669 653 597 l 653 201 b 543 24 653 40 626 24 z m 408 815 l 625 1007 b 650 1051 642 1022 650 1036 b 611 1090 650 1074 631 1090 b 569 1065 596 1090 582 1082 l 394 829 z "},"ŉ":{"ha":890,"x_min":0,"x_max":0,"o":"m 581 24 l 581 0 l 874 0 l 874 24 b 764 201 776 24 764 40 l 764 465 b 553 719 764 654 672 719 b 260 583 450 719 336 656 l 260 719 l 233 719 b 76 625 211 658 140 625 l 76 601 l 186 601 l 186 201 b 76 24 186 40 160 24 l 76 0 l 369 0 l 369 24 b 260 201 272 24 260 40 l 260 551 b 519 669 338 624 439 669 b 690 465 629 669 690 597 l 690 201 b 581 24 690 40 664 24 z m -50 715 l -39 700 b 110 921 85 794 110 860 b 54 997 110 968 88 997 b 8 951 25 997 8 975 b 67 860 8 907 67 910 b -50 715 67 831 42 788 z "},"ň":{"ha":853,"x_min":0,"x_max":0,"o":"m 543 24 l 543 0 l 836 0 l 836 24 b 726 201 739 24 726 40 l 726 465 b 515 719 726 654 635 719 b 222 583 413 719 299 656 l 222 719 l 196 719 b 39 625 174 658 103 625 l 39 601 l 149 601 l 149 201 b 39 24 149 40 122 24 l 39 0 l 332 0 l 332 24 b 222 201 235 24 222 40 l 222 551 b 482 669 300 624 401 669 b 653 465 592 669 653 597 l 653 201 b 543 24 653 40 626 24 z m 443 840 l 468 840 l 663 1031 l 650 1043 l 456 917 l 261 1043 l 249 1031 z "},"ņ":{"ha":853,"x_min":0,"x_max":0,"o":"m 543 24 l 543 0 l 836 0 l 836 24 b 726 201 739 24 726 40 l 726 465 b 515 719 726 654 635 719 b 222 583 413 719 299 656 l 222 719 l 196 719 b 39 625 174 658 103 625 l 39 601 l 149 601 l 149 201 b 39 24 149 40 122 24 l 39 0 l 332 0 l 332 24 b 222 201 235 24 222 40 l 222 551 b 482 669 300 624 401 669 b 653 465 592 669 653 597 l 653 201 b 543 24 653 40 626 24 z m 335 -383 l 346 -399 b 494 -178 469 -304 494 -239 b 439 -101 494 -131 472 -101 b 393 -147 410 -101 393 -124 b 451 -239 393 -192 451 -189 b 335 -383 451 -268 426 -311 z "},"ṅ":{"ha":853,"x_min":0,"x_max":0,"o":"m 543 24 l 543 0 l 836 0 l 836 24 b 726 201 739 24 726 40 l 726 465 b 515 719 726 654 635 719 b 222 583 413 719 299 656 l 222 719 l 196 719 b 39 625 174 658 103 625 l 39 601 l 149 601 l 149 201 b 39 24 149 40 122 24 l 39 0 l 332 0 l 332 24 b 222 201 235 24 222 40 l 222 551 b 482 669 300 624 401 669 b 653 465 592 669 653 597 l 653 201 b 543 24 653 40 626 24 z m 456 874 b 521 940 492 874 521 903 b 456 1007 521 978 492 1007 b 390 940 419 1007 390 978 b 456 874 390 903 419 874 z "},"ṇ":{"ha":853,"x_min":0,"x_max":0,"o":"m 543 24 l 543 0 l 836 0 l 836 24 b 726 201 739 24 726 40 l 726 465 b 515 719 726 654 635 719 b 222 583 413 719 299 656 l 222 719 l 196 719 b 39 625 174 658 103 625 l 39 601 l 149 601 l 149 201 b 39 24 149 40 122 24 l 39 0 l 332 0 l 332 24 b 222 201 235 24 222 40 l 222 551 b 482 669 300 624 401 669 b 653 465 592 669 653 597 l 653 201 b 543 24 653 40 626 24 z m 438 -303 b 503 -236 474 -303 503 -274 b 438 -169 503 -199 474 -169 b 372 -236 401 -169 372 -199 b 438 -303 372 -274 401 -303 z "},"ṉ":{"ha":853,"x_min":0,"x_max":0,"o":"m 543 24 l 543 0 l 836 0 l 836 24 b 726 201 739 24 726 40 l 726 465 b 515 719 726 654 635 719 b 222 583 413 719 299 656 l 222 719 l 196 719 b 39 625 174 658 103 625 l 39 601 l 149 601 l 149 201 b 39 24 149 40 122 24 l 39 0 l 332 0 l 332 24 b 222 201 235 24 222 40 l 222 551 b 482 669 300 624 401 669 b 653 465 592 669 653 597 l 653 201 b 543 24 653 40 626 24 z m 239 -225 l 636 -225 l 636 -196 l 239 -196 z "},"ñ":{"ha":853,"x_min":0,"x_max":0,"o":"m 543 24 l 543 0 l 836 0 l 836 24 b 726 201 739 24 726 40 l 726 465 b 515 719 726 654 635 719 b 222 583 413 719 299 656 l 222 719 l 196 719 b 39 625 174 658 103 625 l 39 601 l 149 601 l 149 201 b 39 24 149 40 122 24 l 39 0 l 332 0 l 332 24 b 222 201 235 24 222 40 l 222 551 b 482 669 300 624 401 669 b 653 465 592 669 653 597 l 653 201 b 543 24 653 40 626 24 z m 236 854 l 254 843 b 357 918 286 899 315 918 b 536 843 418 918 464 843 b 674 965 576 843 625 861 l 656 978 b 561 907 624 922 593 907 b 374 979 490 907 446 979 b 236 854 333 979 286 960 z "},"ŋ":{"ha":824,"x_min":0,"x_max":0,"o":"m 501 -358 b 726 -51 643 -358 726 -217 l 726 465 b 515 719 726 654 635 719 b 222 583 413 719 299 656 l 222 719 l 196 719 b 39 625 174 658 103 625 l 39 601 l 149 601 l 149 201 b 39 24 149 40 122 24 l 39 0 l 332 0 l 332 24 b 222 201 235 24 222 40 l 222 551 b 482 669 300 624 401 669 b 653 465 592 669 653 597 l 653 -54 b 579 -306 653 -207 632 -306 b 467 -261 540 -306 506 -261 b 421 -304 442 -261 421 -278 b 501 -358 421 -328 438 -358 z "},"o":{"ha":819,"x_min":0,"x_max":0,"o":"m 407 -25 b 769 354 603 -25 769 103 b 414 719 769 610 597 719 b 50 340 217 719 50 592 b 407 -25 50 85 222 -25 z m 410 0 b 138 350 251 0 138 144 b 411 694 138 564 260 694 b 682 344 569 694 682 550 b 410 0 682 131 561 0 z "},"ó":{"ha":819,"x_min":0,"x_max":0,"o":"m 407 -25 b 769 354 603 -25 769 103 b 414 719 769 610 597 719 b 50 340 217 719 50 592 b 407 -25 50 85 222 -25 z m 410 0 b 138 350 251 0 138 144 b 411 694 138 564 260 694 b 682 344 569 694 682 550 b 410 0 682 131 561 0 z m 363 815 l 579 1007 b 604 1051 596 1022 604 1036 b 565 1090 604 1074 585 1090 b 524 1065 550 1090 536 1082 l 349 829 z "},"ŏ":{"ha":819,"x_min":0,"x_max":0,"o":"m 407 -25 b 769 354 603 -25 769 103 b 414 719 769 610 597 719 b 50 340 217 719 50 592 b 407 -25 50 85 222 -25 z m 410 0 b 138 350 251 0 138 144 b 411 694 138 564 260 694 b 682 344 569 694 682 550 b 410 0 682 131 561 0 z m 410 839 b 596 1021 542 839 589 956 l 579 1025 b 410 908 565 990 508 908 b 240 1025 311 908 254 990 l 224 1021 b 410 839 231 956 278 839 z "},"ǒ":{"ha":819,"x_min":0,"x_max":0,"o":"m 407 -25 b 769 354 603 -25 769 103 b 414 719 769 610 597 719 b 50 340 217 719 50 592 b 407 -25 50 85 222 -25 z m 410 0 b 138 350 251 0 138 144 b 411 694 138 564 260 694 b 682 344 569 694 682 550 b 410 0 682 131 561 0 z m 397 840 l 422 840 l 617 1031 l 604 1043 l 410 917 l 215 1043 l 203 1031 z "},"ô":{"ha":819,"x_min":0,"x_max":0,"o":"m 407 -25 b 769 354 603 -25 769 103 b 414 719 769 610 597 719 b 50 340 217 719 50 592 b 407 -25 50 85 222 -25 z m 410 0 b 138 350 251 0 138 144 b 411 694 138 564 260 694 b 682 344 569 694 682 550 b 410 0 682 131 561 0 z m 215 840 l 410 967 l 604 840 l 617 853 l 422 1043 l 397 1043 l 203 853 z "},"ố":{"ha":819,"x_min":0,"x_max":0,"o":"m 407 -25 b 769 354 603 -25 769 103 b 414 719 769 610 597 719 b 50 340 217 719 50 592 b 407 -25 50 85 222 -25 z m 410 0 b 138 350 251 0 138 144 b 411 694 138 564 260 694 b 682 344 569 694 682 550 b 410 0 682 131 561 0 z m 215 840 l 410 967 l 604 840 l 617 853 l 422 1043 l 397 1043 l 203 853 z m 565 1021 l 743 1175 b 768 1218 761 1190 768 1203 b 732 1254 768 1239 750 1254 b 692 1229 717 1254 704 1246 l 551 1035 z "},"ộ":{"ha":819,"x_min":0,"x_max":0,"o":"m 407 -25 b 769 354 603 -25 769 103 b 414 719 769 610 597 719 b 50 340 217 719 50 592 b 407 -25 50 85 222 -25 z m 410 0 b 138 350 251 0 138 144 b 411 694 138 564 260 694 b 682 344 569 694 682 550 b 410 0 682 131 561 0 z m 410 -303 b 475 -236 446 -303 475 -274 b 410 -169 475 -199 446 -169 b 344 -236 374 -169 344 -199 b 410 -303 344 -274 374 -303 z m 215 840 l 410 967 l 604 840 l 617 853 l 422 1043 l 397 1043 l 203 853 z "},"ồ":{"ha":819,"x_min":0,"x_max":0,"o":"m 407 -25 b 769 354 603 -25 769 103 b 414 719 769 610 597 719 b 50 340 217 719 50 592 b 407 -25 50 85 222 -25 z m 410 0 b 138 350 251 0 138 144 b 411 694 138 564 260 694 b 682 344 569 694 682 550 b 410 0 682 131 561 0 z m 215 840 l 410 967 l 604 840 l 617 853 l 422 1043 l 397 1043 l 203 853 z m 443 1175 l 621 1021 l 635 1035 l 494 1229 b 454 1254 482 1246 469 1254 b 418 1218 436 1254 418 1239 b 443 1175 418 1203 425 1190 z "},"ổ":{"ha":819,"x_min":0,"x_max":0,"o":"m 407 -25 b 769 354 603 -25 769 103 b 414 719 769 610 597 719 b 50 340 217 719 50 592 b 407 -25 50 85 222 -25 z m 410 0 b 138 350 251 0 138 144 b 411 694 138 564 260 694 b 682 344 569 694 682 550 b 410 0 682 131 561 0 z m 215 840 l 410 967 l 604 840 l 617 853 l 422 1043 l 397 1043 l 203 853 z m 546 1032 l 567 1032 b 667 1193 581 1103 667 1118 b 572 1275 667 1249 619 1275 b 465 1200 507 1275 465 1228 b 489 1176 465 1185 475 1176 b 567 1254 531 1176 518 1254 b 604 1197 593 1254 604 1231 b 546 1032 604 1128 551 1118 z "},"ỗ":{"ha":819,"x_min":0,"x_max":0,"o":"m 407 -25 b 769 354 603 -25 769 103 b 414 719 769 610 597 719 b 50 340 217 719 50 592 b 407 -25 50 85 222 -25 z m 410 0 b 138 350 251 0 138 144 b 411 694 138 564 260 694 b 682 344 569 694 682 550 b 410 0 682 131 561 0 z m 215 840 l 410 967 l 604 840 l 617 853 l 422 1043 l 397 1043 l 203 853 z m 190 1146 l 208 1135 b 311 1210 240 1190 269 1210 b 490 1135 372 1210 418 1135 b 628 1257 531 1135 579 1153 l 610 1269 b 515 1199 578 1214 547 1199 b 328 1271 444 1199 400 1271 b 190 1146 288 1271 240 1251 z "},"ö":{"ha":819,"x_min":0,"x_max":0,"o":"m 407 -25 b 769 354 603 -25 769 103 b 414 719 769 610 597 719 b 50 340 217 719 50 592 b 407 -25 50 85 222 -25 z m 410 0 b 138 350 251 0 138 144 b 411 694 138 564 260 694 b 682 344 569 694 682 550 b 410 0 682 131 561 0 z m 275 875 b 335 939 310 875 335 903 b 275 1003 335 975 310 1003 b 215 939 240 1003 215 975 b 275 875 215 903 240 875 z m 544 875 b 604 939 579 875 604 903 b 544 1003 604 975 579 1003 b 485 939 510 1003 485 975 b 544 875 485 903 510 875 z "},"ọ":{"ha":819,"x_min":0,"x_max":0,"o":"m 407 -25 b 769 354 603 -25 769 103 b 414 719 769 610 597 719 b 50 340 217 719 50 592 b 407 -25 50 85 222 -25 z m 410 0 b 138 350 251 0 138 144 b 411 694 138 564 260 694 b 682 344 569 694 682 550 b 410 0 682 131 561 0 z m 410 -303 b 475 -236 446 -303 475 -274 b 410 -169 475 -199 446 -169 b 344 -236 374 -169 344 -199 b 410 -303 344 -274 374 -303 z "},"ò":{"ha":819,"x_min":0,"x_max":0,"o":"m 407 -25 b 769 354 603 -25 769 103 b 414 719 769 610 597 719 b 50 340 217 719 50 592 b 407 -25 50 85 222 -25 z m 410 0 b 138 350 251 0 138 144 b 411 694 138 564 260 694 b 682 344 569 694 682 550 b 410 0 682 131 561 0 z m 235 1007 l 451 815 l 465 829 l 290 1065 b 249 1090 278 1082 264 1090 b 210 1051 229 1090 210 1074 b 235 1007 210 1036 218 1022 z "},"ỏ":{"ha":819,"x_min":0,"x_max":0,"o":"m 407 -25 b 769 354 603 -25 769 103 b 414 719 769 610 597 719 b 50 340 217 719 50 592 b 407 -25 50 85 222 -25 z m 410 0 b 138 350 251 0 138 144 b 411 694 138 564 260 694 b 682 344 569 694 682 550 b 410 0 682 131 561 0 z m 385 826 l 406 826 b 506 988 419 897 506 913 b 410 1069 506 1043 458 1069 b 304 994 346 1069 304 1022 b 328 971 304 979 314 971 b 406 1049 369 971 357 1049 b 443 992 432 1049 443 1025 b 385 826 443 922 390 913 z "},"ơ":{"ha":819,"x_min":0,"x_max":0,"o":"m 661 663 b 804 781 754 663 804 715 b 744 856 804 825 781 856 b 693 801 713 856 693 832 b 733 722 693 758 733 751 b 657 689 733 701 714 689 b 510 708 615 689 572 696 b 414 719 479 717 446 719 b 50 340 217 719 50 592 b 407 -25 50 85 222 -25 b 769 354 603 -25 769 103 b 617 665 769 508 707 610 b 661 663 632 664 647 663 z m 410 0 b 138 350 251 0 138 144 b 411 694 138 564 260 694 b 682 344 569 694 682 550 b 410 0 682 131 561 0 z "},"ớ":{"ha":819,"x_min":0,"x_max":0,"o":"m 661 663 b 804 781 754 663 804 715 b 744 856 804 825 781 856 b 693 801 713 856 693 832 b 733 722 693 758 733 751 b 657 689 733 701 714 689 b 510 708 615 689 572 696 b 414 719 479 717 446 719 b 50 340 217 719 50 592 b 407 -25 50 85 222 -25 b 769 354 603 -25 769 103 b 617 665 769 508 707 610 b 661 663 632 664 647 663 z m 410 0 b 138 350 251 0 138 144 b 411 694 138 564 260 694 b 682 344 569 694 682 550 b 410 0 682 131 561 0 z m 363 815 l 579 1007 b 604 1051 596 1022 604 1036 b 565 1090 604 1074 585 1090 b 524 1065 550 1090 536 1082 l 349 829 z "},"ợ":{"ha":819,"x_min":0,"x_max":0,"o":"m 661 663 b 804 781 754 663 804 715 b 744 856 804 825 781 856 b 693 801 713 856 693 832 b 733 722 693 758 733 751 b 657 689 733 701 714 689 b 510 708 615 689 572 696 b 414 719 479 717 446 719 b 50 340 217 719 50 592 b 407 -25 50 85 222 -25 b 769 354 603 -25 769 103 b 617 665 769 508 707 610 b 661 663 632 664 647 663 z m 410 0 b 138 350 251 0 138 144 b 411 694 138 564 260 694 b 682 344 569 694 682 550 b 410 0 682 131 561 0 z m 410 -303 b 475 -236 446 -303 475 -274 b 410 -169 475 -199 446 -169 b 344 -236 374 -169 344 -199 b 410 -303 344 -274 374 -303 z "},"ờ":{"ha":819,"x_min":0,"x_max":0,"o":"m 661 663 b 804 781 754 663 804 715 b 744 856 804 825 781 856 b 693 801 713 856 693 832 b 733 722 693 758 733 751 b 657 689 733 701 714 689 b 510 708 615 689 572 696 b 414 719 479 717 446 719 b 50 340 217 719 50 592 b 407 -25 50 85 222 -25 b 769 354 603 -25 769 103 b 617 665 769 508 707 610 b 661 663 632 664 647 663 z m 410 0 b 138 350 251 0 138 144 b 411 694 138 564 260 694 b 682 344 569 694 682 550 b 410 0 682 131 561 0 z m 235 1007 l 451 815 l 465 829 l 290 1065 b 249 1090 278 1082 264 1090 b 210 1051 229 1090 210 1074 b 235 1007 210 1036 218 1022 z "},"ở":{"ha":819,"x_min":0,"x_max":0,"o":"m 661 663 b 804 781 754 663 804 715 b 744 856 804 825 781 856 b 693 801 713 856 693 832 b 733 722 693 758 733 751 b 657 689 733 701 714 689 b 510 708 615 689 572 696 b 414 719 479 717 446 719 b 50 340 217 719 50 592 b 407 -25 50 85 222 -25 b 769 354 603 -25 769 103 b 617 665 769 508 707 610 b 661 663 632 664 647 663 z m 410 0 b 138 350 251 0 138 144 b 411 694 138 564 260 694 b 682 344 569 694 682 550 b 410 0 682 131 561 0 z m 385 826 l 406 826 b 506 988 419 897 506 913 b 410 1069 506 1043 458 1069 b 304 994 346 1069 304 1022 b 328 971 304 979 314 971 b 406 1049 369 971 357 1049 b 443 992 432 1049 443 1025 b 385 826 443 922 390 913 z "},"ỡ":{"ha":819,"x_min":0,"x_max":0,"o":"m 661 663 b 804 781 754 663 804 715 b 744 856 804 825 781 856 b 693 801 713 856 693 832 b 733 722 693 758 733 751 b 657 689 733 701 714 689 b 510 708 615 689 572 696 b 414 719 479 717 446 719 b 50 340 217 719 50 592 b 407 -25 50 85 222 -25 b 769 354 603 -25 769 103 b 617 665 769 508 707 610 b 661 663 632 664 647 663 z m 410 0 b 138 350 251 0 138 144 b 411 694 138 564 260 694 b 682 344 569 694 682 550 b 410 0 682 131 561 0 z m 190 854 l 208 843 b 311 918 240 899 269 918 b 490 843 372 918 418 843 b 628 965 531 843 579 861 l 610 978 b 515 907 578 922 547 907 b 328 979 444 907 400 979 b 190 854 288 979 240 960 z "},"ő":{"ha":819,"x_min":0,"x_max":0,"o":"m 407 -25 b 769 354 603 -25 769 103 b 414 719 769 610 597 719 b 50 340 217 719 50 592 b 407 -25 50 85 222 -25 z m 410 0 b 138 350 251 0 138 144 b 411 694 138 564 260 694 b 682 344 569 694 682 550 b 410 0 682 131 561 0 z m 268 815 l 485 1007 b 510 1051 501 1022 510 1036 b 471 1090 510 1074 490 1090 b 429 1065 456 1090 442 1082 l 254 829 z m 492 815 l 708 1007 b 733 1051 725 1022 733 1036 b 694 1090 733 1074 714 1090 b 653 1065 679 1090 665 1082 l 478 829 z "},"ō":{"ha":819,"x_min":0,"x_max":0,"o":"m 407 -25 b 769 354 603 -25 769 103 b 414 719 769 610 597 719 b 50 340 217 719 50 592 b 407 -25 50 85 222 -25 z m 410 0 b 138 350 251 0 138 144 b 411 694 138 564 260 694 b 682 344 569 694 682 550 b 410 0 682 131 561 0 z m 211 893 l 608 893 l 608 922 l 211 922 z "},"ǫ":{"ha":819,"x_min":0,"x_max":0,"o":"m 407 -25 b 483 -18 433 -25 458 -22 b 342 -228 404 -68 342 -144 b 483 -364 342 -307 397 -364 b 636 -287 542 -364 590 -337 l 626 -276 b 518 -321 600 -300 564 -321 b 401 -201 458 -321 401 -287 b 547 0 401 -125 444 -61 b 769 354 676 47 769 167 b 414 719 769 610 597 719 b 50 340 217 719 50 592 b 407 -25 50 85 222 -25 z m 410 0 b 138 350 251 0 138 144 b 411 694 138 564 260 694 b 682 344 569 694 682 550 b 410 0 682 131 561 0 z "},"ø":{"ha":819,"x_min":0,"x_max":0,"o":"m 407 -25 b 769 354 603 -25 769 103 b 646 644 769 490 719 586 l 769 806 l 756 817 l 632 656 b 414 719 569 699 493 719 b 50 340 217 719 50 592 b 169 53 50 206 97 111 l 49 -111 l 63 -122 l 185 42 b 407 -25 247 -4 326 -25 z m 410 0 b 222 88 335 0 271 32 l 607 596 b 682 344 654 535 682 447 b 410 0 682 131 561 0 z m 138 350 b 411 694 138 564 260 694 b 594 610 485 694 547 664 l 211 101 b 138 350 165 164 138 250 z "},"ǿ":{"ha":819,"x_min":0,"x_max":0,"o":"m 407 -25 b 769 354 603 -25 769 103 b 646 644 769 490 719 586 l 769 806 l 756 817 l 632 656 b 414 719 569 699 493 719 b 50 340 217 719 50 592 b 169 53 50 206 97 111 l 49 -111 l 63 -122 l 185 42 b 407 -25 247 -4 326 -25 z m 410 0 b 222 88 335 0 271 32 l 607 596 b 682 344 654 535 682 447 b 410 0 682 131 561 0 z m 363 815 l 579 1007 b 604 1051 596 1022 604 1036 b 565 1090 604 1074 585 1090 b 524 1065 550 1090 536 1082 l 349 829 z m 138 350 b 411 694 138 564 260 694 b 594 610 485 694 547 664 l 211 101 b 138 350 165 164 138 250 z "},"õ":{"ha":819,"x_min":0,"x_max":0,"o":"m 407 -25 b 769 354 603 -25 769 103 b 414 719 769 610 597 719 b 50 340 217 719 50 592 b 407 -25 50 85 222 -25 z m 410 0 b 138 350 251 0 138 144 b 411 694 138 564 260 694 b 682 344 569 694 682 550 b 410 0 682 131 561 0 z m 190 854 l 208 843 b 311 918 240 899 269 918 b 490 843 372 918 418 843 b 628 965 531 843 579 861 l 610 978 b 515 907 578 922 547 907 b 328 979 444 907 400 979 b 190 854 288 979 240 960 z "},"œ":{"ha":1368,"x_min":0,"x_max":0,"o":"m 407 -25 b 724 153 540 -25 661 35 b 1029 -25 782 33 901 -25 b 1354 181 1174 -25 1274 49 l 1338 192 b 1061 22 1276 97 1186 22 b 769 358 886 22 769 168 b 774 424 769 379 771 401 l 1193 424 b 1294 499 1282 424 1294 435 b 1035 719 1294 628 1190 719 b 731 539 903 719 790 653 b 414 719 671 664 544 719 b 50 340 217 719 50 592 b 407 -25 50 85 222 -25 z m 410 0 b 138 350 251 0 138 144 b 411 694 138 564 260 694 b 682 344 569 694 682 550 b 410 0 682 131 561 0 z m 778 449 b 1022 694 801 576 878 694 b 1207 499 1146 694 1207 608 b 1051 449 1207 454 1185 449 z "},"p":{"ha":847,"x_min":0,"x_max":0,"o":"m 35 -324 l 35 -347 l 354 -347 l 354 -324 l 328 -324 b 217 -146 233 -324 217 -307 l 217 36 b 439 -25 283 -7 364 -25 b 797 365 643 -25 797 111 b 488 719 797 618 644 719 b 218 593 368 719 283 661 l 215 593 l 215 719 l 189 719 b 33 625 168 658 99 625 l 33 603 l 143 603 l 143 -146 b 35 -324 143 -307 118 -324 z m 443 0 b 217 104 350 0 272 46 l 217 551 b 449 676 300 651 379 676 b 711 342 610 676 711 544 b 443 0 711 129 599 0 z "},"þ":{"ha":839,"x_min":0,"x_max":0,"o":"m 26 -324 l 26 -347 l 346 -347 l 346 -324 l 319 -324 b 208 -146 225 -324 208 -307 l 208 36 b 431 -25 275 -7 356 -25 b 789 365 635 -25 789 111 b 479 719 789 618 636 719 b 210 593 360 719 275 661 l 207 593 l 207 1119 l 181 1119 b 25 1025 160 1058 90 1025 l 25 1003 l 135 1003 l 135 -146 b 26 -324 135 -307 110 -324 z m 435 0 b 208 104 342 0 264 46 l 208 551 b 440 676 292 651 371 676 b 703 342 601 676 703 544 b 435 0 703 129 590 0 z "},"q":{"ha":819,"x_min":0,"x_max":0,"o":"m 493 -347 l 814 -347 l 814 -324 b 704 -146 729 -324 704 -307 l 704 508 b 729 697 704 604 713 651 l 708 707 b 650 658 690 678 676 658 b 411 719 613 658 551 719 b 50 333 206 719 50 586 b 361 -25 50 79 203 -25 b 628 101 476 -25 563 29 l 631 101 l 631 -146 b 519 -324 631 -307 614 -324 l 493 -324 z m 396 18 b 135 351 247 18 135 142 b 404 694 135 561 249 694 b 631 586 506 694 586 639 l 631 143 b 396 18 549 47 468 18 z "},"r":{"ha":518,"x_min":0,"x_max":0,"o":"m 39 24 l 39 0 l 360 0 l 360 24 l 333 24 b 222 201 239 24 222 40 l 222 493 b 369 644 267 583 317 644 b 460 603 410 644 424 603 b 504 650 486 603 504 624 b 425 714 504 686 472 714 b 226 547 346 714 275 635 l 222 547 l 222 719 l 196 719 b 39 625 175 658 104 625 l 39 601 l 149 601 l 149 201 b 39 24 149 40 124 24 z "},"ŕ":{"ha":518,"x_min":0,"x_max":0,"o":"m 39 24 l 39 0 l 360 0 l 360 24 l 333 24 b 222 201 239 24 222 40 l 222 493 b 369 644 267 583 317 644 b 460 603 410 644 424 603 b 504 650 486 603 504 624 b 425 714 504 686 472 714 b 226 547 346 714 275 635 l 222 547 l 222 719 l 196 719 b 39 625 175 658 104 625 l 39 601 l 149 601 l 149 201 b 39 24 149 40 124 24 z m 228 815 l 444 1007 b 469 1051 461 1022 469 1036 b 431 1090 469 1074 450 1090 b 389 1065 415 1090 401 1082 l 214 829 z "},"ř":{"ha":518,"x_min":0,"x_max":0,"o":"m 39 24 l 39 0 l 360 0 l 360 24 l 333 24 b 222 201 239 24 222 40 l 222 493 b 369 644 267 583 317 644 b 460 603 410 644 424 603 b 504 650 486 603 504 624 b 425 714 504 686 472 714 b 226 547 346 714 275 635 l 222 547 l 222 719 l 196 719 b 39 625 175 658 104 625 l 39 601 l 149 601 l 149 201 b 39 24 149 40 124 24 z m 263 840 l 288 840 l 482 1031 l 469 1043 l 275 917 l 81 1043 l 68 1031 z "},"ŗ":{"ha":518,"x_min":0,"x_max":0,"o":"m 39 24 l 39 0 l 360 0 l 360 24 l 333 24 b 222 201 239 24 222 40 l 222 493 b 369 644 267 583 317 644 b 460 603 410 644 424 603 b 504 650 486 603 504 624 b 425 714 504 686 472 714 b 226 547 346 714 275 635 l 222 547 l 222 719 l 196 719 b 39 625 175 658 104 625 l 39 601 l 149 601 l 149 201 b 39 24 149 40 124 24 z m 82 -383 l 93 -399 b 242 -178 217 -304 242 -239 b 186 -101 242 -131 219 -101 b 140 -147 157 -101 140 -124 b 199 -239 140 -192 199 -189 b 82 -383 199 -268 174 -311 z "},"ṛ":{"ha":518,"x_min":0,"x_max":0,"o":"m 39 24 l 39 0 l 360 0 l 360 24 l 333 24 b 222 201 239 24 222 40 l 222 493 b 369 644 267 583 317 644 b 460 603 410 644 424 603 b 504 650 486 603 504 624 b 425 714 504 686 472 714 b 226 547 346 714 275 635 l 222 547 l 222 719 l 196 719 b 39 625 175 658 104 625 l 39 601 l 149 601 l 149 201 b 39 24 149 40 124 24 z m 185 -303 b 250 -236 221 -303 250 -274 b 185 -169 250 -199 221 -169 b 119 -236 149 -169 119 -199 b 185 -303 119 -274 149 -303 z "},"ṝ":{"ha":518,"x_min":0,"x_max":0,"o":"m 39 24 l 39 0 l 360 0 l 360 24 l 333 24 b 222 201 239 24 222 40 l 222 493 b 369 644 267 583 317 644 b 460 603 410 644 424 603 b 504 650 486 603 504 624 b 425 714 504 686 472 714 b 226 547 346 714 275 635 l 222 547 l 222 719 l 196 719 b 39 625 175 658 104 625 l 39 601 l 149 601 l 149 201 b 39 24 149 40 124 24 z m 185 -303 b 250 -236 221 -303 250 -274 b 185 -169 250 -199 221 -169 b 119 -236 149 -169 119 -199 b 185 -303 119 -274 149 -303 z m 76 893 l 474 893 l 474 922 l 76 922 z "},"ṟ":{"ha":518,"x_min":0,"x_max":0,"o":"m 39 24 l 39 0 l 360 0 l 360 24 l 333 24 b 222 201 239 24 222 40 l 222 493 b 369 644 267 583 317 644 b 460 603 410 644 424 603 b 504 650 486 603 504 624 b 425 714 504 686 472 714 b 226 547 346 714 275 635 l 222 547 l 222 719 l 196 719 b 39 625 175 658 104 625 l 39 601 l 149 601 l 149 201 b 39 24 149 40 124 24 z m 33 -225 l 336 -225 l 336 -196 l 33 -196 z "},"s":{"ha":582,"x_min":0,"x_max":0,"o":"m 64 -21 l 83 -19 b 115 19 83 4 94 19 b 299 -25 149 19 200 -25 b 536 179 429 -25 536 53 b 314 400 536 278 471 350 b 125 567 164 447 125 503 b 275 694 125 649 186 694 b 500 494 392 694 467 611 l 524 499 l 471 733 l 451 731 b 429 688 453 708 449 688 b 279 719 404 688 360 719 b 61 539 144 719 61 643 b 281 335 61 433 147 378 b 471 154 411 293 471 243 b 297 0 471 57 401 0 b 72 225 171 0 101 83 l 49 222 z "},"ś":{"ha":582,"x_min":0,"x_max":0,"o":"m 64 -21 l 83 -19 b 115 19 83 4 94 19 b 299 -25 149 19 200 -25 b 536 179 429 -25 536 53 b 314 400 536 278 471 350 b 125 567 164 447 125 503 b 275 694 125 649 186 694 b 500 494 392 694 467 611 l 524 499 l 471 733 l 451 731 b 429 688 453 708 449 688 b 279 719 404 688 360 719 b 61 539 144 719 61 643 b 281 335 61 433 147 378 b 471 154 411 293 471 243 b 297 0 471 57 401 0 b 72 225 171 0 101 83 l 49 222 z m 242 815 l 458 1007 b 483 1051 475 1022 483 1036 b 444 1090 483 1074 464 1090 b 403 1065 429 1090 415 1082 l 228 829 z "},"š":{"ha":582,"x_min":0,"x_max":0,"o":"m 64 -21 l 83 -19 b 115 19 83 4 94 19 b 299 -25 149 19 200 -25 b 536 179 429 -25 536 53 b 314 400 536 278 471 350 b 125 567 164 447 125 503 b 275 694 125 649 186 694 b 500 494 392 694 467 611 l 524 499 l 471 733 l 451 731 b 429 688 453 708 449 688 b 279 719 404 688 360 719 b 61 539 144 719 61 643 b 281 335 61 433 147 378 b 471 154 411 293 471 243 b 297 0 471 57 401 0 b 72 225 171 0 101 83 l 49 222 z m 276 840 l 301 840 l 496 1031 l 483 1043 l 289 917 l 94 1043 l 82 1031 z "},"ş":{"ha":582,"x_min":0,"x_max":0,"o":"m 64 -21 l 83 -19 b 115 19 83 4 94 19 b 288 -25 147 19 196 -22 l 225 -135 b 235 -167 215 -151 218 -158 l 315 -210 b 364 -278 349 -228 364 -250 b 274 -349 364 -318 332 -349 b 146 -301 215 -349 168 -319 l 133 -321 b 278 -374 156 -340 204 -374 b 422 -258 371 -374 422 -319 b 313 -129 422 -187 354 -150 b 289 -74 276 -111 271 -106 l 317 -25 b 536 179 439 -18 536 58 b 314 400 536 278 471 350 b 125 567 164 447 125 503 b 275 694 125 649 186 694 b 500 494 392 694 467 611 l 524 499 l 471 733 l 451 731 b 429 688 453 708 449 688 b 279 719 404 688 360 719 b 61 539 144 719 61 643 b 281 335 61 433 147 378 b 471 154 411 293 471 243 b 297 0 471 57 401 0 b 72 225 171 0 101 83 l 49 222 z "},"ŝ":{"ha":582,"x_min":0,"x_max":0,"o":"m 64 -21 l 83 -19 b 115 19 83 4 94 19 b 299 -25 149 19 200 -25 b 536 179 429 -25 536 53 b 314 400 536 278 471 350 b 125 567 164 447 125 503 b 275 694 125 649 186 694 b 500 494 392 694 467 611 l 524 499 l 471 733 l 451 731 b 429 688 453 708 449 688 b 279 719 404 688 360 719 b 61 539 144 719 61 643 b 281 335 61 433 147 378 b 471 154 411 293 471 243 b 297 0 471 57 401 0 b 72 225 171 0 101 83 l 49 222 z m 94 840 l 289 967 l 483 840 l 496 853 l 301 1043 l 276 1043 l 82 853 z "},"ș":{"ha":582,"x_min":0,"x_max":0,"o":"m 64 -21 l 83 -19 b 115 19 83 4 94 19 b 299 -25 149 19 200 -25 b 536 179 429 -25 536 53 b 314 400 536 278 471 350 b 125 567 164 447 125 503 b 275 694 125 649 186 694 b 500 494 392 694 467 611 l 524 499 l 471 733 l 451 731 b 429 688 453 708 449 688 b 279 719 404 688 360 719 b 61 539 144 719 61 643 b 281 335 61 433 147 378 b 471 154 411 293 471 243 b 297 0 471 57 401 0 b 72 225 171 0 101 83 l 49 222 z m 207 -385 l 218 -400 b 367 -179 342 -306 367 -240 b 311 -103 367 -132 344 -103 b 265 -149 282 -103 265 -125 b 324 -240 265 -193 324 -190 b 207 -385 324 -269 299 -312 z "},"ṡ":{"ha":582,"x_min":0,"x_max":0,"o":"m 64 -21 l 83 -19 b 115 19 83 4 94 19 b 299 -25 149 19 200 -25 b 536 179 429 -25 536 53 b 314 400 536 278 471 350 b 125 567 164 447 125 503 b 275 694 125 649 186 694 b 500 494 392 694 467 611 l 524 499 l 471 733 l 451 731 b 429 688 453 708 449 688 b 279 719 404 688 360 719 b 61 539 144 719 61 643 b 281 335 61 433 147 378 b 471 154 411 293 471 243 b 297 0 471 57 401 0 b 72 225 171 0 101 83 l 49 222 z m 289 874 b 354 940 325 874 354 903 b 289 1007 354 978 325 1007 b 224 940 253 1007 224 978 b 289 874 224 903 253 874 z "},"ṣ":{"ha":582,"x_min":0,"x_max":0,"o":"m 64 -21 l 83 -19 b 115 19 83 4 94 19 b 299 -25 149 19 200 -25 b 536 179 429 -25 536 53 b 314 400 536 278 471 350 b 125 567 164 447 125 503 b 275 694 125 649 186 694 b 500 494 392 694 467 611 l 524 499 l 471 733 l 451 731 b 429 688 453 708 449 688 b 279 719 404 688 360 719 b 61 539 144 719 61 643 b 281 335 61 433 147 378 b 471 154 411 293 471 243 b 297 0 471 57 401 0 b 72 225 171 0 101 83 l 49 222 z m 310 -304 b 375 -237 346 -304 375 -275 b 310 -171 375 -200 346 -171 b 244 -237 274 -171 244 -200 b 310 -304 244 -275 274 -304 z "},"ß":{"ha":796,"x_min":0,"x_max":0,"o":"m 581 -25 b 768 149 682 -25 768 44 b 604 369 768 239 704 299 b 483 546 511 435 483 493 b 701 939 483 692 701 781 b 465 1132 701 1050 599 1132 b 160 828 332 1132 160 1050 l 160 800 b 44 688 160 700 129 688 l 44 663 l 154 663 l 154 201 b 44 24 154 40 129 24 l 44 0 l 228 0 l 228 851 b 447 1110 228 1050 351 1110 b 631 921 561 1110 631 1028 b 432 508 631 740 432 661 b 571 307 432 431 482 369 b 703 128 651 250 703 206 b 572 0 703 50 651 0 b 389 213 472 0 413 79 l 367 210 l 382 -21 l 401 -19 b 433 19 401 4 413 19 b 581 -25 458 19 500 -25 z "},"ſ":{"ha":431,"x_min":0,"x_max":0,"o":"m 44 24 l 44 0 l 365 0 l 365 24 l 343 24 b 228 201 244 24 228 40 l 228 978 b 332 1103 228 1065 276 1103 b 497 1017 413 1103 443 1017 b 536 1054 521 1017 536 1033 b 389 1136 536 1097 472 1136 b 160 892 272 1136 160 1063 l 160 800 b 44 688 160 700 129 688 l 44 663 l 154 663 l 154 201 b 44 24 154 40 129 24 z "},"t":{"ha":463,"x_min":0,"x_max":0,"o":"m 272 -25 b 443 103 349 -25 393 15 l 422 115 b 296 15 389 57 349 15 b 200 171 240 15 200 64 l 200 663 l 394 663 l 394 694 l 200 694 l 200 938 l 175 938 b 28 688 164 796 143 688 l 28 663 l 126 663 l 126 157 b 272 -25 126 13 197 -25 z "},"ŧ":{"ha":463,"x_min":0,"x_max":0,"o":"m 272 -25 b 443 103 349 -25 393 15 l 422 115 b 296 15 389 57 349 15 b 200 171 240 15 200 64 l 200 413 l 413 413 l 413 429 l 200 429 l 200 663 l 394 663 l 394 694 l 200 694 l 200 938 l 175 938 b 28 688 164 796 143 688 l 28 663 l 126 663 l 126 429 l 4 429 l 4 413 l 126 413 l 126 157 b 272 -25 126 13 197 -25 z "},"ť":{"ha":463,"x_min":0,"x_max":0,"o":"m 272 -25 b 443 103 349 -25 393 15 l 422 115 b 296 15 389 57 349 15 b 200 171 240 15 200 64 l 200 663 l 394 663 l 394 694 l 200 694 l 200 938 l 175 938 b 28 688 164 796 143 688 l 28 663 l 126 663 l 126 157 b 272 -25 126 13 197 -25 z m 297 799 l 308 783 b 457 1004 432 878 457 943 b 401 1081 457 1051 435 1081 b 356 1036 372 1081 356 1060 b 414 943 356 992 414 992 b 297 799 414 914 389 871 z "},"ţ":{"ha":463,"x_min":0,"x_max":0,"o":"m 243 -372 b 388 -257 336 -372 388 -318 b 278 -128 388 -186 319 -149 b 254 -72 242 -110 236 -104 l 282 -25 b 443 103 353 -22 394 19 l 422 115 b 296 15 389 57 349 15 b 200 171 240 15 200 64 l 200 663 l 394 663 l 394 694 l 200 694 l 200 938 l 175 938 b 28 688 164 796 143 688 l 28 663 l 126 663 l 126 157 b 253 -24 126 25 186 -18 l 190 -133 b 200 -165 181 -150 183 -157 l 281 -208 b 329 -276 314 -226 329 -249 b 239 -347 329 -317 297 -347 b 111 -300 181 -347 133 -318 l 99 -319 b 243 -372 121 -339 169 -372 z "},"ț":{"ha":463,"x_min":0,"x_max":0,"o":"m 272 -25 b 443 103 349 -25 393 15 l 422 115 b 296 15 389 57 349 15 b 200 171 240 15 200 64 l 200 663 l 394 663 l 394 694 l 200 694 l 200 938 l 175 938 b 28 688 164 796 143 688 l 28 663 l 126 663 l 126 157 b 272 -25 126 13 197 -25 z m 172 -383 l 183 -399 b 332 -178 307 -304 332 -239 b 276 -101 332 -131 310 -101 b 231 -147 247 -101 231 -124 b 289 -239 231 -192 289 -189 b 172 -383 289 -268 264 -311 z "},"ẗ":{"ha":463,"x_min":0,"x_max":0,"o":"m 272 -25 b 443 103 349 -25 393 15 l 422 115 b 296 15 389 57 349 15 b 200 171 240 15 200 64 l 200 663 l 394 663 l 394 694 l 200 694 l 200 938 l 175 938 b 28 688 164 796 143 688 l 28 663 l 126 663 l 126 157 b 272 -25 126 13 197 -25 z m 51 1061 b 111 1125 86 1061 111 1089 b 51 1189 111 1161 86 1189 b -8 1125 17 1189 -8 1161 b 51 1061 -8 1089 17 1061 z m 321 1061 b 381 1125 356 1061 381 1089 b 321 1189 381 1161 356 1189 b 261 1125 286 1189 261 1161 b 321 1061 261 1089 286 1061 z "},"ṭ":{"ha":463,"x_min":0,"x_max":0,"o":"m 272 -25 b 443 103 349 -25 393 15 l 422 115 b 296 15 389 57 349 15 b 200 171 240 15 200 64 l 200 663 l 394 663 l 394 694 l 200 694 l 200 938 l 175 938 b 28 688 164 796 143 688 l 28 663 l 126 663 l 126 157 b 272 -25 126 13 197 -25 z m 275 -303 b 340 -236 311 -303 340 -274 b 275 -169 340 -199 311 -169 b 210 -236 239 -169 210 -199 b 275 -303 210 -274 239 -303 z "}}}
